M48
; DRILL file {KiCad (5.1.10-1-10_14)} date Tuesday, August 23, 2022 at 11:05:16 AM
; FORMAT={-:-/ absolute / inch / decimal}
; #@! TF.CreationDate,2022-08-23T11:05:16+02:00
; #@! TF.GenerationSoftware,Kicad,Pcbnew,(5.1.10-1-10_14)
; #@! TF.FileFunction,Plated,1,2,PTH
FMAT,2
INCH
T1C0.0157
T2C0.0276
T3C0.0315
T4C0.0374
T5C0.0394
T6C0.0512
T7C0.1024
T8C0.1181
T9C0.1260
%
G90
G05
T1
X6.07Y-3.13
X6.11Y-3.1
X6.18Y-3.24
X6.18Y-3.24
X6.22Y-3.21
X6.312Y-3.064
X6.312Y-3.238
X6.385Y-3.545
X6.6325Y-3.4675
X6.675Y-3.4175
X6.705Y-2.31
X6.714Y-3.4181
X6.805Y-3.515
X7.01Y-3.89
X7.0675Y-3.125
X7.1125Y-3.275
X7.12Y-3.3125
X7.28Y-3.02
X7.28Y-3.67
X7.765Y-2.51
X7.8475Y-3.385
X7.9675Y-3.635
X7.9975Y-2.4825
X8.008Y-2.82
X8.009Y-2.763
X8.04Y-2.368
X8.124Y-2.546
T2
X6.1Y-3.8375
X6.15Y-3.8375
X6.2Y-3.8375
X6.25Y-3.8375
X6.3Y-3.8375
X6.35Y-3.8375
X6.4Y-3.8375
X6.45Y-3.8375
X6.5Y-3.8375
X6.55Y-3.8375
X6.6Y-3.8375
X6.65Y-3.8375
T3
X5.89Y-2.9916
X5.89Y-3.09
T4
X5.39Y-2.47
X5.4884Y-2.47
X5.5869Y-2.47
X5.6853Y-2.47
X5.9843Y-2.47
X6.0827Y-2.47
X6.1811Y-2.47
T5
X5.9125Y-3.2475
X5.9125Y-3.3475
X5.9125Y-3.4475
X5.9125Y-3.5475
X5.9125Y-3.6475
X7.9675Y-3.23
X7.9675Y-3.33
X8.11Y-3.17
X8.11Y-3.2684
X8.11Y-3.3669
X8.6809Y-3.17
X8.6809Y-3.3669
T6
X7.13Y-3.87
X7.13Y-4.17
X7.53Y-3.87
X7.83Y-3.87
T7
X8.4053Y-3.048
X8.4053Y-3.4889
T8
X8.077Y-3.9
X8.4235Y-3.9
T9
X5.0787Y-2.3622
X5.0787Y-4.1339
X8.622Y-2.3622
X8.622Y-4.1339
T5
G00X5.4843Y-3.937
M15
G01X5.4843Y-3.8583
M16
G05
G00X5.6299Y-3.7795
M15
G01X5.7087Y-3.7795
M16
G05
G00X5.6299Y-4.0157
M15
G01X5.7087Y-4.0157
M16
G05
T0
M30
