%TF.GenerationSoftware,KiCad,Pcbnew,(5.1.10-1-10_14)*%
%TF.CreationDate,2022-08-23T11:20:17+02:00*%
%TF.ProjectId,RO Flow Counter,524f2046-6c6f-4772-9043-6f756e746572,rev?*%
%TF.SameCoordinates,Original*%
%TF.FileFunction,Legend,Bot*%
%TF.FilePolarity,Positive*%
%FSLAX46Y46*%
G04 Gerber Fmt 4.6, Leading zero omitted, Abs format (unit mm)*
G04 Created by KiCad (PCBNEW (5.1.10-1-10_14)) date 2022-08-23 11:20:17*
%MOMM*%
%LPD*%
G01*
G04 APERTURE LIST*
%ADD10C,0.150000*%
%ADD11C,0.375000*%
%ADD12C,0.010000*%
%ADD13C,0.120000*%
G04 APERTURE END LIST*
D10*
X154844595Y-81748380D02*
X154225547Y-81748380D01*
X154558880Y-82129333D01*
X154416023Y-82129333D01*
X154320785Y-82176952D01*
X154273166Y-82224571D01*
X154225547Y-82319809D01*
X154225547Y-82557904D01*
X154273166Y-82653142D01*
X154320785Y-82700761D01*
X154416023Y-82748380D01*
X154701738Y-82748380D01*
X154796976Y-82700761D01*
X154844595Y-82653142D01*
X153939833Y-81748380D02*
X153606500Y-82748380D01*
X153273166Y-81748380D01*
X153035071Y-81748380D02*
X152416023Y-81748380D01*
X152749357Y-82129333D01*
X152606500Y-82129333D01*
X152511261Y-82176952D01*
X152463642Y-82224571D01*
X152416023Y-82319809D01*
X152416023Y-82557904D01*
X152463642Y-82653142D01*
X152511261Y-82700761D01*
X152606500Y-82748380D01*
X152892214Y-82748380D01*
X152987452Y-82700761D01*
X153035071Y-82653142D01*
X154622404Y-92210000D02*
X154717642Y-92162380D01*
X154860500Y-92162380D01*
X155003357Y-92210000D01*
X155098595Y-92305238D01*
X155146214Y-92400476D01*
X155193833Y-92590952D01*
X155193833Y-92733809D01*
X155146214Y-92924285D01*
X155098595Y-93019523D01*
X155003357Y-93114761D01*
X154860500Y-93162380D01*
X154765261Y-93162380D01*
X154622404Y-93114761D01*
X154574785Y-93067142D01*
X154574785Y-92733809D01*
X154765261Y-92733809D01*
X154146214Y-93162380D02*
X154146214Y-92162380D01*
X153574785Y-93162380D01*
X153574785Y-92162380D01*
X153098595Y-93162380D02*
X153098595Y-92162380D01*
X152860500Y-92162380D01*
X152717642Y-92210000D01*
X152622404Y-92305238D01*
X152574785Y-92400476D01*
X152527166Y-92590952D01*
X152527166Y-92733809D01*
X152574785Y-92924285D01*
X152622404Y-93019523D01*
X152717642Y-93114761D01*
X152860500Y-93162380D01*
X153098595Y-93162380D01*
X155860595Y-90431880D02*
X156193928Y-89955690D01*
X156432023Y-90431880D02*
X156432023Y-89431880D01*
X156051071Y-89431880D01*
X155955833Y-89479500D01*
X155908214Y-89527119D01*
X155860595Y-89622357D01*
X155860595Y-89765214D01*
X155908214Y-89860452D01*
X155955833Y-89908071D01*
X156051071Y-89955690D01*
X156432023Y-89955690D01*
X155051071Y-90384261D02*
X155146309Y-90431880D01*
X155336785Y-90431880D01*
X155432023Y-90384261D01*
X155479642Y-90289023D01*
X155479642Y-89908071D01*
X155432023Y-89812833D01*
X155336785Y-89765214D01*
X155146309Y-89765214D01*
X155051071Y-89812833D01*
X155003452Y-89908071D01*
X155003452Y-90003309D01*
X155479642Y-90098547D01*
X154622500Y-90384261D02*
X154527261Y-90431880D01*
X154336785Y-90431880D01*
X154241547Y-90384261D01*
X154193928Y-90289023D01*
X154193928Y-90241404D01*
X154241547Y-90146166D01*
X154336785Y-90098547D01*
X154479642Y-90098547D01*
X154574880Y-90050928D01*
X154622500Y-89955690D01*
X154622500Y-89908071D01*
X154574880Y-89812833D01*
X154479642Y-89765214D01*
X154336785Y-89765214D01*
X154241547Y-89812833D01*
X153384404Y-90384261D02*
X153479642Y-90431880D01*
X153670119Y-90431880D01*
X153765357Y-90384261D01*
X153812976Y-90289023D01*
X153812976Y-89908071D01*
X153765357Y-89812833D01*
X153670119Y-89765214D01*
X153479642Y-89765214D01*
X153384404Y-89812833D01*
X153336785Y-89908071D01*
X153336785Y-90003309D01*
X153812976Y-90098547D01*
X153051071Y-89765214D02*
X152670119Y-89765214D01*
X152908214Y-89431880D02*
X152908214Y-90289023D01*
X152860595Y-90384261D01*
X152765357Y-90431880D01*
X152670119Y-90431880D01*
D11*
X186036942Y-58359561D02*
X186536942Y-57407180D01*
X186894085Y-58359561D02*
X186894085Y-56359561D01*
X186322657Y-56359561D01*
X186179800Y-56454800D01*
X186108371Y-56550038D01*
X186036942Y-56740514D01*
X186036942Y-57026228D01*
X186108371Y-57216704D01*
X186179800Y-57311942D01*
X186322657Y-57407180D01*
X186894085Y-57407180D01*
X185108371Y-56359561D02*
X184822657Y-56359561D01*
X184679800Y-56454800D01*
X184536942Y-56645276D01*
X184465514Y-57026228D01*
X184465514Y-57692895D01*
X184536942Y-58073847D01*
X184679800Y-58264323D01*
X184822657Y-58359561D01*
X185108371Y-58359561D01*
X185251228Y-58264323D01*
X185394085Y-58073847D01*
X185465514Y-57692895D01*
X185465514Y-57026228D01*
X185394085Y-56645276D01*
X185251228Y-56454800D01*
X185108371Y-56359561D01*
X182179800Y-57311942D02*
X182679800Y-57311942D01*
X182679800Y-58359561D02*
X182679800Y-56359561D01*
X181965514Y-56359561D01*
X181179800Y-58359561D02*
X181322657Y-58264323D01*
X181394085Y-58073847D01*
X181394085Y-56359561D01*
X180394085Y-58359561D02*
X180536942Y-58264323D01*
X180608371Y-58169085D01*
X180679800Y-57978609D01*
X180679800Y-57407180D01*
X180608371Y-57216704D01*
X180536942Y-57121466D01*
X180394085Y-57026228D01*
X180179800Y-57026228D01*
X180036942Y-57121466D01*
X179965514Y-57216704D01*
X179894085Y-57407180D01*
X179894085Y-57978609D01*
X179965514Y-58169085D01*
X180036942Y-58264323D01*
X180179800Y-58359561D01*
X180394085Y-58359561D01*
X179394085Y-57026228D02*
X179108371Y-58359561D01*
X178822657Y-57407180D01*
X178536942Y-58359561D01*
X178251228Y-57026228D01*
X175894085Y-58264323D02*
X176036942Y-58359561D01*
X176322657Y-58359561D01*
X176465514Y-58264323D01*
X176536942Y-58169085D01*
X176608371Y-57978609D01*
X176608371Y-57407180D01*
X176536942Y-57216704D01*
X176465514Y-57121466D01*
X176322657Y-57026228D01*
X176036942Y-57026228D01*
X175894085Y-57121466D01*
X175036942Y-58359561D02*
X175179800Y-58264323D01*
X175251228Y-58169085D01*
X175322657Y-57978609D01*
X175322657Y-57407180D01*
X175251228Y-57216704D01*
X175179800Y-57121466D01*
X175036942Y-57026228D01*
X174822657Y-57026228D01*
X174679800Y-57121466D01*
X174608371Y-57216704D01*
X174536942Y-57407180D01*
X174536942Y-57978609D01*
X174608371Y-58169085D01*
X174679800Y-58264323D01*
X174822657Y-58359561D01*
X175036942Y-58359561D01*
X173251228Y-57026228D02*
X173251228Y-58359561D01*
X173894085Y-57026228D02*
X173894085Y-58073847D01*
X173822657Y-58264323D01*
X173679800Y-58359561D01*
X173465514Y-58359561D01*
X173322657Y-58264323D01*
X173251228Y-58169085D01*
X172536942Y-57026228D02*
X172536942Y-58359561D01*
X172536942Y-57216704D02*
X172465514Y-57121466D01*
X172322657Y-57026228D01*
X172108371Y-57026228D01*
X171965514Y-57121466D01*
X171894085Y-57311942D01*
X171894085Y-58359561D01*
X171394085Y-57026228D02*
X170822657Y-57026228D01*
X171179800Y-56359561D02*
X171179800Y-58073847D01*
X171108371Y-58264323D01*
X170965514Y-58359561D01*
X170822657Y-58359561D01*
X169751228Y-58264323D02*
X169894085Y-58359561D01*
X170179800Y-58359561D01*
X170322657Y-58264323D01*
X170394085Y-58073847D01*
X170394085Y-57311942D01*
X170322657Y-57121466D01*
X170179800Y-57026228D01*
X169894085Y-57026228D01*
X169751228Y-57121466D01*
X169679800Y-57311942D01*
X169679800Y-57502419D01*
X170394085Y-57692895D01*
X169036942Y-58359561D02*
X169036942Y-57026228D01*
X169036942Y-57407180D02*
X168965514Y-57216704D01*
X168894085Y-57121466D01*
X168751228Y-57026228D01*
X168608371Y-57026228D01*
X167108371Y-57026228D02*
X166751228Y-58359561D01*
X166394085Y-57026228D01*
X165536942Y-56359561D02*
X165394085Y-56359561D01*
X165251228Y-56454800D01*
X165179800Y-56550038D01*
X165108371Y-56740514D01*
X165036942Y-57121466D01*
X165036942Y-57597657D01*
X165108371Y-57978609D01*
X165179800Y-58169085D01*
X165251228Y-58264323D01*
X165394085Y-58359561D01*
X165536942Y-58359561D01*
X165679800Y-58264323D01*
X165751228Y-58169085D01*
X165822657Y-57978609D01*
X165894085Y-57597657D01*
X165894085Y-57121466D01*
X165822657Y-56740514D01*
X165751228Y-56550038D01*
X165679800Y-56454800D01*
X165536942Y-56359561D01*
X164394085Y-58169085D02*
X164322657Y-58264323D01*
X164394085Y-58359561D01*
X164465514Y-58264323D01*
X164394085Y-58169085D01*
X164394085Y-58359561D01*
X163751228Y-56550038D02*
X163679800Y-56454800D01*
X163536942Y-56359561D01*
X163179800Y-56359561D01*
X163036942Y-56454800D01*
X162965514Y-56550038D01*
X162894085Y-56740514D01*
X162894085Y-56930990D01*
X162965514Y-57216704D01*
X163822657Y-58359561D01*
X162894085Y-58359561D01*
D10*
X153447738Y-87955380D02*
X153781071Y-87479190D01*
X154019166Y-87955380D02*
X154019166Y-86955380D01*
X153638214Y-86955380D01*
X153542976Y-87003000D01*
X153495357Y-87050619D01*
X153447738Y-87145857D01*
X153447738Y-87288714D01*
X153495357Y-87383952D01*
X153542976Y-87431571D01*
X153638214Y-87479190D01*
X154019166Y-87479190D01*
X153114404Y-87955380D02*
X152590595Y-87288714D01*
X153114404Y-87288714D02*
X152590595Y-87955380D01*
X154233476Y-84351880D02*
X153662047Y-84351880D01*
X153947761Y-85351880D02*
X153947761Y-84351880D01*
X153423952Y-85351880D02*
X152900142Y-84685214D01*
X153423952Y-84685214D02*
X152900142Y-85351880D01*
D12*
%TO.C,G\u002A\u002A\u002A*%
G36*
X186563232Y-59189089D02*
G01*
X186435950Y-59191088D01*
X186333048Y-59195279D01*
X186245556Y-59202304D01*
X186164502Y-59212804D01*
X186080915Y-59227417D01*
X186025366Y-59238520D01*
X185635550Y-59339684D01*
X185264831Y-59477957D01*
X184914989Y-59652076D01*
X184587805Y-59860781D01*
X184285059Y-60102810D01*
X184008530Y-60376902D01*
X183760000Y-60681797D01*
X183559339Y-60985513D01*
X183380461Y-61325754D01*
X183241628Y-61678356D01*
X183142542Y-62044425D01*
X183082906Y-62425068D01*
X183062423Y-62821391D01*
X183062413Y-62836411D01*
X183075217Y-63183853D01*
X183114224Y-63505881D01*
X183181503Y-63811861D01*
X183279119Y-64111159D01*
X183409140Y-64413140D01*
X183411528Y-64418113D01*
X183601111Y-64764610D01*
X183823195Y-65085035D01*
X184075736Y-65377791D01*
X184356690Y-65641277D01*
X184664013Y-65873894D01*
X184995664Y-66074042D01*
X185349597Y-66240123D01*
X185723770Y-66370536D01*
X185993616Y-66439093D01*
X186130668Y-66461958D01*
X186298754Y-66479252D01*
X186487089Y-66490794D01*
X186684889Y-66496404D01*
X186881371Y-66495899D01*
X187065749Y-66489100D01*
X187227239Y-66475826D01*
X187327116Y-66461463D01*
X187722347Y-66368450D01*
X188098131Y-66238222D01*
X188453096Y-66071677D01*
X188785869Y-65869715D01*
X189095076Y-65633235D01*
X189379345Y-65363136D01*
X189637302Y-65060317D01*
X189787500Y-64850433D01*
X189945883Y-64583915D01*
X190086737Y-64287625D01*
X190205822Y-63971986D01*
X190298896Y-63647420D01*
X190325818Y-63527516D01*
X190342675Y-63440645D01*
X190355170Y-63359854D01*
X190363926Y-63276296D01*
X190369561Y-63181124D01*
X190372696Y-63065490D01*
X190373953Y-62920548D01*
X190374071Y-62839600D01*
X190373875Y-62785292D01*
X189919620Y-62785292D01*
X189904315Y-62925783D01*
X189858467Y-63039118D01*
X189783694Y-63123341D01*
X189681611Y-63176495D01*
X189580853Y-63195372D01*
X189469159Y-63192119D01*
X189379174Y-63160409D01*
X189297141Y-63094902D01*
X189282622Y-63079614D01*
X189231923Y-63009977D01*
X189199623Y-62926684D01*
X189183012Y-62820039D01*
X189179200Y-62709302D01*
X189169130Y-62512796D01*
X189140479Y-62289414D01*
X189095581Y-62049086D01*
X189036774Y-61801739D01*
X188966392Y-61557303D01*
X188886772Y-61325705D01*
X188809171Y-61136507D01*
X188735808Y-60988785D01*
X188652569Y-60847182D01*
X188564098Y-60717752D01*
X188475040Y-60606547D01*
X188390042Y-60519622D01*
X188313748Y-60463029D01*
X188281017Y-60448229D01*
X188192662Y-60439024D01*
X188110418Y-60465505D01*
X188042708Y-60521086D01*
X187997954Y-60599182D01*
X187984245Y-60680272D01*
X187990183Y-60729473D01*
X188012104Y-60778177D01*
X188056167Y-60837914D01*
X188088746Y-60875884D01*
X188230803Y-61064682D01*
X188357383Y-61289807D01*
X188467321Y-61547748D01*
X188559455Y-61834993D01*
X188632622Y-62148029D01*
X188685659Y-62483344D01*
X188712355Y-62758811D01*
X188722269Y-62883482D01*
X188732870Y-62976553D01*
X188746245Y-63048733D01*
X188764481Y-63110731D01*
X188789664Y-63173257D01*
X188795755Y-63186851D01*
X188885468Y-63338142D01*
X189003643Y-63466249D01*
X189143780Y-63567596D01*
X189299379Y-63638607D01*
X189463941Y-63675707D01*
X189630964Y-63675320D01*
X189672195Y-63668974D01*
X189740571Y-63657476D01*
X189789907Y-63651470D01*
X189808073Y-63651917D01*
X189806854Y-63676669D01*
X189791883Y-63732285D01*
X189766118Y-63810733D01*
X189732515Y-63903981D01*
X189694031Y-64003996D01*
X189653623Y-64102747D01*
X189614249Y-64192201D01*
X189592128Y-64238516D01*
X189409976Y-64558963D01*
X189196624Y-64853270D01*
X188954721Y-65119531D01*
X188686915Y-65355841D01*
X188395857Y-65560292D01*
X188084193Y-65730980D01*
X187754574Y-65865999D01*
X187409649Y-65963442D01*
X187126033Y-66012862D01*
X187053129Y-66022249D01*
X186997568Y-66029577D01*
X186972575Y-66033082D01*
X186966764Y-66014228D01*
X186961908Y-65960678D01*
X186958437Y-65880067D01*
X186956780Y-65780027D01*
X186956700Y-65751443D01*
X186957127Y-65636391D01*
X186959053Y-65556728D01*
X186963440Y-65505509D01*
X186971253Y-65475791D01*
X186983457Y-65460633D01*
X186998000Y-65454011D01*
X187048824Y-65430096D01*
X187121613Y-65386302D01*
X187205891Y-65329943D01*
X187291179Y-65268334D01*
X187367001Y-65208790D01*
X187422878Y-65158626D01*
X187426625Y-65154765D01*
X187503757Y-65055381D01*
X187549370Y-64956259D01*
X187564399Y-64862983D01*
X187549782Y-64781136D01*
X187506455Y-64716298D01*
X187435355Y-64674054D01*
X187343591Y-64659933D01*
X187285230Y-64662558D01*
X187197124Y-64669695D01*
X187091487Y-64680236D01*
X186986612Y-64692319D01*
X186866371Y-64706043D01*
X186771577Y-64713091D01*
X186685875Y-64713464D01*
X186592908Y-64707161D01*
X186476320Y-64694183D01*
X186461121Y-64692319D01*
X186286482Y-64672883D01*
X186150811Y-64662561D01*
X186051757Y-64661261D01*
X185986966Y-64668890D01*
X185973398Y-64673081D01*
X185932701Y-64707715D01*
X185898938Y-64769407D01*
X185879406Y-64842883D01*
X185877200Y-64874449D01*
X185897909Y-64980938D01*
X185958660Y-65089512D01*
X186057388Y-65197872D01*
X186192031Y-65303721D01*
X186346914Y-65397484D01*
X186490315Y-65474850D01*
X186491033Y-66030566D01*
X186390491Y-66020551D01*
X186267688Y-66003825D01*
X186121287Y-65977042D01*
X185967774Y-65943759D01*
X185823633Y-65907535D01*
X185711340Y-65873956D01*
X185383472Y-65742198D01*
X185071281Y-65573686D01*
X184778529Y-65371753D01*
X184508979Y-65139730D01*
X184266394Y-64880947D01*
X184054536Y-64598736D01*
X183877167Y-64296429D01*
X183836963Y-64214518D01*
X183795592Y-64121909D01*
X183753923Y-64020286D01*
X183714736Y-63917545D01*
X183680814Y-63821579D01*
X183654937Y-63740283D01*
X183639889Y-63681552D01*
X183638451Y-63653281D01*
X183638966Y-63652611D01*
X183663236Y-63651368D01*
X183715466Y-63658355D01*
X183760247Y-63667016D01*
X183918541Y-63680321D01*
X184081224Y-63656898D01*
X184239844Y-63600359D01*
X184385950Y-63514312D01*
X184511088Y-63402368D01*
X184576601Y-63318304D01*
X184627574Y-63233390D01*
X184665902Y-63147494D01*
X184694005Y-63051354D01*
X184714305Y-62935709D01*
X184729223Y-62791296D01*
X184734948Y-62712600D01*
X184764329Y-62422197D01*
X184812757Y-62136187D01*
X184878333Y-61860290D01*
X184959156Y-61600225D01*
X185053328Y-61361714D01*
X185158947Y-61150478D01*
X185274115Y-60972237D01*
X185339775Y-60891531D01*
X185398052Y-60823568D01*
X185432433Y-60773837D01*
X185448988Y-60730664D01*
X185453784Y-60682376D01*
X185453866Y-60672071D01*
X185436057Y-60573030D01*
X185384135Y-60497765D01*
X185300358Y-60449509D01*
X185297834Y-60448663D01*
X185224681Y-60437136D01*
X185152771Y-60454980D01*
X185074348Y-60505228D01*
X185012648Y-60560121D01*
X184884698Y-60706379D01*
X184763308Y-60889931D01*
X184650309Y-61106000D01*
X184547530Y-61349814D01*
X184456800Y-61616595D01*
X184379949Y-61901570D01*
X184318807Y-62199964D01*
X184278784Y-62475510D01*
X184266487Y-62589306D01*
X184256447Y-62698733D01*
X184249722Y-62791106D01*
X184247366Y-62852215D01*
X184228882Y-62968932D01*
X184172552Y-63068576D01*
X184077529Y-63153158D01*
X183989828Y-63189817D01*
X183885186Y-63199474D01*
X183778571Y-63182944D01*
X183684953Y-63141042D01*
X183670803Y-63130995D01*
X183612405Y-63079864D01*
X183571509Y-63024721D01*
X183545860Y-62957569D01*
X183533208Y-62870413D01*
X183531301Y-62755259D01*
X183535339Y-62650074D01*
X183574565Y-62293846D01*
X183653883Y-61947201D01*
X183771563Y-61613161D01*
X183925875Y-61294748D01*
X184115089Y-60994985D01*
X184337476Y-60716893D01*
X184591306Y-60463494D01*
X184874849Y-60237811D01*
X184943045Y-60190838D01*
X185078370Y-60102254D01*
X185193292Y-60032752D01*
X185300843Y-59975447D01*
X185414052Y-59923455D01*
X185545950Y-59869888D01*
X185562844Y-59863340D01*
X185910975Y-59751056D01*
X186265862Y-59679512D01*
X186624146Y-59648538D01*
X186982470Y-59657964D01*
X187337476Y-59707618D01*
X187685806Y-59797330D01*
X188024102Y-59926929D01*
X188167388Y-59995766D01*
X188486413Y-60182151D01*
X188778176Y-60400199D01*
X189041084Y-60647912D01*
X189273546Y-60923292D01*
X189473970Y-61224340D01*
X189640765Y-61549059D01*
X189772338Y-61895450D01*
X189824376Y-62075982D01*
X189848812Y-62186828D01*
X189872375Y-62322631D01*
X189893100Y-62468764D01*
X189909024Y-62610598D01*
X189918183Y-62733506D01*
X189919620Y-62785292D01*
X190373875Y-62785292D01*
X190373486Y-62677858D01*
X190371319Y-62549594D01*
X190366947Y-62445964D01*
X190359751Y-62358124D01*
X190349108Y-62277230D01*
X190334398Y-62194437D01*
X190325763Y-62151683D01*
X190225348Y-61767125D01*
X190088155Y-61399835D01*
X189916024Y-61052194D01*
X189710795Y-60726585D01*
X189474309Y-60425388D01*
X189208404Y-60150987D01*
X188914923Y-59905763D01*
X188595703Y-59692098D01*
X188306271Y-59537440D01*
X187997692Y-59407442D01*
X187669404Y-59300617D01*
X187411783Y-59237473D01*
X187325014Y-59220525D01*
X187244399Y-59207949D01*
X187161097Y-59199118D01*
X187066265Y-59193405D01*
X186951062Y-59190181D01*
X186806646Y-59188820D01*
X186723866Y-59188643D01*
X186563232Y-59189089D01*
G37*
X186563232Y-59189089D02*
X186435950Y-59191088D01*
X186333048Y-59195279D01*
X186245556Y-59202304D01*
X186164502Y-59212804D01*
X186080915Y-59227417D01*
X186025366Y-59238520D01*
X185635550Y-59339684D01*
X185264831Y-59477957D01*
X184914989Y-59652076D01*
X184587805Y-59860781D01*
X184285059Y-60102810D01*
X184008530Y-60376902D01*
X183760000Y-60681797D01*
X183559339Y-60985513D01*
X183380461Y-61325754D01*
X183241628Y-61678356D01*
X183142542Y-62044425D01*
X183082906Y-62425068D01*
X183062423Y-62821391D01*
X183062413Y-62836411D01*
X183075217Y-63183853D01*
X183114224Y-63505881D01*
X183181503Y-63811861D01*
X183279119Y-64111159D01*
X183409140Y-64413140D01*
X183411528Y-64418113D01*
X183601111Y-64764610D01*
X183823195Y-65085035D01*
X184075736Y-65377791D01*
X184356690Y-65641277D01*
X184664013Y-65873894D01*
X184995664Y-66074042D01*
X185349597Y-66240123D01*
X185723770Y-66370536D01*
X185993616Y-66439093D01*
X186130668Y-66461958D01*
X186298754Y-66479252D01*
X186487089Y-66490794D01*
X186684889Y-66496404D01*
X186881371Y-66495899D01*
X187065749Y-66489100D01*
X187227239Y-66475826D01*
X187327116Y-66461463D01*
X187722347Y-66368450D01*
X188098131Y-66238222D01*
X188453096Y-66071677D01*
X188785869Y-65869715D01*
X189095076Y-65633235D01*
X189379345Y-65363136D01*
X189637302Y-65060317D01*
X189787500Y-64850433D01*
X189945883Y-64583915D01*
X190086737Y-64287625D01*
X190205822Y-63971986D01*
X190298896Y-63647420D01*
X190325818Y-63527516D01*
X190342675Y-63440645D01*
X190355170Y-63359854D01*
X190363926Y-63276296D01*
X190369561Y-63181124D01*
X190372696Y-63065490D01*
X190373953Y-62920548D01*
X190374071Y-62839600D01*
X190373875Y-62785292D01*
X189919620Y-62785292D01*
X189904315Y-62925783D01*
X189858467Y-63039118D01*
X189783694Y-63123341D01*
X189681611Y-63176495D01*
X189580853Y-63195372D01*
X189469159Y-63192119D01*
X189379174Y-63160409D01*
X189297141Y-63094902D01*
X189282622Y-63079614D01*
X189231923Y-63009977D01*
X189199623Y-62926684D01*
X189183012Y-62820039D01*
X189179200Y-62709302D01*
X189169130Y-62512796D01*
X189140479Y-62289414D01*
X189095581Y-62049086D01*
X189036774Y-61801739D01*
X188966392Y-61557303D01*
X188886772Y-61325705D01*
X188809171Y-61136507D01*
X188735808Y-60988785D01*
X188652569Y-60847182D01*
X188564098Y-60717752D01*
X188475040Y-60606547D01*
X188390042Y-60519622D01*
X188313748Y-60463029D01*
X188281017Y-60448229D01*
X188192662Y-60439024D01*
X188110418Y-60465505D01*
X188042708Y-60521086D01*
X187997954Y-60599182D01*
X187984245Y-60680272D01*
X187990183Y-60729473D01*
X188012104Y-60778177D01*
X188056167Y-60837914D01*
X188088746Y-60875884D01*
X188230803Y-61064682D01*
X188357383Y-61289807D01*
X188467321Y-61547748D01*
X188559455Y-61834993D01*
X188632622Y-62148029D01*
X188685659Y-62483344D01*
X188712355Y-62758811D01*
X188722269Y-62883482D01*
X188732870Y-62976553D01*
X188746245Y-63048733D01*
X188764481Y-63110731D01*
X188789664Y-63173257D01*
X188795755Y-63186851D01*
X188885468Y-63338142D01*
X189003643Y-63466249D01*
X189143780Y-63567596D01*
X189299379Y-63638607D01*
X189463941Y-63675707D01*
X189630964Y-63675320D01*
X189672195Y-63668974D01*
X189740571Y-63657476D01*
X189789907Y-63651470D01*
X189808073Y-63651917D01*
X189806854Y-63676669D01*
X189791883Y-63732285D01*
X189766118Y-63810733D01*
X189732515Y-63903981D01*
X189694031Y-64003996D01*
X189653623Y-64102747D01*
X189614249Y-64192201D01*
X189592128Y-64238516D01*
X189409976Y-64558963D01*
X189196624Y-64853270D01*
X188954721Y-65119531D01*
X188686915Y-65355841D01*
X188395857Y-65560292D01*
X188084193Y-65730980D01*
X187754574Y-65865999D01*
X187409649Y-65963442D01*
X187126033Y-66012862D01*
X187053129Y-66022249D01*
X186997568Y-66029577D01*
X186972575Y-66033082D01*
X186966764Y-66014228D01*
X186961908Y-65960678D01*
X186958437Y-65880067D01*
X186956780Y-65780027D01*
X186956700Y-65751443D01*
X186957127Y-65636391D01*
X186959053Y-65556728D01*
X186963440Y-65505509D01*
X186971253Y-65475791D01*
X186983457Y-65460633D01*
X186998000Y-65454011D01*
X187048824Y-65430096D01*
X187121613Y-65386302D01*
X187205891Y-65329943D01*
X187291179Y-65268334D01*
X187367001Y-65208790D01*
X187422878Y-65158626D01*
X187426625Y-65154765D01*
X187503757Y-65055381D01*
X187549370Y-64956259D01*
X187564399Y-64862983D01*
X187549782Y-64781136D01*
X187506455Y-64716298D01*
X187435355Y-64674054D01*
X187343591Y-64659933D01*
X187285230Y-64662558D01*
X187197124Y-64669695D01*
X187091487Y-64680236D01*
X186986612Y-64692319D01*
X186866371Y-64706043D01*
X186771577Y-64713091D01*
X186685875Y-64713464D01*
X186592908Y-64707161D01*
X186476320Y-64694183D01*
X186461121Y-64692319D01*
X186286482Y-64672883D01*
X186150811Y-64662561D01*
X186051757Y-64661261D01*
X185986966Y-64668890D01*
X185973398Y-64673081D01*
X185932701Y-64707715D01*
X185898938Y-64769407D01*
X185879406Y-64842883D01*
X185877200Y-64874449D01*
X185897909Y-64980938D01*
X185958660Y-65089512D01*
X186057388Y-65197872D01*
X186192031Y-65303721D01*
X186346914Y-65397484D01*
X186490315Y-65474850D01*
X186491033Y-66030566D01*
X186390491Y-66020551D01*
X186267688Y-66003825D01*
X186121287Y-65977042D01*
X185967774Y-65943759D01*
X185823633Y-65907535D01*
X185711340Y-65873956D01*
X185383472Y-65742198D01*
X185071281Y-65573686D01*
X184778529Y-65371753D01*
X184508979Y-65139730D01*
X184266394Y-64880947D01*
X184054536Y-64598736D01*
X183877167Y-64296429D01*
X183836963Y-64214518D01*
X183795592Y-64121909D01*
X183753923Y-64020286D01*
X183714736Y-63917545D01*
X183680814Y-63821579D01*
X183654937Y-63740283D01*
X183639889Y-63681552D01*
X183638451Y-63653281D01*
X183638966Y-63652611D01*
X183663236Y-63651368D01*
X183715466Y-63658355D01*
X183760247Y-63667016D01*
X183918541Y-63680321D01*
X184081224Y-63656898D01*
X184239844Y-63600359D01*
X184385950Y-63514312D01*
X184511088Y-63402368D01*
X184576601Y-63318304D01*
X184627574Y-63233390D01*
X184665902Y-63147494D01*
X184694005Y-63051354D01*
X184714305Y-62935709D01*
X184729223Y-62791296D01*
X184734948Y-62712600D01*
X184764329Y-62422197D01*
X184812757Y-62136187D01*
X184878333Y-61860290D01*
X184959156Y-61600225D01*
X185053328Y-61361714D01*
X185158947Y-61150478D01*
X185274115Y-60972237D01*
X185339775Y-60891531D01*
X185398052Y-60823568D01*
X185432433Y-60773837D01*
X185448988Y-60730664D01*
X185453784Y-60682376D01*
X185453866Y-60672071D01*
X185436057Y-60573030D01*
X185384135Y-60497765D01*
X185300358Y-60449509D01*
X185297834Y-60448663D01*
X185224681Y-60437136D01*
X185152771Y-60454980D01*
X185074348Y-60505228D01*
X185012648Y-60560121D01*
X184884698Y-60706379D01*
X184763308Y-60889931D01*
X184650309Y-61106000D01*
X184547530Y-61349814D01*
X184456800Y-61616595D01*
X184379949Y-61901570D01*
X184318807Y-62199964D01*
X184278784Y-62475510D01*
X184266487Y-62589306D01*
X184256447Y-62698733D01*
X184249722Y-62791106D01*
X184247366Y-62852215D01*
X184228882Y-62968932D01*
X184172552Y-63068576D01*
X184077529Y-63153158D01*
X183989828Y-63189817D01*
X183885186Y-63199474D01*
X183778571Y-63182944D01*
X183684953Y-63141042D01*
X183670803Y-63130995D01*
X183612405Y-63079864D01*
X183571509Y-63024721D01*
X183545860Y-62957569D01*
X183533208Y-62870413D01*
X183531301Y-62755259D01*
X183535339Y-62650074D01*
X183574565Y-62293846D01*
X183653883Y-61947201D01*
X183771563Y-61613161D01*
X183925875Y-61294748D01*
X184115089Y-60994985D01*
X184337476Y-60716893D01*
X184591306Y-60463494D01*
X184874849Y-60237811D01*
X184943045Y-60190838D01*
X185078370Y-60102254D01*
X185193292Y-60032752D01*
X185300843Y-59975447D01*
X185414052Y-59923455D01*
X185545950Y-59869888D01*
X185562844Y-59863340D01*
X185910975Y-59751056D01*
X186265862Y-59679512D01*
X186624146Y-59648538D01*
X186982470Y-59657964D01*
X187337476Y-59707618D01*
X187685806Y-59797330D01*
X188024102Y-59926929D01*
X188167388Y-59995766D01*
X188486413Y-60182151D01*
X188778176Y-60400199D01*
X189041084Y-60647912D01*
X189273546Y-60923292D01*
X189473970Y-61224340D01*
X189640765Y-61549059D01*
X189772338Y-61895450D01*
X189824376Y-62075982D01*
X189848812Y-62186828D01*
X189872375Y-62322631D01*
X189893100Y-62468764D01*
X189909024Y-62610598D01*
X189918183Y-62733506D01*
X189919620Y-62785292D01*
X190373875Y-62785292D01*
X190373486Y-62677858D01*
X190371319Y-62549594D01*
X190366947Y-62445964D01*
X190359751Y-62358124D01*
X190349108Y-62277230D01*
X190334398Y-62194437D01*
X190325763Y-62151683D01*
X190225348Y-61767125D01*
X190088155Y-61399835D01*
X189916024Y-61052194D01*
X189710795Y-60726585D01*
X189474309Y-60425388D01*
X189208404Y-60150987D01*
X188914923Y-59905763D01*
X188595703Y-59692098D01*
X188306271Y-59537440D01*
X187997692Y-59407442D01*
X187669404Y-59300617D01*
X187411783Y-59237473D01*
X187325014Y-59220525D01*
X187244399Y-59207949D01*
X187161097Y-59199118D01*
X187066265Y-59193405D01*
X186951062Y-59190181D01*
X186806646Y-59188820D01*
X186723866Y-59188643D01*
X186563232Y-59189089D01*
G36*
X178153739Y-62524678D02*
G01*
X178061433Y-62558728D01*
X177976615Y-62623404D01*
X177935476Y-62666015D01*
X177862778Y-62767297D01*
X177814726Y-62886138D01*
X177789197Y-63029700D01*
X177783635Y-63178266D01*
X177791681Y-63328689D01*
X177814952Y-63451099D01*
X177856905Y-63558148D01*
X177912624Y-63650563D01*
X178000186Y-63744336D01*
X178110509Y-63813098D01*
X178234247Y-63854764D01*
X178362051Y-63867249D01*
X178484574Y-63848466D01*
X178586038Y-63800804D01*
X178659366Y-63751042D01*
X178659366Y-64278933D01*
X178976866Y-64278933D01*
X178976866Y-62907485D01*
X178659366Y-62907485D01*
X178659366Y-63208928D01*
X178658829Y-63329512D01*
X178656643Y-63415012D01*
X178651951Y-63472671D01*
X178643892Y-63509732D01*
X178631607Y-63533437D01*
X178619308Y-63546625D01*
X178540328Y-63592365D01*
X178442524Y-63612405D01*
X178341402Y-63605815D01*
X178252469Y-63571663D01*
X178248131Y-63568895D01*
X178188234Y-63507642D01*
X178147534Y-63413803D01*
X178125361Y-63285214D01*
X178120502Y-63157486D01*
X178123587Y-63045132D01*
X178132625Y-62964874D01*
X178149031Y-62906720D01*
X178158949Y-62885557D01*
X178218408Y-62814751D01*
X178299553Y-62773705D01*
X178393096Y-62763322D01*
X178489752Y-62784506D01*
X178580232Y-62838159D01*
X178586995Y-62843942D01*
X178659366Y-62907485D01*
X178976866Y-62907485D01*
X178976866Y-62541246D01*
X178845840Y-62547548D01*
X178773795Y-62552100D01*
X178732861Y-62560761D01*
X178711845Y-62579214D01*
X178699556Y-62613142D01*
X178696935Y-62623155D01*
X178679056Y-62692461D01*
X178611003Y-62641529D01*
X178505692Y-62572094D01*
X178409521Y-62532022D01*
X178307612Y-62515819D01*
X178267783Y-62514770D01*
X178153739Y-62524678D01*
G37*
X178153739Y-62524678D02*
X178061433Y-62558728D01*
X177976615Y-62623404D01*
X177935476Y-62666015D01*
X177862778Y-62767297D01*
X177814726Y-62886138D01*
X177789197Y-63029700D01*
X177783635Y-63178266D01*
X177791681Y-63328689D01*
X177814952Y-63451099D01*
X177856905Y-63558148D01*
X177912624Y-63650563D01*
X178000186Y-63744336D01*
X178110509Y-63813098D01*
X178234247Y-63854764D01*
X178362051Y-63867249D01*
X178484574Y-63848466D01*
X178586038Y-63800804D01*
X178659366Y-63751042D01*
X178659366Y-64278933D01*
X178976866Y-64278933D01*
X178976866Y-62907485D01*
X178659366Y-62907485D01*
X178659366Y-63208928D01*
X178658829Y-63329512D01*
X178656643Y-63415012D01*
X178651951Y-63472671D01*
X178643892Y-63509732D01*
X178631607Y-63533437D01*
X178619308Y-63546625D01*
X178540328Y-63592365D01*
X178442524Y-63612405D01*
X178341402Y-63605815D01*
X178252469Y-63571663D01*
X178248131Y-63568895D01*
X178188234Y-63507642D01*
X178147534Y-63413803D01*
X178125361Y-63285214D01*
X178120502Y-63157486D01*
X178123587Y-63045132D01*
X178132625Y-62964874D01*
X178149031Y-62906720D01*
X178158949Y-62885557D01*
X178218408Y-62814751D01*
X178299553Y-62773705D01*
X178393096Y-62763322D01*
X178489752Y-62784506D01*
X178580232Y-62838159D01*
X178586995Y-62843942D01*
X178659366Y-62907485D01*
X178976866Y-62907485D01*
X178976866Y-62541246D01*
X178845840Y-62547548D01*
X178773795Y-62552100D01*
X178732861Y-62560761D01*
X178711845Y-62579214D01*
X178699556Y-62613142D01*
X178696935Y-62623155D01*
X178679056Y-62692461D01*
X178611003Y-62641529D01*
X178505692Y-62572094D01*
X178409521Y-62532022D01*
X178307612Y-62515819D01*
X178267783Y-62514770D01*
X178153739Y-62524678D01*
G36*
X176714406Y-62524678D02*
G01*
X176622100Y-62558728D01*
X176537281Y-62623404D01*
X176496142Y-62666015D01*
X176423444Y-62767297D01*
X176375393Y-62886138D01*
X176349863Y-63029700D01*
X176344302Y-63178266D01*
X176352347Y-63328689D01*
X176375619Y-63451099D01*
X176417572Y-63558148D01*
X176473290Y-63650563D01*
X176560852Y-63744336D01*
X176671176Y-63813098D01*
X176794914Y-63854764D01*
X176922718Y-63867249D01*
X177045240Y-63848466D01*
X177146704Y-63800804D01*
X177220033Y-63751042D01*
X177220033Y-64278933D01*
X177537533Y-64278933D01*
X177537533Y-62907485D01*
X177220033Y-62907485D01*
X177220033Y-63208928D01*
X177219496Y-63329512D01*
X177217310Y-63415012D01*
X177212617Y-63472671D01*
X177204558Y-63509732D01*
X177192274Y-63533437D01*
X177179974Y-63546625D01*
X177100994Y-63592365D01*
X177003191Y-63612405D01*
X176902069Y-63605815D01*
X176813136Y-63571663D01*
X176808798Y-63568895D01*
X176748901Y-63507642D01*
X176708201Y-63413803D01*
X176686028Y-63285214D01*
X176681168Y-63157486D01*
X176684253Y-63045132D01*
X176693292Y-62964874D01*
X176709698Y-62906720D01*
X176719616Y-62885557D01*
X176779074Y-62814751D01*
X176860219Y-62773705D01*
X176953763Y-62763322D01*
X177050419Y-62784506D01*
X177140899Y-62838159D01*
X177147662Y-62843942D01*
X177220033Y-62907485D01*
X177537533Y-62907485D01*
X177537533Y-62541246D01*
X177406507Y-62547548D01*
X177334462Y-62552100D01*
X177293528Y-62560761D01*
X177272512Y-62579214D01*
X177260222Y-62613142D01*
X177257602Y-62623155D01*
X177239723Y-62692461D01*
X177171670Y-62641529D01*
X177066358Y-62572094D01*
X176970188Y-62532022D01*
X176868279Y-62515819D01*
X176828450Y-62514770D01*
X176714406Y-62524678D01*
G37*
X176714406Y-62524678D02*
X176622100Y-62558728D01*
X176537281Y-62623404D01*
X176496142Y-62666015D01*
X176423444Y-62767297D01*
X176375393Y-62886138D01*
X176349863Y-63029700D01*
X176344302Y-63178266D01*
X176352347Y-63328689D01*
X176375619Y-63451099D01*
X176417572Y-63558148D01*
X176473290Y-63650563D01*
X176560852Y-63744336D01*
X176671176Y-63813098D01*
X176794914Y-63854764D01*
X176922718Y-63867249D01*
X177045240Y-63848466D01*
X177146704Y-63800804D01*
X177220033Y-63751042D01*
X177220033Y-64278933D01*
X177537533Y-64278933D01*
X177537533Y-62907485D01*
X177220033Y-62907485D01*
X177220033Y-63208928D01*
X177219496Y-63329512D01*
X177217310Y-63415012D01*
X177212617Y-63472671D01*
X177204558Y-63509732D01*
X177192274Y-63533437D01*
X177179974Y-63546625D01*
X177100994Y-63592365D01*
X177003191Y-63612405D01*
X176902069Y-63605815D01*
X176813136Y-63571663D01*
X176808798Y-63568895D01*
X176748901Y-63507642D01*
X176708201Y-63413803D01*
X176686028Y-63285214D01*
X176681168Y-63157486D01*
X176684253Y-63045132D01*
X176693292Y-62964874D01*
X176709698Y-62906720D01*
X176719616Y-62885557D01*
X176779074Y-62814751D01*
X176860219Y-62773705D01*
X176953763Y-62763322D01*
X177050419Y-62784506D01*
X177140899Y-62838159D01*
X177147662Y-62843942D01*
X177220033Y-62907485D01*
X177537533Y-62907485D01*
X177537533Y-62541246D01*
X177406507Y-62547548D01*
X177334462Y-62552100D01*
X177293528Y-62560761D01*
X177272512Y-62579214D01*
X177260222Y-62613142D01*
X177257602Y-62623155D01*
X177239723Y-62692461D01*
X177171670Y-62641529D01*
X177066358Y-62572094D01*
X176970188Y-62532022D01*
X176868279Y-62515819D01*
X176828450Y-62514770D01*
X176714406Y-62524678D01*
G36*
X175014138Y-62544223D02*
G01*
X174980430Y-62551152D01*
X174976366Y-62555968D01*
X174984434Y-62579052D01*
X175007242Y-62636076D01*
X175042696Y-62722138D01*
X175088701Y-62832335D01*
X175143163Y-62961764D01*
X175203989Y-63105524D01*
X175269084Y-63258712D01*
X175336353Y-63416426D01*
X175403704Y-63573763D01*
X175469041Y-63725821D01*
X175530271Y-63867697D01*
X175585299Y-63994489D01*
X175632032Y-64101295D01*
X175668374Y-64183213D01*
X175692233Y-64235339D01*
X175701060Y-64252475D01*
X175736057Y-64268157D01*
X175806712Y-64277145D01*
X175870223Y-64278933D01*
X175951228Y-64276831D01*
X175995518Y-64269825D01*
X176008535Y-64256866D01*
X176007501Y-64252475D01*
X175994809Y-64223816D01*
X175968057Y-64165345D01*
X175931167Y-64085576D01*
X175888069Y-63993048D01*
X175779199Y-63760079D01*
X176042866Y-63151673D01*
X176306533Y-62543266D01*
X176141458Y-62543266D01*
X176041477Y-62546939D01*
X175977305Y-62557629D01*
X175954959Y-62569725D01*
X175940866Y-62596749D01*
X175913979Y-62656797D01*
X175877006Y-62743497D01*
X175832653Y-62850479D01*
X175783629Y-62971373D01*
X175773332Y-62997085D01*
X175724871Y-63115691D01*
X175681240Y-63217434D01*
X175644880Y-63297029D01*
X175618232Y-63349193D01*
X175603738Y-63368641D01*
X175602189Y-63367502D01*
X175565498Y-63267061D01*
X175522942Y-63153451D01*
X175477228Y-63033581D01*
X175431065Y-62914360D01*
X175387163Y-62802696D01*
X175348230Y-62705500D01*
X175316973Y-62629680D01*
X175296103Y-62582145D01*
X175289421Y-62569725D01*
X175261867Y-62558438D01*
X175208041Y-62549694D01*
X175140463Y-62544044D01*
X175071656Y-62542037D01*
X175014138Y-62544223D01*
G37*
X175014138Y-62544223D02*
X174980430Y-62551152D01*
X174976366Y-62555968D01*
X174984434Y-62579052D01*
X175007242Y-62636076D01*
X175042696Y-62722138D01*
X175088701Y-62832335D01*
X175143163Y-62961764D01*
X175203989Y-63105524D01*
X175269084Y-63258712D01*
X175336353Y-63416426D01*
X175403704Y-63573763D01*
X175469041Y-63725821D01*
X175530271Y-63867697D01*
X175585299Y-63994489D01*
X175632032Y-64101295D01*
X175668374Y-64183213D01*
X175692233Y-64235339D01*
X175701060Y-64252475D01*
X175736057Y-64268157D01*
X175806712Y-64277145D01*
X175870223Y-64278933D01*
X175951228Y-64276831D01*
X175995518Y-64269825D01*
X176008535Y-64256866D01*
X176007501Y-64252475D01*
X175994809Y-64223816D01*
X175968057Y-64165345D01*
X175931167Y-64085576D01*
X175888069Y-63993048D01*
X175779199Y-63760079D01*
X176042866Y-63151673D01*
X176306533Y-62543266D01*
X176141458Y-62543266D01*
X176041477Y-62546939D01*
X175977305Y-62557629D01*
X175954959Y-62569725D01*
X175940866Y-62596749D01*
X175913979Y-62656797D01*
X175877006Y-62743497D01*
X175832653Y-62850479D01*
X175783629Y-62971373D01*
X175773332Y-62997085D01*
X175724871Y-63115691D01*
X175681240Y-63217434D01*
X175644880Y-63297029D01*
X175618232Y-63349193D01*
X175603738Y-63368641D01*
X175602189Y-63367502D01*
X175565498Y-63267061D01*
X175522942Y-63153451D01*
X175477228Y-63033581D01*
X175431065Y-62914360D01*
X175387163Y-62802696D01*
X175348230Y-62705500D01*
X175316973Y-62629680D01*
X175296103Y-62582145D01*
X175289421Y-62569725D01*
X175261867Y-62558438D01*
X175208041Y-62549694D01*
X175140463Y-62544044D01*
X175071656Y-62542037D01*
X175014138Y-62544223D01*
G36*
X180119866Y-63010324D02*
G01*
X180119344Y-63174354D01*
X180117254Y-63301593D01*
X180112813Y-63397578D01*
X180105239Y-63467843D01*
X180093746Y-63517924D01*
X180077553Y-63553358D01*
X180055876Y-63579679D01*
X180037034Y-63595635D01*
X179976804Y-63618931D01*
X179894754Y-63621147D01*
X179805051Y-63603495D01*
X179724851Y-63568957D01*
X179633033Y-63515148D01*
X179633033Y-62543266D01*
X179294366Y-62543266D01*
X179294366Y-63855600D01*
X179417133Y-63855600D01*
X179508063Y-63849225D01*
X179563399Y-63828382D01*
X179588177Y-63790492D01*
X179590700Y-63766700D01*
X179598850Y-63734713D01*
X179625940Y-63734705D01*
X179675932Y-63766882D01*
X179681858Y-63771496D01*
X179780883Y-63829031D01*
X179897413Y-63865361D01*
X180018110Y-63878613D01*
X180129642Y-63866910D01*
X180193950Y-63843480D01*
X180299648Y-63770261D01*
X180377371Y-63671616D01*
X180402793Y-63622766D01*
X180417171Y-63588615D01*
X180428269Y-63551659D01*
X180436632Y-63505759D01*
X180442803Y-63444771D01*
X180447326Y-63362554D01*
X180450745Y-63252967D01*
X180453604Y-63109867D01*
X180454814Y-63035391D01*
X180462494Y-62543266D01*
X180119866Y-62543266D01*
X180119866Y-63010324D01*
G37*
X180119866Y-63010324D02*
X180119344Y-63174354D01*
X180117254Y-63301593D01*
X180112813Y-63397578D01*
X180105239Y-63467843D01*
X180093746Y-63517924D01*
X180077553Y-63553358D01*
X180055876Y-63579679D01*
X180037034Y-63595635D01*
X179976804Y-63618931D01*
X179894754Y-63621147D01*
X179805051Y-63603495D01*
X179724851Y-63568957D01*
X179633033Y-63515148D01*
X179633033Y-62543266D01*
X179294366Y-62543266D01*
X179294366Y-63855600D01*
X179417133Y-63855600D01*
X179508063Y-63849225D01*
X179563399Y-63828382D01*
X179588177Y-63790492D01*
X179590700Y-63766700D01*
X179598850Y-63734713D01*
X179625940Y-63734705D01*
X179675932Y-63766882D01*
X179681858Y-63771496D01*
X179780883Y-63829031D01*
X179897413Y-63865361D01*
X180018110Y-63878613D01*
X180129642Y-63866910D01*
X180193950Y-63843480D01*
X180299648Y-63770261D01*
X180377371Y-63671616D01*
X180402793Y-63622766D01*
X180417171Y-63588615D01*
X180428269Y-63551659D01*
X180436632Y-63505759D01*
X180442803Y-63444771D01*
X180447326Y-63362554D01*
X180450745Y-63252967D01*
X180453604Y-63109867D01*
X180454814Y-63035391D01*
X180462494Y-62543266D01*
X180119866Y-62543266D01*
X180119866Y-63010324D01*
G36*
X171457496Y-62537077D02*
G01*
X171383492Y-62556187D01*
X171315243Y-62589323D01*
X171299600Y-62598752D01*
X171187341Y-62692094D01*
X171104903Y-62811976D01*
X171055238Y-62952226D01*
X171041294Y-63106673D01*
X171042837Y-63135933D01*
X171049950Y-63231183D01*
X171912468Y-63242659D01*
X171898310Y-63331194D01*
X171861404Y-63447140D01*
X171795479Y-63536252D01*
X171706040Y-63596196D01*
X171598592Y-63624635D01*
X171478641Y-63619234D01*
X171351693Y-63577659D01*
X171335700Y-63569850D01*
X171261016Y-63534528D01*
X171210382Y-63521109D01*
X171171245Y-63530231D01*
X171131050Y-63562535D01*
X171112712Y-63581203D01*
X171075221Y-63629656D01*
X171069350Y-63670709D01*
X171097431Y-63712365D01*
X171161794Y-63762630D01*
X171166482Y-63765837D01*
X171275704Y-63820430D01*
X171409424Y-63857614D01*
X171552782Y-63875486D01*
X171690917Y-63872141D01*
X171803858Y-63847544D01*
X171950750Y-63776227D01*
X172065703Y-63678259D01*
X172149209Y-63552846D01*
X172201763Y-63399193D01*
X172223858Y-63216504D01*
X172224683Y-63169133D01*
X172221989Y-63070971D01*
X172219197Y-63051266D01*
X171910053Y-63051266D01*
X171335700Y-63051266D01*
X171335700Y-62996324D01*
X171355024Y-62908796D01*
X171407308Y-62836166D01*
X171484018Y-62784940D01*
X171576621Y-62761625D01*
X171640024Y-62764312D01*
X171740384Y-62792867D01*
X171814008Y-62845797D01*
X171867779Y-62929553D01*
X171895361Y-63003641D01*
X171910053Y-63051266D01*
X172219197Y-63051266D01*
X172211431Y-62996473D01*
X172189260Y-62927170D01*
X172164004Y-62870122D01*
X172078235Y-62731837D01*
X171968622Y-62628437D01*
X171835877Y-62560324D01*
X171680713Y-62527899D01*
X171555458Y-62526880D01*
X171457496Y-62537077D01*
G37*
X171457496Y-62537077D02*
X171383492Y-62556187D01*
X171315243Y-62589323D01*
X171299600Y-62598752D01*
X171187341Y-62692094D01*
X171104903Y-62811976D01*
X171055238Y-62952226D01*
X171041294Y-63106673D01*
X171042837Y-63135933D01*
X171049950Y-63231183D01*
X171912468Y-63242659D01*
X171898310Y-63331194D01*
X171861404Y-63447140D01*
X171795479Y-63536252D01*
X171706040Y-63596196D01*
X171598592Y-63624635D01*
X171478641Y-63619234D01*
X171351693Y-63577659D01*
X171335700Y-63569850D01*
X171261016Y-63534528D01*
X171210382Y-63521109D01*
X171171245Y-63530231D01*
X171131050Y-63562535D01*
X171112712Y-63581203D01*
X171075221Y-63629656D01*
X171069350Y-63670709D01*
X171097431Y-63712365D01*
X171161794Y-63762630D01*
X171166482Y-63765837D01*
X171275704Y-63820430D01*
X171409424Y-63857614D01*
X171552782Y-63875486D01*
X171690917Y-63872141D01*
X171803858Y-63847544D01*
X171950750Y-63776227D01*
X172065703Y-63678259D01*
X172149209Y-63552846D01*
X172201763Y-63399193D01*
X172223858Y-63216504D01*
X172224683Y-63169133D01*
X172221989Y-63070971D01*
X172219197Y-63051266D01*
X171910053Y-63051266D01*
X171335700Y-63051266D01*
X171335700Y-62996324D01*
X171355024Y-62908796D01*
X171407308Y-62836166D01*
X171484018Y-62784940D01*
X171576621Y-62761625D01*
X171640024Y-62764312D01*
X171740384Y-62792867D01*
X171814008Y-62845797D01*
X171867779Y-62929553D01*
X171895361Y-63003641D01*
X171910053Y-63051266D01*
X172219197Y-63051266D01*
X172211431Y-62996473D01*
X172189260Y-62927170D01*
X172164004Y-62870122D01*
X172078235Y-62731837D01*
X171968622Y-62628437D01*
X171835877Y-62560324D01*
X171680713Y-62527899D01*
X171555458Y-62526880D01*
X171457496Y-62537077D01*
G36*
X170086202Y-62538500D02*
G01*
X169946942Y-62586306D01*
X169852921Y-62647040D01*
X169781184Y-62706929D01*
X169839852Y-62783848D01*
X169884987Y-62835344D01*
X169926232Y-62856333D01*
X169976786Y-62849046D01*
X170044533Y-62818433D01*
X170127549Y-62789179D01*
X170217625Y-62776193D01*
X170224658Y-62776100D01*
X170337653Y-62790971D01*
X170424708Y-62836496D01*
X170486845Y-62914044D01*
X170525084Y-63024982D01*
X170540449Y-63170678D01*
X170540861Y-63199433D01*
X170539100Y-63296589D01*
X170531438Y-63365298D01*
X170515357Y-63419309D01*
X170492057Y-63465923D01*
X170425413Y-63553245D01*
X170342506Y-63604003D01*
X170235830Y-63622505D01*
X170218846Y-63622766D01*
X170124842Y-63612223D01*
X170045431Y-63576096D01*
X170035964Y-63569850D01*
X169963935Y-63529183D01*
X169908985Y-63521802D01*
X169860866Y-63548660D01*
X169824905Y-63589460D01*
X169769585Y-63661988D01*
X169858510Y-63738104D01*
X169932499Y-63789733D01*
X170017268Y-63832687D01*
X170052742Y-63845493D01*
X170156876Y-63865948D01*
X170276319Y-63873568D01*
X170392422Y-63868152D01*
X170484481Y-63850165D01*
X170565007Y-63809054D01*
X170651465Y-63740184D01*
X170732352Y-63654371D01*
X170796169Y-63562432D01*
X170802243Y-63551294D01*
X170827327Y-63500334D01*
X170843801Y-63453812D01*
X170853449Y-63400750D01*
X170858057Y-63330168D01*
X170859411Y-63231087D01*
X170859450Y-63199433D01*
X170858651Y-63091208D01*
X170855063Y-63014319D01*
X170846895Y-62957779D01*
X170832358Y-62910600D01*
X170809663Y-62861798D01*
X170802088Y-62847265D01*
X170710303Y-62715168D01*
X170592911Y-62616199D01*
X170452379Y-62551797D01*
X170291172Y-62523405D01*
X170245616Y-62522100D01*
X170086202Y-62538500D01*
G37*
X170086202Y-62538500D02*
X169946942Y-62586306D01*
X169852921Y-62647040D01*
X169781184Y-62706929D01*
X169839852Y-62783848D01*
X169884987Y-62835344D01*
X169926232Y-62856333D01*
X169976786Y-62849046D01*
X170044533Y-62818433D01*
X170127549Y-62789179D01*
X170217625Y-62776193D01*
X170224658Y-62776100D01*
X170337653Y-62790971D01*
X170424708Y-62836496D01*
X170486845Y-62914044D01*
X170525084Y-63024982D01*
X170540449Y-63170678D01*
X170540861Y-63199433D01*
X170539100Y-63296589D01*
X170531438Y-63365298D01*
X170515357Y-63419309D01*
X170492057Y-63465923D01*
X170425413Y-63553245D01*
X170342506Y-63604003D01*
X170235830Y-63622505D01*
X170218846Y-63622766D01*
X170124842Y-63612223D01*
X170045431Y-63576096D01*
X170035964Y-63569850D01*
X169963935Y-63529183D01*
X169908985Y-63521802D01*
X169860866Y-63548660D01*
X169824905Y-63589460D01*
X169769585Y-63661988D01*
X169858510Y-63738104D01*
X169932499Y-63789733D01*
X170017268Y-63832687D01*
X170052742Y-63845493D01*
X170156876Y-63865948D01*
X170276319Y-63873568D01*
X170392422Y-63868152D01*
X170484481Y-63850165D01*
X170565007Y-63809054D01*
X170651465Y-63740184D01*
X170732352Y-63654371D01*
X170796169Y-63562432D01*
X170802243Y-63551294D01*
X170827327Y-63500334D01*
X170843801Y-63453812D01*
X170853449Y-63400750D01*
X170858057Y-63330168D01*
X170859411Y-63231087D01*
X170859450Y-63199433D01*
X170858651Y-63091208D01*
X170855063Y-63014319D01*
X170846895Y-62957779D01*
X170832358Y-62910600D01*
X170809663Y-62861798D01*
X170802088Y-62847265D01*
X170710303Y-62715168D01*
X170592911Y-62616199D01*
X170452379Y-62551797D01*
X170291172Y-62523405D01*
X170245616Y-62522100D01*
X170086202Y-62538500D01*
G36*
X169176700Y-62543266D02*
G01*
X168838033Y-62543266D01*
X168838033Y-62776100D01*
X169176700Y-62776100D01*
X169176700Y-63175674D01*
X169176159Y-63320108D01*
X169174262Y-63427768D01*
X169170598Y-63504203D01*
X169164755Y-63554962D01*
X169156322Y-63585594D01*
X169145144Y-63601439D01*
X169097391Y-63617469D01*
X169028274Y-63612956D01*
X168961106Y-63592269D01*
X168931756Y-63592449D01*
X168899000Y-63622551D01*
X168871148Y-63662938D01*
X168839164Y-63717272D01*
X168819662Y-63757476D01*
X168816866Y-63767906D01*
X168834676Y-63786135D01*
X168880456Y-63812720D01*
X168921332Y-63831826D01*
X169028404Y-63864468D01*
X169141712Y-63876855D01*
X169247214Y-63868799D01*
X169330869Y-63840112D01*
X169335450Y-63837384D01*
X169390485Y-63799225D01*
X169433162Y-63757180D01*
X169465007Y-63705519D01*
X169487547Y-63638513D01*
X169502308Y-63550430D01*
X169510815Y-63435541D01*
X169514597Y-63288117D01*
X169515248Y-63162391D01*
X169515366Y-62776100D01*
X169597769Y-62776100D01*
X169656890Y-62769753D01*
X169689958Y-62744916D01*
X169703854Y-62692890D01*
X169705866Y-62639512D01*
X169703349Y-62597841D01*
X169688540Y-62575332D01*
X169650553Y-62563286D01*
X169601421Y-62556031D01*
X169496975Y-62542176D01*
X169472803Y-62421013D01*
X169455301Y-62337388D01*
X169437144Y-62256864D01*
X169428266Y-62220475D01*
X169407901Y-62141100D01*
X169176700Y-62141100D01*
X169176700Y-62543266D01*
G37*
X169176700Y-62543266D02*
X168838033Y-62543266D01*
X168838033Y-62776100D01*
X169176700Y-62776100D01*
X169176700Y-63175674D01*
X169176159Y-63320108D01*
X169174262Y-63427768D01*
X169170598Y-63504203D01*
X169164755Y-63554962D01*
X169156322Y-63585594D01*
X169145144Y-63601439D01*
X169097391Y-63617469D01*
X169028274Y-63612956D01*
X168961106Y-63592269D01*
X168931756Y-63592449D01*
X168899000Y-63622551D01*
X168871148Y-63662938D01*
X168839164Y-63717272D01*
X168819662Y-63757476D01*
X168816866Y-63767906D01*
X168834676Y-63786135D01*
X168880456Y-63812720D01*
X168921332Y-63831826D01*
X169028404Y-63864468D01*
X169141712Y-63876855D01*
X169247214Y-63868799D01*
X169330869Y-63840112D01*
X169335450Y-63837384D01*
X169390485Y-63799225D01*
X169433162Y-63757180D01*
X169465007Y-63705519D01*
X169487547Y-63638513D01*
X169502308Y-63550430D01*
X169510815Y-63435541D01*
X169514597Y-63288117D01*
X169515248Y-63162391D01*
X169515366Y-62776100D01*
X169597769Y-62776100D01*
X169656890Y-62769753D01*
X169689958Y-62744916D01*
X169703854Y-62692890D01*
X169705866Y-62639512D01*
X169703349Y-62597841D01*
X169688540Y-62575332D01*
X169650553Y-62563286D01*
X169601421Y-62556031D01*
X169496975Y-62542176D01*
X169472803Y-62421013D01*
X169455301Y-62337388D01*
X169437144Y-62256864D01*
X169428266Y-62220475D01*
X169407901Y-62141100D01*
X169176700Y-62141100D01*
X169176700Y-62543266D01*
G36*
X166897077Y-62529796D02*
G01*
X166761474Y-62562142D01*
X166642144Y-62626378D01*
X166571250Y-62684721D01*
X166471984Y-62805707D01*
X166404174Y-62950165D01*
X166369732Y-63111246D01*
X166370570Y-63282104D01*
X166382817Y-63359629D01*
X166411606Y-63472373D01*
X166450238Y-63561053D01*
X166508039Y-63643937D01*
X166555804Y-63698488D01*
X166662180Y-63784211D01*
X166793839Y-63843309D01*
X166941746Y-63873944D01*
X167096869Y-63874281D01*
X167250173Y-63842483D01*
X167255494Y-63840732D01*
X167385215Y-63776120D01*
X167493484Y-63679054D01*
X167577378Y-63555148D01*
X167633971Y-63410012D01*
X167660338Y-63249259D01*
X167658360Y-63199433D01*
X167335200Y-63199433D01*
X167327122Y-63291618D01*
X167305877Y-63389042D01*
X167275942Y-63475176D01*
X167246040Y-63528421D01*
X167197415Y-63577505D01*
X167138970Y-63606219D01*
X167058296Y-63619246D01*
X166999708Y-63621424D01*
X166928410Y-63619017D01*
X166880318Y-63604975D01*
X166836553Y-63572239D01*
X166816682Y-63552981D01*
X166751976Y-63464585D01*
X166713904Y-63352768D01*
X166700501Y-63211556D01*
X166700436Y-63199433D01*
X166711785Y-63057050D01*
X166747357Y-62944014D01*
X166809439Y-62853467D01*
X166819127Y-62843439D01*
X166860111Y-62804847D01*
X166894920Y-62784069D01*
X166938203Y-62776735D01*
X167004611Y-62778477D01*
X167031403Y-62780127D01*
X167110697Y-62787355D01*
X167162022Y-62800138D01*
X167199742Y-62823857D01*
X167229944Y-62854512D01*
X167275027Y-62927005D01*
X167310465Y-63025918D01*
X167331489Y-63135618D01*
X167335200Y-63199433D01*
X167658360Y-63199433D01*
X167653556Y-63078499D01*
X167653386Y-63077284D01*
X167611582Y-62910140D01*
X167538385Y-62770903D01*
X167435552Y-62661198D01*
X167304842Y-62582648D01*
X167148011Y-62536877D01*
X167057353Y-62526608D01*
X166897077Y-62529796D01*
G37*
X166897077Y-62529796D02*
X166761474Y-62562142D01*
X166642144Y-62626378D01*
X166571250Y-62684721D01*
X166471984Y-62805707D01*
X166404174Y-62950165D01*
X166369732Y-63111246D01*
X166370570Y-63282104D01*
X166382817Y-63359629D01*
X166411606Y-63472373D01*
X166450238Y-63561053D01*
X166508039Y-63643937D01*
X166555804Y-63698488D01*
X166662180Y-63784211D01*
X166793839Y-63843309D01*
X166941746Y-63873944D01*
X167096869Y-63874281D01*
X167250173Y-63842483D01*
X167255494Y-63840732D01*
X167385215Y-63776120D01*
X167493484Y-63679054D01*
X167577378Y-63555148D01*
X167633971Y-63410012D01*
X167660338Y-63249259D01*
X167658360Y-63199433D01*
X167335200Y-63199433D01*
X167327122Y-63291618D01*
X167305877Y-63389042D01*
X167275942Y-63475176D01*
X167246040Y-63528421D01*
X167197415Y-63577505D01*
X167138970Y-63606219D01*
X167058296Y-63619246D01*
X166999708Y-63621424D01*
X166928410Y-63619017D01*
X166880318Y-63604975D01*
X166836553Y-63572239D01*
X166816682Y-63552981D01*
X166751976Y-63464585D01*
X166713904Y-63352768D01*
X166700501Y-63211556D01*
X166700436Y-63199433D01*
X166711785Y-63057050D01*
X166747357Y-62944014D01*
X166809439Y-62853467D01*
X166819127Y-62843439D01*
X166860111Y-62804847D01*
X166894920Y-62784069D01*
X166938203Y-62776735D01*
X167004611Y-62778477D01*
X167031403Y-62780127D01*
X167110697Y-62787355D01*
X167162022Y-62800138D01*
X167199742Y-62823857D01*
X167229944Y-62854512D01*
X167275027Y-62927005D01*
X167310465Y-63025918D01*
X167331489Y-63135618D01*
X167335200Y-63199433D01*
X167658360Y-63199433D01*
X167653556Y-63078499D01*
X167653386Y-63077284D01*
X167611582Y-62910140D01*
X167538385Y-62770903D01*
X167435552Y-62661198D01*
X167304842Y-62582648D01*
X167148011Y-62536877D01*
X167057353Y-62526608D01*
X166897077Y-62529796D01*
G36*
X163291702Y-62538500D02*
G01*
X163152442Y-62586306D01*
X163058421Y-62647040D01*
X162986684Y-62706929D01*
X163045352Y-62783848D01*
X163090487Y-62835344D01*
X163131732Y-62856333D01*
X163182286Y-62849046D01*
X163250033Y-62818433D01*
X163333049Y-62789179D01*
X163423125Y-62776193D01*
X163430158Y-62776100D01*
X163543153Y-62790971D01*
X163630208Y-62836496D01*
X163692345Y-62914044D01*
X163730584Y-63024982D01*
X163745949Y-63170678D01*
X163746361Y-63199433D01*
X163744600Y-63296589D01*
X163736938Y-63365298D01*
X163720857Y-63419309D01*
X163697557Y-63465923D01*
X163630913Y-63553245D01*
X163548006Y-63604003D01*
X163441330Y-63622505D01*
X163424346Y-63622766D01*
X163330342Y-63612223D01*
X163250931Y-63576096D01*
X163241464Y-63569850D01*
X163169435Y-63529183D01*
X163114485Y-63521802D01*
X163066366Y-63548660D01*
X163030405Y-63589460D01*
X162975085Y-63661988D01*
X163064010Y-63738104D01*
X163137999Y-63789733D01*
X163222768Y-63832687D01*
X163258242Y-63845493D01*
X163362376Y-63865948D01*
X163481819Y-63873568D01*
X163597922Y-63868152D01*
X163689981Y-63850165D01*
X163770507Y-63809054D01*
X163856965Y-63740184D01*
X163937852Y-63654371D01*
X164001669Y-63562432D01*
X164007743Y-63551294D01*
X164032827Y-63500334D01*
X164049301Y-63453812D01*
X164058949Y-63400750D01*
X164063557Y-63330168D01*
X164064911Y-63231087D01*
X164064950Y-63199433D01*
X164064151Y-63091208D01*
X164060563Y-63014319D01*
X164052395Y-62957779D01*
X164037858Y-62910600D01*
X164015163Y-62861798D01*
X164007588Y-62847265D01*
X163915803Y-62715168D01*
X163798411Y-62616199D01*
X163657879Y-62551797D01*
X163496672Y-62523405D01*
X163451116Y-62522100D01*
X163291702Y-62538500D01*
G37*
X163291702Y-62538500D02*
X163152442Y-62586306D01*
X163058421Y-62647040D01*
X162986684Y-62706929D01*
X163045352Y-62783848D01*
X163090487Y-62835344D01*
X163131732Y-62856333D01*
X163182286Y-62849046D01*
X163250033Y-62818433D01*
X163333049Y-62789179D01*
X163423125Y-62776193D01*
X163430158Y-62776100D01*
X163543153Y-62790971D01*
X163630208Y-62836496D01*
X163692345Y-62914044D01*
X163730584Y-63024982D01*
X163745949Y-63170678D01*
X163746361Y-63199433D01*
X163744600Y-63296589D01*
X163736938Y-63365298D01*
X163720857Y-63419309D01*
X163697557Y-63465923D01*
X163630913Y-63553245D01*
X163548006Y-63604003D01*
X163441330Y-63622505D01*
X163424346Y-63622766D01*
X163330342Y-63612223D01*
X163250931Y-63576096D01*
X163241464Y-63569850D01*
X163169435Y-63529183D01*
X163114485Y-63521802D01*
X163066366Y-63548660D01*
X163030405Y-63589460D01*
X162975085Y-63661988D01*
X163064010Y-63738104D01*
X163137999Y-63789733D01*
X163222768Y-63832687D01*
X163258242Y-63845493D01*
X163362376Y-63865948D01*
X163481819Y-63873568D01*
X163597922Y-63868152D01*
X163689981Y-63850165D01*
X163770507Y-63809054D01*
X163856965Y-63740184D01*
X163937852Y-63654371D01*
X164001669Y-63562432D01*
X164007743Y-63551294D01*
X164032827Y-63500334D01*
X164049301Y-63453812D01*
X164058949Y-63400750D01*
X164063557Y-63330168D01*
X164064911Y-63231087D01*
X164064950Y-63199433D01*
X164064151Y-63091208D01*
X164060563Y-63014319D01*
X164052395Y-62957779D01*
X164037858Y-62910600D01*
X164015163Y-62861798D01*
X164007588Y-62847265D01*
X163915803Y-62715168D01*
X163798411Y-62616199D01*
X163657879Y-62551797D01*
X163496672Y-62523405D01*
X163451116Y-62522100D01*
X163291702Y-62538500D01*
G36*
X162255855Y-62519853D02*
G01*
X162168453Y-62542409D01*
X162102030Y-62571359D01*
X162018447Y-62614794D01*
X161969777Y-62649576D01*
X161951661Y-62682859D01*
X161959738Y-62721794D01*
X161984072Y-62764880D01*
X162013775Y-62805923D01*
X162044384Y-62827842D01*
X162085431Y-62831428D01*
X162146449Y-62817472D01*
X162236969Y-62786764D01*
X162239028Y-62786027D01*
X162342226Y-62762147D01*
X162431210Y-62766479D01*
X162499721Y-62796655D01*
X162541502Y-62850312D01*
X162551533Y-62904181D01*
X162543318Y-62943114D01*
X162515132Y-62977809D01*
X162461667Y-63011604D01*
X162377615Y-63047835D01*
X162257668Y-63089839D01*
X162254485Y-63090886D01*
X162118330Y-63148901D01*
X162017165Y-63221121D01*
X161953582Y-63305447D01*
X161937754Y-63347398D01*
X161924638Y-63471407D01*
X161949843Y-63589464D01*
X162009364Y-63695104D01*
X162099191Y-63781865D01*
X162215318Y-63843286D01*
X162252710Y-63855260D01*
X162364301Y-63872933D01*
X162493704Y-63873224D01*
X162620505Y-63856943D01*
X162691824Y-63837869D01*
X162765594Y-63809127D01*
X162831374Y-63778137D01*
X162855866Y-63763989D01*
X162911366Y-63727624D01*
X162861477Y-63648737D01*
X162822770Y-63598488D01*
X162785382Y-63566846D01*
X162774724Y-63562604D01*
X162737178Y-63567151D01*
X162675640Y-63586173D01*
X162610452Y-63612535D01*
X162499465Y-63649560D01*
X162400949Y-63658159D01*
X162320466Y-63639944D01*
X162263576Y-63596523D01*
X162235842Y-63529507D01*
X162234033Y-63503557D01*
X162239671Y-63458520D01*
X162260800Y-63422185D01*
X162303744Y-63389859D01*
X162374826Y-63356849D01*
X162480368Y-63318460D01*
X162485984Y-63316547D01*
X162610990Y-63269448D01*
X162701813Y-63223065D01*
X162766183Y-63172147D01*
X162811828Y-63111446D01*
X162825198Y-63086118D01*
X162862928Y-62969612D01*
X162859674Y-62855637D01*
X162829247Y-62764640D01*
X162758236Y-62655735D01*
X162658097Y-62577545D01*
X162528842Y-62530076D01*
X162370481Y-62513335D01*
X162359134Y-62513310D01*
X162255855Y-62519853D01*
G37*
X162255855Y-62519853D02*
X162168453Y-62542409D01*
X162102030Y-62571359D01*
X162018447Y-62614794D01*
X161969777Y-62649576D01*
X161951661Y-62682859D01*
X161959738Y-62721794D01*
X161984072Y-62764880D01*
X162013775Y-62805923D01*
X162044384Y-62827842D01*
X162085431Y-62831428D01*
X162146449Y-62817472D01*
X162236969Y-62786764D01*
X162239028Y-62786027D01*
X162342226Y-62762147D01*
X162431210Y-62766479D01*
X162499721Y-62796655D01*
X162541502Y-62850312D01*
X162551533Y-62904181D01*
X162543318Y-62943114D01*
X162515132Y-62977809D01*
X162461667Y-63011604D01*
X162377615Y-63047835D01*
X162257668Y-63089839D01*
X162254485Y-63090886D01*
X162118330Y-63148901D01*
X162017165Y-63221121D01*
X161953582Y-63305447D01*
X161937754Y-63347398D01*
X161924638Y-63471407D01*
X161949843Y-63589464D01*
X162009364Y-63695104D01*
X162099191Y-63781865D01*
X162215318Y-63843286D01*
X162252710Y-63855260D01*
X162364301Y-63872933D01*
X162493704Y-63873224D01*
X162620505Y-63856943D01*
X162691824Y-63837869D01*
X162765594Y-63809127D01*
X162831374Y-63778137D01*
X162855866Y-63763989D01*
X162911366Y-63727624D01*
X162861477Y-63648737D01*
X162822770Y-63598488D01*
X162785382Y-63566846D01*
X162774724Y-63562604D01*
X162737178Y-63567151D01*
X162675640Y-63586173D01*
X162610452Y-63612535D01*
X162499465Y-63649560D01*
X162400949Y-63658159D01*
X162320466Y-63639944D01*
X162263576Y-63596523D01*
X162235842Y-63529507D01*
X162234033Y-63503557D01*
X162239671Y-63458520D01*
X162260800Y-63422185D01*
X162303744Y-63389859D01*
X162374826Y-63356849D01*
X162480368Y-63318460D01*
X162485984Y-63316547D01*
X162610990Y-63269448D01*
X162701813Y-63223065D01*
X162766183Y-63172147D01*
X162811828Y-63111446D01*
X162825198Y-63086118D01*
X162862928Y-62969612D01*
X162859674Y-62855637D01*
X162829247Y-62764640D01*
X162758236Y-62655735D01*
X162658097Y-62577545D01*
X162528842Y-62530076D01*
X162370481Y-62513335D01*
X162359134Y-62513310D01*
X162255855Y-62519853D01*
G36*
X181446126Y-61993610D02*
G01*
X181333319Y-61996069D01*
X181246685Y-62000953D01*
X181178151Y-62008905D01*
X181119647Y-62020567D01*
X181069304Y-62034639D01*
X180921785Y-62098651D01*
X180807730Y-62188513D01*
X180727608Y-62303592D01*
X180681892Y-62443252D01*
X180670407Y-62572560D01*
X180677759Y-62708280D01*
X180703133Y-62816672D01*
X180750850Y-62910463D01*
X180811156Y-62987047D01*
X180891221Y-63064724D01*
X180976461Y-63121043D01*
X181075698Y-63159270D01*
X181197750Y-63182669D01*
X181351440Y-63194504D01*
X181373991Y-63195356D01*
X181622700Y-63203892D01*
X181622700Y-63855600D01*
X181982533Y-63855600D01*
X181982533Y-62929316D01*
X181622700Y-62929316D01*
X181425994Y-62920712D01*
X181314017Y-62912942D01*
X181233759Y-62899792D01*
X181174741Y-62879274D01*
X181156406Y-62869544D01*
X181084477Y-62804844D01*
X181036954Y-62716048D01*
X181015323Y-62614570D01*
X181021069Y-62511827D01*
X181055678Y-62419234D01*
X181091722Y-62372487D01*
X181163603Y-62320256D01*
X181259021Y-62286864D01*
X181384352Y-62270550D01*
X181469241Y-62268218D01*
X181622700Y-62268100D01*
X181622700Y-62929316D01*
X181982533Y-62929316D01*
X181982533Y-61992933D01*
X181593179Y-61992933D01*
X181446126Y-61993610D01*
G37*
X181446126Y-61993610D02*
X181333319Y-61996069D01*
X181246685Y-62000953D01*
X181178151Y-62008905D01*
X181119647Y-62020567D01*
X181069304Y-62034639D01*
X180921785Y-62098651D01*
X180807730Y-62188513D01*
X180727608Y-62303592D01*
X180681892Y-62443252D01*
X180670407Y-62572560D01*
X180677759Y-62708280D01*
X180703133Y-62816672D01*
X180750850Y-62910463D01*
X180811156Y-62987047D01*
X180891221Y-63064724D01*
X180976461Y-63121043D01*
X181075698Y-63159270D01*
X181197750Y-63182669D01*
X181351440Y-63194504D01*
X181373991Y-63195356D01*
X181622700Y-63203892D01*
X181622700Y-63855600D01*
X181982533Y-63855600D01*
X181982533Y-62929316D01*
X181622700Y-62929316D01*
X181425994Y-62920712D01*
X181314017Y-62912942D01*
X181233759Y-62899792D01*
X181174741Y-62879274D01*
X181156406Y-62869544D01*
X181084477Y-62804844D01*
X181036954Y-62716048D01*
X181015323Y-62614570D01*
X181021069Y-62511827D01*
X181055678Y-62419234D01*
X181091722Y-62372487D01*
X181163603Y-62320256D01*
X181259021Y-62286864D01*
X181384352Y-62270550D01*
X181469241Y-62268218D01*
X181622700Y-62268100D01*
X181622700Y-62929316D01*
X181982533Y-62929316D01*
X181982533Y-61992933D01*
X181593179Y-61992933D01*
X181446126Y-61993610D01*
G36*
X173113700Y-62289266D02*
G01*
X173939200Y-62289266D01*
X173939200Y-62797266D01*
X173283033Y-62797266D01*
X173283033Y-63072433D01*
X173939200Y-63072433D01*
X173939200Y-63580433D01*
X173113700Y-63580433D01*
X173113700Y-63855600D01*
X174277866Y-63855600D01*
X174277866Y-62014100D01*
X173113700Y-62014100D01*
X173113700Y-62289266D01*
G37*
X173113700Y-62289266D02*
X173939200Y-62289266D01*
X173939200Y-62797266D01*
X173283033Y-62797266D01*
X173283033Y-63072433D01*
X173939200Y-63072433D01*
X173939200Y-63580433D01*
X173113700Y-63580433D01*
X173113700Y-63855600D01*
X174277866Y-63855600D01*
X174277866Y-62014100D01*
X173113700Y-62014100D01*
X173113700Y-62289266D01*
G36*
X172499866Y-63855600D02*
G01*
X172817366Y-63855600D01*
X172817366Y-61950600D01*
X172499866Y-61950600D01*
X172499866Y-63855600D01*
G37*
X172499866Y-63855600D02*
X172817366Y-63855600D01*
X172817366Y-61950600D01*
X172499866Y-61950600D01*
X172499866Y-63855600D01*
G36*
X167825262Y-62535980D02*
G01*
X167797250Y-62546608D01*
X167784416Y-62566514D01*
X167783668Y-62607151D01*
X167790158Y-62666009D01*
X167802032Y-62752677D01*
X167815077Y-62804825D01*
X167835320Y-62829987D01*
X167868789Y-62835697D01*
X167921014Y-62829563D01*
X168040693Y-62829822D01*
X168144257Y-62869172D01*
X168223142Y-62936878D01*
X168287700Y-63010406D01*
X168287700Y-63855600D01*
X168605200Y-63855600D01*
X168605200Y-62541246D01*
X168340870Y-62553850D01*
X168322954Y-62652334D01*
X168305039Y-62750818D01*
X168227578Y-62664973D01*
X168124419Y-62576810D01*
X168011328Y-62529658D01*
X167888880Y-62523702D01*
X167825262Y-62535980D01*
G37*
X167825262Y-62535980D02*
X167797250Y-62546608D01*
X167784416Y-62566514D01*
X167783668Y-62607151D01*
X167790158Y-62666009D01*
X167802032Y-62752677D01*
X167815077Y-62804825D01*
X167835320Y-62829987D01*
X167868789Y-62835697D01*
X167921014Y-62829563D01*
X168040693Y-62829822D01*
X168144257Y-62869172D01*
X168223142Y-62936878D01*
X168287700Y-63010406D01*
X168287700Y-63855600D01*
X168605200Y-63855600D01*
X168605200Y-62541246D01*
X168340870Y-62553850D01*
X168322954Y-62652334D01*
X168305039Y-62750818D01*
X168227578Y-62664973D01*
X168124419Y-62576810D01*
X168011328Y-62529658D01*
X167888880Y-62523702D01*
X167825262Y-62535980D01*
G36*
X165256396Y-62553416D02*
G01*
X165156402Y-62614099D01*
X165074561Y-62711421D01*
X165055009Y-62744350D01*
X164996283Y-62850183D01*
X164989313Y-63352891D01*
X164982342Y-63855600D01*
X165324366Y-63855600D01*
X165324366Y-62880009D01*
X165376321Y-62828054D01*
X165447697Y-62784648D01*
X165536452Y-62772272D01*
X165632326Y-62789890D01*
X165725057Y-62836469D01*
X165763575Y-62867101D01*
X165779003Y-62882460D01*
X165790679Y-62900470D01*
X165799125Y-62926791D01*
X165804865Y-62967085D01*
X165808419Y-63027010D01*
X165810312Y-63112227D01*
X165811064Y-63228396D01*
X165811200Y-63381178D01*
X165811200Y-63855600D01*
X166128700Y-63855600D01*
X166128700Y-62541154D01*
X166007091Y-62547502D01*
X165936971Y-62553044D01*
X165896016Y-62564550D01*
X165871063Y-62588292D01*
X165853633Y-62620603D01*
X165821783Y-62687356D01*
X165751190Y-62628141D01*
X165642595Y-62563520D01*
X165511001Y-62529220D01*
X165379005Y-62526369D01*
X165256396Y-62553416D01*
G37*
X165256396Y-62553416D02*
X165156402Y-62614099D01*
X165074561Y-62711421D01*
X165055009Y-62744350D01*
X164996283Y-62850183D01*
X164989313Y-63352891D01*
X164982342Y-63855600D01*
X165324366Y-63855600D01*
X165324366Y-62880009D01*
X165376321Y-62828054D01*
X165447697Y-62784648D01*
X165536452Y-62772272D01*
X165632326Y-62789890D01*
X165725057Y-62836469D01*
X165763575Y-62867101D01*
X165779003Y-62882460D01*
X165790679Y-62900470D01*
X165799125Y-62926791D01*
X165804865Y-62967085D01*
X165808419Y-63027010D01*
X165810312Y-63112227D01*
X165811064Y-63228396D01*
X165811200Y-63381178D01*
X165811200Y-63855600D01*
X166128700Y-63855600D01*
X166128700Y-62541154D01*
X166007091Y-62547502D01*
X165936971Y-62553044D01*
X165896016Y-62564550D01*
X165871063Y-62588292D01*
X165853633Y-62620603D01*
X165821783Y-62687356D01*
X165751190Y-62628141D01*
X165642595Y-62563520D01*
X165511001Y-62529220D01*
X165379005Y-62526369D01*
X165256396Y-62553416D01*
G36*
X164350700Y-63855600D02*
G01*
X164668200Y-63855600D01*
X164668200Y-62543266D01*
X164350700Y-62543266D01*
X164350700Y-63855600D01*
G37*
X164350700Y-63855600D02*
X164668200Y-63855600D01*
X164668200Y-62543266D01*
X164350700Y-62543266D01*
X164350700Y-63855600D01*
G36*
X164426086Y-61969912D02*
G01*
X164358713Y-62021369D01*
X164317053Y-62095246D01*
X164308366Y-62151683D01*
X164327679Y-62235046D01*
X164379136Y-62302420D01*
X164453013Y-62344079D01*
X164509450Y-62352766D01*
X164580050Y-62340427D01*
X164641858Y-62297545D01*
X164648661Y-62290894D01*
X164695270Y-62228861D01*
X164710411Y-62160118D01*
X164710533Y-62151683D01*
X164691220Y-62068319D01*
X164639764Y-62000946D01*
X164565886Y-61959286D01*
X164509450Y-61950600D01*
X164426086Y-61969912D01*
G37*
X164426086Y-61969912D02*
X164358713Y-62021369D01*
X164317053Y-62095246D01*
X164308366Y-62151683D01*
X164327679Y-62235046D01*
X164379136Y-62302420D01*
X164453013Y-62344079D01*
X164509450Y-62352766D01*
X164580050Y-62340427D01*
X164641858Y-62297545D01*
X164648661Y-62290894D01*
X164695270Y-62228861D01*
X164710411Y-62160118D01*
X164710533Y-62151683D01*
X164691220Y-62068319D01*
X164639764Y-62000946D01*
X164565886Y-61959286D01*
X164509450Y-61950600D01*
X164426086Y-61969912D01*
G36*
X187824119Y-62738655D02*
G01*
X187792602Y-62752075D01*
X187680845Y-62825028D01*
X187590343Y-62928672D01*
X187522122Y-63056507D01*
X187477210Y-63202035D01*
X187456634Y-63358758D01*
X187461421Y-63520178D01*
X187492598Y-63679796D01*
X187551193Y-63831114D01*
X187607069Y-63925729D01*
X187688229Y-64013723D01*
X187786636Y-64074645D01*
X187893151Y-64105770D01*
X187998639Y-64104371D01*
X188090413Y-64069928D01*
X188176873Y-63999959D01*
X188258383Y-63903836D01*
X188322564Y-63797080D01*
X188339689Y-63757338D01*
X188360463Y-63684009D01*
X188378324Y-63588363D01*
X188389576Y-63490408D01*
X188389941Y-63485183D01*
X188392084Y-63391794D01*
X188387463Y-63295909D01*
X188377403Y-63206810D01*
X188363229Y-63133780D01*
X188346265Y-63086102D01*
X188331032Y-63072433D01*
X188312069Y-63088710D01*
X188311366Y-63094562D01*
X188292707Y-63138446D01*
X188245627Y-63180117D01*
X188183474Y-63210473D01*
X188126538Y-63220600D01*
X188033964Y-63204573D01*
X187968076Y-63155890D01*
X187931351Y-63085999D01*
X187921947Y-62998135D01*
X187950214Y-62919700D01*
X188011552Y-62857806D01*
X188101363Y-62819560D01*
X188104125Y-62818925D01*
X188173783Y-62803243D01*
X188078533Y-62758386D01*
X187986101Y-62723367D01*
X187907110Y-62716918D01*
X187824119Y-62738655D01*
G37*
X187824119Y-62738655D02*
X187792602Y-62752075D01*
X187680845Y-62825028D01*
X187590343Y-62928672D01*
X187522122Y-63056507D01*
X187477210Y-63202035D01*
X187456634Y-63358758D01*
X187461421Y-63520178D01*
X187492598Y-63679796D01*
X187551193Y-63831114D01*
X187607069Y-63925729D01*
X187688229Y-64013723D01*
X187786636Y-64074645D01*
X187893151Y-64105770D01*
X187998639Y-64104371D01*
X188090413Y-64069928D01*
X188176873Y-63999959D01*
X188258383Y-63903836D01*
X188322564Y-63797080D01*
X188339689Y-63757338D01*
X188360463Y-63684009D01*
X188378324Y-63588363D01*
X188389576Y-63490408D01*
X188389941Y-63485183D01*
X188392084Y-63391794D01*
X188387463Y-63295909D01*
X188377403Y-63206810D01*
X188363229Y-63133780D01*
X188346265Y-63086102D01*
X188331032Y-63072433D01*
X188312069Y-63088710D01*
X188311366Y-63094562D01*
X188292707Y-63138446D01*
X188245627Y-63180117D01*
X188183474Y-63210473D01*
X188126538Y-63220600D01*
X188033964Y-63204573D01*
X187968076Y-63155890D01*
X187931351Y-63085999D01*
X187921947Y-62998135D01*
X187950214Y-62919700D01*
X188011552Y-62857806D01*
X188101363Y-62819560D01*
X188104125Y-62818925D01*
X188173783Y-62803243D01*
X188078533Y-62758386D01*
X187986101Y-62723367D01*
X187907110Y-62716918D01*
X187824119Y-62738655D01*
G36*
X185411286Y-62738589D02*
G01*
X185379602Y-62752075D01*
X185268200Y-62824850D01*
X185178019Y-62928243D01*
X185109965Y-63055732D01*
X185064945Y-63200793D01*
X185043866Y-63356904D01*
X185047635Y-63517541D01*
X185077160Y-63676182D01*
X185133346Y-63826303D01*
X185212311Y-63955171D01*
X185297396Y-64035761D01*
X185402181Y-64087754D01*
X185515509Y-64107773D01*
X185626226Y-64092442D01*
X185644366Y-64085926D01*
X185734643Y-64029708D01*
X185818501Y-63939019D01*
X185890525Y-63821712D01*
X185945301Y-63685636D01*
X185961570Y-63626015D01*
X185974813Y-63534908D01*
X185978967Y-63424357D01*
X185974627Y-63309524D01*
X185962387Y-63205572D01*
X185942842Y-63127664D01*
X185941935Y-63125350D01*
X185923483Y-63084162D01*
X185910388Y-63078771D01*
X185894121Y-63104183D01*
X185838301Y-63171907D01*
X185764247Y-63211539D01*
X185683263Y-63220800D01*
X185606654Y-63197411D01*
X185570182Y-63169506D01*
X185517070Y-63092760D01*
X185502579Y-63013595D01*
X185523971Y-62938609D01*
X185578506Y-62874403D01*
X185663443Y-62827576D01*
X185718450Y-62812339D01*
X185735884Y-62803640D01*
X185721374Y-62787915D01*
X185671216Y-62761408D01*
X185665533Y-62758700D01*
X185573231Y-62723470D01*
X185494288Y-62716901D01*
X185411286Y-62738589D01*
G37*
X185411286Y-62738589D02*
X185379602Y-62752075D01*
X185268200Y-62824850D01*
X185178019Y-62928243D01*
X185109965Y-63055732D01*
X185064945Y-63200793D01*
X185043866Y-63356904D01*
X185047635Y-63517541D01*
X185077160Y-63676182D01*
X185133346Y-63826303D01*
X185212311Y-63955171D01*
X185297396Y-64035761D01*
X185402181Y-64087754D01*
X185515509Y-64107773D01*
X185626226Y-64092442D01*
X185644366Y-64085926D01*
X185734643Y-64029708D01*
X185818501Y-63939019D01*
X185890525Y-63821712D01*
X185945301Y-63685636D01*
X185961570Y-63626015D01*
X185974813Y-63534908D01*
X185978967Y-63424357D01*
X185974627Y-63309524D01*
X185962387Y-63205572D01*
X185942842Y-63127664D01*
X185941935Y-63125350D01*
X185923483Y-63084162D01*
X185910388Y-63078771D01*
X185894121Y-63104183D01*
X185838301Y-63171907D01*
X185764247Y-63211539D01*
X185683263Y-63220800D01*
X185606654Y-63197411D01*
X185570182Y-63169506D01*
X185517070Y-63092760D01*
X185502579Y-63013595D01*
X185523971Y-62938609D01*
X185578506Y-62874403D01*
X185663443Y-62827576D01*
X185718450Y-62812339D01*
X185735884Y-62803640D01*
X185721374Y-62787915D01*
X185671216Y-62761408D01*
X185665533Y-62758700D01*
X185573231Y-62723470D01*
X185494288Y-62716901D01*
X185411286Y-62738589D01*
D13*
%TO.C,C1*%
X196800800Y-82999948D02*
X196800800Y-83522452D01*
X198270800Y-82999948D02*
X198270800Y-83522452D01*
%TO.C,SW4*%
X202827500Y-65396500D02*
X202827500Y-58936500D01*
X207357500Y-65396500D02*
X204757500Y-65396500D01*
X209287500Y-65396500D02*
X209287500Y-58936500D01*
X207357500Y-58936500D02*
X204757500Y-58936500D01*
X209257500Y-65396500D02*
X209287500Y-65396500D01*
X202827500Y-65396500D02*
X202857500Y-65396500D01*
X202827500Y-58936500D02*
X202857500Y-58936500D01*
X209287500Y-58936500D02*
X209257500Y-58936500D01*
%TO.C,SW3*%
X201477000Y-58936500D02*
X201477000Y-65396500D01*
X196947000Y-58936500D02*
X199547000Y-58936500D01*
X195017000Y-58936500D02*
X195017000Y-65396500D01*
X196947000Y-65396500D02*
X199547000Y-65396500D01*
X195047000Y-58936500D02*
X195017000Y-58936500D01*
X201477000Y-58936500D02*
X201447000Y-58936500D01*
X201477000Y-65396500D02*
X201447000Y-65396500D01*
X195017000Y-65396500D02*
X195047000Y-65396500D01*
%TO.C,R22*%
X162711159Y-77471000D02*
X163018441Y-77471000D01*
X162711159Y-78231000D02*
X163018441Y-78231000D01*
%TO.C,R21*%
X162685759Y-81281000D02*
X162993041Y-81281000D01*
X162685759Y-82041000D02*
X162993041Y-82041000D01*
%TO.C,J8*%
X151507500Y-81156500D02*
X150177500Y-81156500D01*
X151507500Y-82486500D02*
X151507500Y-81156500D01*
X151507500Y-83756500D02*
X148847500Y-83756500D01*
X148847500Y-83756500D02*
X148847500Y-93976500D01*
X151507500Y-83756500D02*
X151507500Y-93976500D01*
X151507500Y-93976500D02*
X148847500Y-93976500D01*
%TO.C,R20*%
X174372000Y-101192359D02*
X174372000Y-101499641D01*
X175132000Y-101192359D02*
X175132000Y-101499641D01*
%TO.C,TP9*%
X155382000Y-72136000D02*
G75*
G03*
X155382000Y-72136000I-950000J0D01*
G01*
%TO.C,TP7*%
X140396000Y-72136000D02*
G75*
G03*
X140396000Y-72136000I-950000J0D01*
G01*
%TO.C,R19*%
X156310359Y-70230000D02*
X156617641Y-70230000D01*
X156310359Y-69470000D02*
X156617641Y-69470000D01*
%TO.C,R18*%
X137567641Y-69216000D02*
X137260359Y-69216000D01*
X137567641Y-69976000D02*
X137260359Y-69976000D01*
%TO.C,R17*%
X162967641Y-83694000D02*
X162660359Y-83694000D01*
X162967641Y-84454000D02*
X162660359Y-84454000D01*
%TO.C,R16*%
X162967641Y-84964000D02*
X162660359Y-84964000D01*
X162967641Y-85724000D02*
X162660359Y-85724000D01*
%TO.C,R15*%
X156617641Y-67946000D02*
X156310359Y-67946000D01*
X156617641Y-68706000D02*
X156310359Y-68706000D01*
%TO.C,R8*%
X137258359Y-68706000D02*
X137565641Y-68706000D01*
X137258359Y-67946000D02*
X137565641Y-67946000D01*
%TO.C,D5*%
X138974000Y-70088000D02*
X138974000Y-68088000D01*
X138974000Y-68088000D02*
X142874000Y-68088000D01*
X138974000Y-70088000D02*
X142874000Y-70088000D01*
%TO.C,U2*%
X183364000Y-74121000D02*
X183744000Y-74121000D01*
X183364000Y-67701000D02*
X183364000Y-74121000D01*
X165124000Y-67701000D02*
X165124000Y-74121000D01*
X183364000Y-67701000D02*
X165124000Y-67701000D01*
X165124000Y-93446000D02*
X166124000Y-93446000D01*
X165124000Y-92666000D02*
X165124000Y-93446000D01*
X183364000Y-93446000D02*
X182364000Y-93446000D01*
X183364000Y-92666000D02*
X183364000Y-93446000D01*
%TO.C,R14*%
X207679859Y-68642500D02*
X207987141Y-68642500D01*
X207679859Y-67882500D02*
X207987141Y-67882500D01*
%TO.C,R13*%
X199871359Y-68452000D02*
X200178641Y-68452000D01*
X199871359Y-67692000D02*
X200178641Y-67692000D01*
%TO.C,J6*%
X137206000Y-64838000D02*
X136906000Y-64238000D01*
X136606000Y-64838000D02*
X137206000Y-64838000D01*
X136906000Y-64238000D02*
X136606000Y-64838000D01*
X144656000Y-61138000D02*
X144156000Y-61138000D01*
X144656000Y-55638000D02*
X144656000Y-61138000D01*
X144156000Y-55638000D02*
X144656000Y-55638000D01*
X144156000Y-61138000D02*
X144156000Y-55638000D01*
X142156000Y-61138000D02*
X141656000Y-61138000D01*
X142156000Y-55638000D02*
X142156000Y-61138000D01*
X141656000Y-55638000D02*
X142156000Y-55638000D01*
X141656000Y-61138000D02*
X141656000Y-55638000D01*
X139656000Y-61138000D02*
X139156000Y-61138000D01*
X139656000Y-55638000D02*
X139656000Y-61138000D01*
X139156000Y-55638000D02*
X139656000Y-55638000D01*
X139156000Y-61138000D02*
X139156000Y-55638000D01*
X137156000Y-61138000D02*
X136656000Y-61138000D01*
X137156000Y-55638000D02*
X137156000Y-61138000D01*
X136656000Y-55638000D02*
X137156000Y-55638000D01*
X136656000Y-61138000D02*
X136656000Y-55638000D01*
X145546000Y-66748000D02*
X145546000Y-62248000D01*
X146966000Y-66748000D02*
X145546000Y-66748000D01*
X146966000Y-55028000D02*
X146966000Y-66748000D01*
X140656000Y-55028000D02*
X146966000Y-55028000D01*
X135766000Y-66748000D02*
X135766000Y-62248000D01*
X134346000Y-66748000D02*
X135766000Y-66748000D01*
X134346000Y-55028000D02*
X134346000Y-66748000D01*
X140656000Y-55028000D02*
X134346000Y-55028000D01*
%TO.C,J5*%
X152300000Y-64838000D02*
X152000000Y-64238000D01*
X151700000Y-64838000D02*
X152300000Y-64838000D01*
X152000000Y-64238000D02*
X151700000Y-64838000D01*
X157250000Y-61138000D02*
X156750000Y-61138000D01*
X157250000Y-55638000D02*
X157250000Y-61138000D01*
X156750000Y-55638000D02*
X157250000Y-55638000D01*
X156750000Y-61138000D02*
X156750000Y-55638000D01*
X154750000Y-61138000D02*
X154250000Y-61138000D01*
X154750000Y-55638000D02*
X154750000Y-61138000D01*
X154250000Y-55638000D02*
X154750000Y-55638000D01*
X154250000Y-61138000D02*
X154250000Y-55638000D01*
X152250000Y-61138000D02*
X151750000Y-61138000D01*
X152250000Y-55638000D02*
X152250000Y-61138000D01*
X151750000Y-55638000D02*
X152250000Y-55638000D01*
X151750000Y-61138000D02*
X151750000Y-55638000D01*
X158140000Y-66748000D02*
X158140000Y-62248000D01*
X159560000Y-66748000D02*
X158140000Y-66748000D01*
X159560000Y-55028000D02*
X159560000Y-66748000D01*
X154500000Y-55028000D02*
X159560000Y-55028000D01*
X150860000Y-66748000D02*
X150860000Y-62248000D01*
X149440000Y-66748000D02*
X150860000Y-66748000D01*
X149440000Y-55028000D02*
X149440000Y-66748000D01*
X154500000Y-55028000D02*
X149440000Y-55028000D01*
%TO.C,C19*%
X186328164Y-76348000D02*
X186543836Y-76348000D01*
X186328164Y-77068000D02*
X186543836Y-77068000D01*
%TO.C,TP12*%
X195260000Y-94742000D02*
G75*
G03*
X195260000Y-94742000I-950000J0D01*
G01*
%TO.C,R12*%
X199541642Y-92838000D02*
X199234360Y-92838000D01*
X199541642Y-93598000D02*
X199234360Y-93598000D01*
%TO.C,Q4*%
X197302000Y-89918000D02*
X198232000Y-89918000D01*
X200462000Y-89918000D02*
X199532000Y-89918000D01*
X200462000Y-89918000D02*
X200462000Y-92078000D01*
X197302000Y-89918000D02*
X197302000Y-91378000D01*
%TO.C,TP5*%
X195133000Y-88138000D02*
G75*
G03*
X195133000Y-88138000I-950000J0D01*
G01*
%TO.C,TP3*%
X195133000Y-84010500D02*
G75*
G03*
X195133000Y-84010500I-950000J0D01*
G01*
%TO.C,TP2*%
X195069500Y-79565500D02*
G75*
G03*
X195069500Y-79565500I-950000J0D01*
G01*
%TO.C,R11*%
X205901859Y-76582000D02*
X206209141Y-76582000D01*
X205901859Y-77342000D02*
X206209141Y-77342000D01*
%TO.C,R10*%
X209993500Y-87541858D02*
X209993500Y-87849140D01*
X209233500Y-87541858D02*
X209233500Y-87849140D01*
%TO.C,R9*%
X209233500Y-79147641D02*
X209233500Y-78840359D01*
X209993500Y-79147641D02*
X209993500Y-78840359D01*
%TO.C,D4*%
X155007274Y-67937274D02*
X151107274Y-67937274D01*
X155007274Y-69937274D02*
X151107274Y-69937274D01*
X155007274Y-67937274D02*
X155007274Y-69937274D01*
%TO.C,C18*%
X207983500Y-87829336D02*
X207983500Y-87613664D01*
X208703500Y-87829336D02*
X208703500Y-87613664D01*
%TO.C,C17*%
X207983499Y-78886164D02*
X207983499Y-79101836D01*
X208703499Y-78886164D02*
X208703499Y-79101836D01*
%TO.C,C16*%
X205921664Y-75078000D02*
X206137336Y-75078000D01*
X205921664Y-75798000D02*
X206137336Y-75798000D01*
%TO.C,J3*%
X147750000Y-94900000D02*
X148800000Y-94900000D01*
X148800000Y-95950000D02*
X148800000Y-94900000D01*
X139400000Y-101000000D02*
X139400000Y-109800000D01*
X139400000Y-109800000D02*
X148600000Y-109800000D01*
X142100000Y-95100000D02*
X139400000Y-95100000D01*
X139400000Y-95100000D02*
X139400000Y-97000000D01*
X148600000Y-109800000D02*
X148600000Y-95100000D01*
X148600000Y-95100000D02*
X146000000Y-95100000D01*
%TO.C,R7*%
X177674000Y-97435641D02*
X177674000Y-97128359D01*
X178434000Y-97435641D02*
X178434000Y-97128359D01*
%TO.C,Q3*%
X177798000Y-99258000D02*
X176338000Y-99258000D01*
X177798000Y-102418000D02*
X175638000Y-102418000D01*
X177798000Y-102418000D02*
X177798000Y-101488000D01*
X177798000Y-99258000D02*
X177798000Y-100188000D01*
%TO.C,K1*%
X196472000Y-102108000D02*
G75*
G03*
X196472000Y-102108000I-130000J0D01*
G01*
X179422000Y-107608000D02*
X200562000Y-107608000D01*
X179422000Y-96608000D02*
X179422000Y-107608000D01*
X200562000Y-96608000D02*
X200562000Y-107608000D01*
X179422000Y-96608000D02*
X200562000Y-96608000D01*
X184152000Y-100588000D02*
X183642000Y-100588000D01*
X184152000Y-103128000D02*
X184152000Y-100588000D01*
X183642000Y-103128000D02*
X184152000Y-103128000D01*
X183132000Y-103128000D02*
X183642000Y-103128000D01*
X183132000Y-100588000D02*
X183132000Y-103128000D01*
X183642000Y-100588000D02*
X183132000Y-100588000D01*
X182372000Y-98298000D02*
X183642000Y-98298000D01*
X183642000Y-98298000D02*
X183642000Y-100588000D01*
X183642000Y-103128000D02*
X183642000Y-105918000D01*
X183642000Y-105918000D02*
X182372000Y-105918000D01*
X183132000Y-101348000D02*
X184152000Y-102358000D01*
X191262000Y-102108000D02*
X196342000Y-102108000D01*
X191262000Y-99568000D02*
X191262000Y-102108000D01*
X198882000Y-99568000D02*
X198882000Y-100838000D01*
X196342000Y-102108000D02*
X199132000Y-103508000D01*
%TO.C,U1*%
X145834277Y-80894000D02*
X145834277Y-82844000D01*
X145834277Y-80894000D02*
X145834277Y-78944000D01*
X140714277Y-80894000D02*
X140714277Y-82844000D01*
X140714277Y-80894000D02*
X140714277Y-77444000D01*
%TO.C,TP1*%
X140459500Y-75184000D02*
G75*
G03*
X140459500Y-75184000I-950000J0D01*
G01*
%TO.C,R5*%
X198857600Y-83765959D02*
X198857600Y-84073241D01*
X199617600Y-83765959D02*
X199617600Y-84073241D01*
%TO.C,L1*%
X138984278Y-82280252D02*
X138984278Y-79507748D01*
X135564278Y-82280252D02*
X135564278Y-79507748D01*
%TO.C,D3*%
X136274277Y-84644000D02*
X138274277Y-84644000D01*
X138274277Y-84644000D02*
X138274277Y-88544000D01*
X136274277Y-84644000D02*
X136274277Y-88544000D01*
%TO.C,C14*%
X148363000Y-69334748D02*
X148363000Y-69857252D01*
X149833000Y-69334748D02*
X149833000Y-69857252D01*
%TO.C,C6*%
X152226000Y-77236000D02*
G75*
G03*
X152226000Y-77236000I-2620000J0D01*
G01*
X152186000Y-77236000D02*
X147026000Y-77236000D01*
X152186000Y-77196000D02*
X147026000Y-77196000D01*
X152185000Y-77156000D02*
X147027000Y-77156000D01*
X152184000Y-77116000D02*
X147028000Y-77116000D01*
X152182000Y-77076000D02*
X147030000Y-77076000D01*
X152179000Y-77036000D02*
X147033000Y-77036000D01*
X152175000Y-76996000D02*
X150646000Y-76996000D01*
X148566000Y-76996000D02*
X147037000Y-76996000D01*
X152171000Y-76956000D02*
X150646000Y-76956000D01*
X148566000Y-76956000D02*
X147041000Y-76956000D01*
X152167000Y-76916000D02*
X150646000Y-76916000D01*
X148566000Y-76916000D02*
X147045000Y-76916000D01*
X152162000Y-76876000D02*
X150646000Y-76876000D01*
X148566000Y-76876000D02*
X147050000Y-76876000D01*
X152156000Y-76836000D02*
X150646000Y-76836000D01*
X148566000Y-76836000D02*
X147056000Y-76836000D01*
X152149000Y-76796000D02*
X150646000Y-76796000D01*
X148566000Y-76796000D02*
X147063000Y-76796000D01*
X152142000Y-76756000D02*
X150646000Y-76756000D01*
X148566000Y-76756000D02*
X147070000Y-76756000D01*
X152134000Y-76716000D02*
X150646000Y-76716000D01*
X148566000Y-76716000D02*
X147078000Y-76716000D01*
X152126000Y-76676000D02*
X150646000Y-76676000D01*
X148566000Y-76676000D02*
X147086000Y-76676000D01*
X152117000Y-76636000D02*
X150646000Y-76636000D01*
X148566000Y-76636000D02*
X147095000Y-76636000D01*
X152107000Y-76596000D02*
X150646000Y-76596000D01*
X148566000Y-76596000D02*
X147105000Y-76596000D01*
X152097000Y-76556000D02*
X150646000Y-76556000D01*
X148566000Y-76556000D02*
X147115000Y-76556000D01*
X152086000Y-76515000D02*
X150646000Y-76515000D01*
X148566000Y-76515000D02*
X147126000Y-76515000D01*
X152074000Y-76475000D02*
X150646000Y-76475000D01*
X148566000Y-76475000D02*
X147138000Y-76475000D01*
X152061000Y-76435000D02*
X150646000Y-76435000D01*
X148566000Y-76435000D02*
X147151000Y-76435000D01*
X152048000Y-76395000D02*
X150646000Y-76395000D01*
X148566000Y-76395000D02*
X147164000Y-76395000D01*
X152034000Y-76355000D02*
X150646000Y-76355000D01*
X148566000Y-76355000D02*
X147178000Y-76355000D01*
X152020000Y-76315000D02*
X150646000Y-76315000D01*
X148566000Y-76315000D02*
X147192000Y-76315000D01*
X152004000Y-76275000D02*
X150646000Y-76275000D01*
X148566000Y-76275000D02*
X147208000Y-76275000D01*
X151988000Y-76235000D02*
X150646000Y-76235000D01*
X148566000Y-76235000D02*
X147224000Y-76235000D01*
X151971000Y-76195000D02*
X150646000Y-76195000D01*
X148566000Y-76195000D02*
X147241000Y-76195000D01*
X151954000Y-76155000D02*
X150646000Y-76155000D01*
X148566000Y-76155000D02*
X147258000Y-76155000D01*
X151935000Y-76115000D02*
X150646000Y-76115000D01*
X148566000Y-76115000D02*
X147277000Y-76115000D01*
X151916000Y-76075000D02*
X150646000Y-76075000D01*
X148566000Y-76075000D02*
X147296000Y-76075000D01*
X151896000Y-76035000D02*
X150646000Y-76035000D01*
X148566000Y-76035000D02*
X147316000Y-76035000D01*
X151874000Y-75995000D02*
X150646000Y-75995000D01*
X148566000Y-75995000D02*
X147338000Y-75995000D01*
X151853000Y-75955000D02*
X150646000Y-75955000D01*
X148566000Y-75955000D02*
X147359000Y-75955000D01*
X151830000Y-75915000D02*
X150646000Y-75915000D01*
X148566000Y-75915000D02*
X147382000Y-75915000D01*
X151806000Y-75875000D02*
X150646000Y-75875000D01*
X148566000Y-75875000D02*
X147406000Y-75875000D01*
X151781000Y-75835000D02*
X150646000Y-75835000D01*
X148566000Y-75835000D02*
X147431000Y-75835000D01*
X151755000Y-75795000D02*
X150646000Y-75795000D01*
X148566000Y-75795000D02*
X147457000Y-75795000D01*
X151728000Y-75755000D02*
X150646000Y-75755000D01*
X148566000Y-75755000D02*
X147484000Y-75755000D01*
X151701000Y-75715000D02*
X150646000Y-75715000D01*
X148566000Y-75715000D02*
X147511000Y-75715000D01*
X151671000Y-75675000D02*
X150646000Y-75675000D01*
X148566000Y-75675000D02*
X147541000Y-75675000D01*
X151641000Y-75635000D02*
X150646000Y-75635000D01*
X148566000Y-75635000D02*
X147571000Y-75635000D01*
X151610000Y-75595000D02*
X150646000Y-75595000D01*
X148566000Y-75595000D02*
X147602000Y-75595000D01*
X151577000Y-75555000D02*
X150646000Y-75555000D01*
X148566000Y-75555000D02*
X147635000Y-75555000D01*
X151543000Y-75515000D02*
X150646000Y-75515000D01*
X148566000Y-75515000D02*
X147669000Y-75515000D01*
X151507000Y-75475000D02*
X150646000Y-75475000D01*
X148566000Y-75475000D02*
X147705000Y-75475000D01*
X151470000Y-75435000D02*
X150646000Y-75435000D01*
X148566000Y-75435000D02*
X147742000Y-75435000D01*
X151432000Y-75395000D02*
X150646000Y-75395000D01*
X148566000Y-75395000D02*
X147780000Y-75395000D01*
X151391000Y-75355000D02*
X150646000Y-75355000D01*
X148566000Y-75355000D02*
X147821000Y-75355000D01*
X151349000Y-75315000D02*
X150646000Y-75315000D01*
X148566000Y-75315000D02*
X147863000Y-75315000D01*
X151305000Y-75275000D02*
X150646000Y-75275000D01*
X148566000Y-75275000D02*
X147907000Y-75275000D01*
X151259000Y-75235000D02*
X150646000Y-75235000D01*
X148566000Y-75235000D02*
X147953000Y-75235000D01*
X151211000Y-75195000D02*
X150646000Y-75195000D01*
X148566000Y-75195000D02*
X148001000Y-75195000D01*
X151160000Y-75155000D02*
X150646000Y-75155000D01*
X148566000Y-75155000D02*
X148052000Y-75155000D01*
X151106000Y-75115000D02*
X150646000Y-75115000D01*
X148566000Y-75115000D02*
X148106000Y-75115000D01*
X151049000Y-75075000D02*
X150646000Y-75075000D01*
X148566000Y-75075000D02*
X148163000Y-75075000D01*
X150989000Y-75035000D02*
X150646000Y-75035000D01*
X148566000Y-75035000D02*
X148223000Y-75035000D01*
X150925000Y-74995000D02*
X150646000Y-74995000D01*
X148566000Y-74995000D02*
X148287000Y-74995000D01*
X150857000Y-74955000D02*
X150646000Y-74955000D01*
X148566000Y-74955000D02*
X148355000Y-74955000D01*
X150784000Y-74915000D02*
X148428000Y-74915000D01*
X150704000Y-74875000D02*
X148508000Y-74875000D01*
X150617000Y-74835000D02*
X148595000Y-74835000D01*
X150521000Y-74795000D02*
X148691000Y-74795000D01*
X150411000Y-74755000D02*
X148801000Y-74755000D01*
X150283000Y-74715000D02*
X148929000Y-74715000D01*
X150124000Y-74675000D02*
X149088000Y-74675000D01*
X149890000Y-74635000D02*
X149322000Y-74635000D01*
X151081000Y-80040775D02*
X151081000Y-79540775D01*
X151331000Y-79790775D02*
X150831000Y-79790775D01*
%TO.C,C5*%
X140514277Y-91654001D02*
X140514277Y-89954001D01*
X140514277Y-86134001D02*
X140514277Y-87834001D01*
X144969840Y-86134001D02*
X140514277Y-86134001D01*
X144969840Y-91654001D02*
X140514277Y-91654001D01*
X146034277Y-90589564D02*
X146034277Y-89954001D01*
X146034277Y-87198438D02*
X146034277Y-87834001D01*
X146034277Y-87198438D02*
X144969840Y-86134001D01*
X146034277Y-90589564D02*
X144969840Y-91654001D01*
X146899277Y-87209001D02*
X146274277Y-87209001D01*
X146586777Y-86896501D02*
X146586777Y-87521501D01*
%TO.C,C1*%
D10*
X196292742Y-81875333D02*
X196340361Y-81827714D01*
X196387980Y-81684857D01*
X196387980Y-81589619D01*
X196340361Y-81446761D01*
X196245123Y-81351523D01*
X196149885Y-81303904D01*
X195959409Y-81256285D01*
X195816552Y-81256285D01*
X195626076Y-81303904D01*
X195530838Y-81351523D01*
X195435600Y-81446761D01*
X195387980Y-81589619D01*
X195387980Y-81684857D01*
X195435600Y-81827714D01*
X195483219Y-81875333D01*
X196387980Y-82827714D02*
X196387980Y-82256285D01*
X196387980Y-82542000D02*
X195387980Y-82542000D01*
X195530838Y-82446761D01*
X195626076Y-82351523D01*
X195673695Y-82256285D01*
%TO.C,SW4*%
X210304071Y-58325214D02*
X210304071Y-57991880D01*
X210827880Y-57991880D02*
X209827880Y-57991880D01*
X209827880Y-58468071D01*
X210827880Y-58991880D02*
X210780261Y-58896642D01*
X210685023Y-58849023D01*
X209827880Y-58849023D01*
X210827880Y-59801404D02*
X210304071Y-59801404D01*
X210208833Y-59753785D01*
X210161214Y-59658547D01*
X210161214Y-59468071D01*
X210208833Y-59372833D01*
X210780261Y-59801404D02*
X210827880Y-59706166D01*
X210827880Y-59468071D01*
X210780261Y-59372833D01*
X210685023Y-59325214D01*
X210589785Y-59325214D01*
X210494547Y-59372833D01*
X210446928Y-59468071D01*
X210446928Y-59706166D01*
X210399309Y-59801404D01*
X210780261Y-60229976D02*
X210827880Y-60325214D01*
X210827880Y-60515690D01*
X210780261Y-60610928D01*
X210685023Y-60658547D01*
X210637404Y-60658547D01*
X210542166Y-60610928D01*
X210494547Y-60515690D01*
X210494547Y-60372833D01*
X210446928Y-60277595D01*
X210351690Y-60229976D01*
X210304071Y-60229976D01*
X210208833Y-60277595D01*
X210161214Y-60372833D01*
X210161214Y-60515690D01*
X210208833Y-60610928D01*
X210827880Y-61087119D02*
X209827880Y-61087119D01*
X210827880Y-61515690D02*
X210304071Y-61515690D01*
X210208833Y-61468071D01*
X210161214Y-61372833D01*
X210161214Y-61229976D01*
X210208833Y-61134738D01*
X210256452Y-61087119D01*
X210827880Y-62753785D02*
X209827880Y-62753785D01*
X210542166Y-63087119D01*
X209827880Y-63420452D01*
X210827880Y-63420452D01*
X210827880Y-64039500D02*
X210780261Y-63944261D01*
X210732642Y-63896642D01*
X210637404Y-63849023D01*
X210351690Y-63849023D01*
X210256452Y-63896642D01*
X210208833Y-63944261D01*
X210161214Y-64039500D01*
X210161214Y-64182357D01*
X210208833Y-64277595D01*
X210256452Y-64325214D01*
X210351690Y-64372833D01*
X210637404Y-64372833D01*
X210732642Y-64325214D01*
X210780261Y-64277595D01*
X210827880Y-64182357D01*
X210827880Y-64039500D01*
X210827880Y-65229976D02*
X209827880Y-65229976D01*
X210780261Y-65229976D02*
X210827880Y-65134738D01*
X210827880Y-64944261D01*
X210780261Y-64849023D01*
X210732642Y-64801404D01*
X210637404Y-64753785D01*
X210351690Y-64753785D01*
X210256452Y-64801404D01*
X210208833Y-64849023D01*
X210161214Y-64944261D01*
X210161214Y-65134738D01*
X210208833Y-65229976D01*
X210780261Y-66087119D02*
X210827880Y-65991880D01*
X210827880Y-65801404D01*
X210780261Y-65706166D01*
X210685023Y-65658547D01*
X210304071Y-65658547D01*
X210208833Y-65706166D01*
X210161214Y-65801404D01*
X210161214Y-65991880D01*
X210208833Y-66087119D01*
X210304071Y-66134738D01*
X210399309Y-66134738D01*
X210494547Y-65658547D01*
%TO.C,SW3*%
X194508380Y-60356904D02*
X194032190Y-60023571D01*
X194508380Y-59785476D02*
X193508380Y-59785476D01*
X193508380Y-60166428D01*
X193556000Y-60261666D01*
X193603619Y-60309285D01*
X193698857Y-60356904D01*
X193841714Y-60356904D01*
X193936952Y-60309285D01*
X193984571Y-60261666D01*
X194032190Y-60166428D01*
X194032190Y-59785476D01*
X194460761Y-61166428D02*
X194508380Y-61071190D01*
X194508380Y-60880714D01*
X194460761Y-60785476D01*
X194365523Y-60737857D01*
X193984571Y-60737857D01*
X193889333Y-60785476D01*
X193841714Y-60880714D01*
X193841714Y-61071190D01*
X193889333Y-61166428D01*
X193984571Y-61214047D01*
X194079809Y-61214047D01*
X194175047Y-60737857D01*
X194460761Y-61595000D02*
X194508380Y-61690238D01*
X194508380Y-61880714D01*
X194460761Y-61975952D01*
X194365523Y-62023571D01*
X194317904Y-62023571D01*
X194222666Y-61975952D01*
X194175047Y-61880714D01*
X194175047Y-61737857D01*
X194127428Y-61642619D01*
X194032190Y-61595000D01*
X193984571Y-61595000D01*
X193889333Y-61642619D01*
X193841714Y-61737857D01*
X193841714Y-61880714D01*
X193889333Y-61975952D01*
X194460761Y-62833095D02*
X194508380Y-62737857D01*
X194508380Y-62547380D01*
X194460761Y-62452142D01*
X194365523Y-62404523D01*
X193984571Y-62404523D01*
X193889333Y-62452142D01*
X193841714Y-62547380D01*
X193841714Y-62737857D01*
X193889333Y-62833095D01*
X193984571Y-62880714D01*
X194079809Y-62880714D01*
X194175047Y-62404523D01*
X193841714Y-63166428D02*
X193841714Y-63547380D01*
X193508380Y-63309285D02*
X194365523Y-63309285D01*
X194460761Y-63356904D01*
X194508380Y-63452142D01*
X194508380Y-63547380D01*
%TO.C,R22*%
X163456857Y-77160380D02*
X163790190Y-76684190D01*
X164028285Y-77160380D02*
X164028285Y-76160380D01*
X163647333Y-76160380D01*
X163552095Y-76208000D01*
X163504476Y-76255619D01*
X163456857Y-76350857D01*
X163456857Y-76493714D01*
X163504476Y-76588952D01*
X163552095Y-76636571D01*
X163647333Y-76684190D01*
X164028285Y-76684190D01*
X163075904Y-76255619D02*
X163028285Y-76208000D01*
X162933047Y-76160380D01*
X162694952Y-76160380D01*
X162599714Y-76208000D01*
X162552095Y-76255619D01*
X162504476Y-76350857D01*
X162504476Y-76446095D01*
X162552095Y-76588952D01*
X163123523Y-77160380D01*
X162504476Y-77160380D01*
X162123523Y-76255619D02*
X162075904Y-76208000D01*
X161980666Y-76160380D01*
X161742571Y-76160380D01*
X161647333Y-76208000D01*
X161599714Y-76255619D01*
X161552095Y-76350857D01*
X161552095Y-76446095D01*
X161599714Y-76588952D01*
X162171142Y-77160380D01*
X161552095Y-77160380D01*
%TO.C,R21*%
X161043857Y-81478380D02*
X161377190Y-81002190D01*
X161615285Y-81478380D02*
X161615285Y-80478380D01*
X161234333Y-80478380D01*
X161139095Y-80526000D01*
X161091476Y-80573619D01*
X161043857Y-80668857D01*
X161043857Y-80811714D01*
X161091476Y-80906952D01*
X161139095Y-80954571D01*
X161234333Y-81002190D01*
X161615285Y-81002190D01*
X160662904Y-80573619D02*
X160615285Y-80526000D01*
X160520047Y-80478380D01*
X160281952Y-80478380D01*
X160186714Y-80526000D01*
X160139095Y-80573619D01*
X160091476Y-80668857D01*
X160091476Y-80764095D01*
X160139095Y-80906952D01*
X160710523Y-81478380D01*
X160091476Y-81478380D01*
X159139095Y-81478380D02*
X159710523Y-81478380D01*
X159424809Y-81478380D02*
X159424809Y-80478380D01*
X159520047Y-80621238D01*
X159615285Y-80716476D01*
X159710523Y-80764095D01*
%TO.C,J8*%
X147907333Y-80922880D02*
X147907333Y-81637166D01*
X147954952Y-81780023D01*
X148050190Y-81875261D01*
X148193047Y-81922880D01*
X148288285Y-81922880D01*
X147288285Y-81351452D02*
X147383523Y-81303833D01*
X147431142Y-81256214D01*
X147478761Y-81160976D01*
X147478761Y-81113357D01*
X147431142Y-81018119D01*
X147383523Y-80970500D01*
X147288285Y-80922880D01*
X147097809Y-80922880D01*
X147002571Y-80970500D01*
X146954952Y-81018119D01*
X146907333Y-81113357D01*
X146907333Y-81160976D01*
X146954952Y-81256214D01*
X147002571Y-81303833D01*
X147097809Y-81351452D01*
X147288285Y-81351452D01*
X147383523Y-81399071D01*
X147431142Y-81446690D01*
X147478761Y-81541928D01*
X147478761Y-81732404D01*
X147431142Y-81827642D01*
X147383523Y-81875261D01*
X147288285Y-81922880D01*
X147097809Y-81922880D01*
X147002571Y-81875261D01*
X146954952Y-81827642D01*
X146907333Y-81732404D01*
X146907333Y-81541928D01*
X146954952Y-81446690D01*
X147002571Y-81399071D01*
X147097809Y-81351452D01*
%TO.C,R20*%
X175204380Y-103243142D02*
X174728190Y-102909809D01*
X175204380Y-102671714D02*
X174204380Y-102671714D01*
X174204380Y-103052666D01*
X174252000Y-103147904D01*
X174299619Y-103195523D01*
X174394857Y-103243142D01*
X174537714Y-103243142D01*
X174632952Y-103195523D01*
X174680571Y-103147904D01*
X174728190Y-103052666D01*
X174728190Y-102671714D01*
X174299619Y-103624095D02*
X174252000Y-103671714D01*
X174204380Y-103766952D01*
X174204380Y-104005047D01*
X174252000Y-104100285D01*
X174299619Y-104147904D01*
X174394857Y-104195523D01*
X174490095Y-104195523D01*
X174632952Y-104147904D01*
X175204380Y-103576476D01*
X175204380Y-104195523D01*
X174204380Y-104814571D02*
X174204380Y-104909809D01*
X174252000Y-105005047D01*
X174299619Y-105052666D01*
X174394857Y-105100285D01*
X174585333Y-105147904D01*
X174823428Y-105147904D01*
X175013904Y-105100285D01*
X175109142Y-105052666D01*
X175156761Y-105005047D01*
X175204380Y-104909809D01*
X175204380Y-104814571D01*
X175156761Y-104719333D01*
X175109142Y-104671714D01*
X175013904Y-104624095D01*
X174823428Y-104576476D01*
X174585333Y-104576476D01*
X174394857Y-104624095D01*
X174299619Y-104671714D01*
X174252000Y-104719333D01*
X174204380Y-104814571D01*
%TO.C,TP9*%
X156932000Y-73814571D02*
X157265333Y-73814571D01*
X157265333Y-74338380D02*
X157265333Y-73338380D01*
X156789142Y-73338380D01*
X155932000Y-74338380D02*
X156408190Y-74338380D01*
X156408190Y-73338380D01*
X155408190Y-73338380D02*
X155217714Y-73338380D01*
X155122476Y-73386000D01*
X155027238Y-73481238D01*
X154979619Y-73671714D01*
X154979619Y-74005047D01*
X155027238Y-74195523D01*
X155122476Y-74290761D01*
X155217714Y-74338380D01*
X155408190Y-74338380D01*
X155503428Y-74290761D01*
X155598666Y-74195523D01*
X155646285Y-74005047D01*
X155646285Y-73671714D01*
X155598666Y-73481238D01*
X155503428Y-73386000D01*
X155408190Y-73338380D01*
X154646285Y-73338380D02*
X154408190Y-74338380D01*
X154217714Y-73624095D01*
X154027238Y-74338380D01*
X153789142Y-73338380D01*
X153646285Y-74433619D02*
X152884380Y-74433619D01*
X152646285Y-74338380D02*
X152646285Y-73338380D01*
X152170095Y-74338380D02*
X152170095Y-73338380D01*
X151598666Y-74338380D01*
X151598666Y-73338380D01*
%TO.C,TP7*%
X142017428Y-74338380D02*
X142493619Y-74338380D01*
X142493619Y-73338380D01*
X141684095Y-73814571D02*
X141350761Y-73814571D01*
X141207904Y-74338380D02*
X141684095Y-74338380D01*
X141684095Y-73338380D01*
X141207904Y-73338380D01*
X140922190Y-73338380D02*
X140588857Y-74338380D01*
X140255523Y-73338380D01*
X139922190Y-73814571D02*
X139588857Y-73814571D01*
X139446000Y-74338380D02*
X139922190Y-74338380D01*
X139922190Y-73338380D01*
X139446000Y-73338380D01*
X138541238Y-74338380D02*
X139017428Y-74338380D01*
X139017428Y-73338380D01*
X138446000Y-74433619D02*
X137684095Y-74433619D01*
X137446000Y-74338380D02*
X137446000Y-73338380D01*
X136969809Y-74338380D02*
X136969809Y-73338380D01*
X136398380Y-74338380D01*
X136398380Y-73338380D01*
%TO.C,R19*%
X159392857Y-70302380D02*
X159726190Y-69826190D01*
X159964285Y-70302380D02*
X159964285Y-69302380D01*
X159583333Y-69302380D01*
X159488095Y-69350000D01*
X159440476Y-69397619D01*
X159392857Y-69492857D01*
X159392857Y-69635714D01*
X159440476Y-69730952D01*
X159488095Y-69778571D01*
X159583333Y-69826190D01*
X159964285Y-69826190D01*
X158440476Y-70302380D02*
X159011904Y-70302380D01*
X158726190Y-70302380D02*
X158726190Y-69302380D01*
X158821428Y-69445238D01*
X158916666Y-69540476D01*
X159011904Y-69588095D01*
X157964285Y-70302380D02*
X157773809Y-70302380D01*
X157678571Y-70254761D01*
X157630952Y-70207142D01*
X157535714Y-70064285D01*
X157488095Y-69873809D01*
X157488095Y-69492857D01*
X157535714Y-69397619D01*
X157583333Y-69350000D01*
X157678571Y-69302380D01*
X157869047Y-69302380D01*
X157964285Y-69350000D01*
X158011904Y-69397619D01*
X158059523Y-69492857D01*
X158059523Y-69730952D01*
X158011904Y-69826190D01*
X157964285Y-69873809D01*
X157869047Y-69921428D01*
X157678571Y-69921428D01*
X157583333Y-69873809D01*
X157535714Y-69826190D01*
X157488095Y-69730952D01*
%TO.C,R18*%
X135516857Y-70048380D02*
X135850190Y-69572190D01*
X136088285Y-70048380D02*
X136088285Y-69048380D01*
X135707333Y-69048380D01*
X135612095Y-69096000D01*
X135564476Y-69143619D01*
X135516857Y-69238857D01*
X135516857Y-69381714D01*
X135564476Y-69476952D01*
X135612095Y-69524571D01*
X135707333Y-69572190D01*
X136088285Y-69572190D01*
X134564476Y-70048380D02*
X135135904Y-70048380D01*
X134850190Y-70048380D02*
X134850190Y-69048380D01*
X134945428Y-69191238D01*
X135040666Y-69286476D01*
X135135904Y-69334095D01*
X133993047Y-69476952D02*
X134088285Y-69429333D01*
X134135904Y-69381714D01*
X134183523Y-69286476D01*
X134183523Y-69238857D01*
X134135904Y-69143619D01*
X134088285Y-69096000D01*
X133993047Y-69048380D01*
X133802571Y-69048380D01*
X133707333Y-69096000D01*
X133659714Y-69143619D01*
X133612095Y-69238857D01*
X133612095Y-69286476D01*
X133659714Y-69381714D01*
X133707333Y-69429333D01*
X133802571Y-69476952D01*
X133993047Y-69476952D01*
X134088285Y-69524571D01*
X134135904Y-69572190D01*
X134183523Y-69667428D01*
X134183523Y-69857904D01*
X134135904Y-69953142D01*
X134088285Y-70000761D01*
X133993047Y-70048380D01*
X133802571Y-70048380D01*
X133707333Y-70000761D01*
X133659714Y-69953142D01*
X133612095Y-69857904D01*
X133612095Y-69667428D01*
X133659714Y-69572190D01*
X133707333Y-69524571D01*
X133802571Y-69476952D01*
%TO.C,R17*%
X160980357Y-84589880D02*
X161313690Y-84113690D01*
X161551785Y-84589880D02*
X161551785Y-83589880D01*
X161170833Y-83589880D01*
X161075595Y-83637500D01*
X161027976Y-83685119D01*
X160980357Y-83780357D01*
X160980357Y-83923214D01*
X161027976Y-84018452D01*
X161075595Y-84066071D01*
X161170833Y-84113690D01*
X161551785Y-84113690D01*
X160027976Y-84589880D02*
X160599404Y-84589880D01*
X160313690Y-84589880D02*
X160313690Y-83589880D01*
X160408928Y-83732738D01*
X160504166Y-83827976D01*
X160599404Y-83875595D01*
X159694642Y-83589880D02*
X159027976Y-83589880D01*
X159456547Y-84589880D01*
%TO.C,R16*%
X161043857Y-85859880D02*
X161377190Y-85383690D01*
X161615285Y-85859880D02*
X161615285Y-84859880D01*
X161234333Y-84859880D01*
X161139095Y-84907500D01*
X161091476Y-84955119D01*
X161043857Y-85050357D01*
X161043857Y-85193214D01*
X161091476Y-85288452D01*
X161139095Y-85336071D01*
X161234333Y-85383690D01*
X161615285Y-85383690D01*
X160091476Y-85859880D02*
X160662904Y-85859880D01*
X160377190Y-85859880D02*
X160377190Y-84859880D01*
X160472428Y-85002738D01*
X160567666Y-85097976D01*
X160662904Y-85145595D01*
X159234333Y-84859880D02*
X159424809Y-84859880D01*
X159520047Y-84907500D01*
X159567666Y-84955119D01*
X159662904Y-85097976D01*
X159710523Y-85288452D01*
X159710523Y-85669404D01*
X159662904Y-85764642D01*
X159615285Y-85812261D01*
X159520047Y-85859880D01*
X159329571Y-85859880D01*
X159234333Y-85812261D01*
X159186714Y-85764642D01*
X159139095Y-85669404D01*
X159139095Y-85431309D01*
X159186714Y-85336071D01*
X159234333Y-85288452D01*
X159329571Y-85240833D01*
X159520047Y-85240833D01*
X159615285Y-85288452D01*
X159662904Y-85336071D01*
X159710523Y-85431309D01*
%TO.C,R15*%
X159392857Y-68778380D02*
X159726190Y-68302190D01*
X159964285Y-68778380D02*
X159964285Y-67778380D01*
X159583333Y-67778380D01*
X159488095Y-67826000D01*
X159440476Y-67873619D01*
X159392857Y-67968857D01*
X159392857Y-68111714D01*
X159440476Y-68206952D01*
X159488095Y-68254571D01*
X159583333Y-68302190D01*
X159964285Y-68302190D01*
X158440476Y-68778380D02*
X159011904Y-68778380D01*
X158726190Y-68778380D02*
X158726190Y-67778380D01*
X158821428Y-67921238D01*
X158916666Y-68016476D01*
X159011904Y-68064095D01*
X157535714Y-67778380D02*
X158011904Y-67778380D01*
X158059523Y-68254571D01*
X158011904Y-68206952D01*
X157916666Y-68159333D01*
X157678571Y-68159333D01*
X157583333Y-68206952D01*
X157535714Y-68254571D01*
X157488095Y-68349809D01*
X157488095Y-68587904D01*
X157535714Y-68683142D01*
X157583333Y-68730761D01*
X157678571Y-68778380D01*
X157916666Y-68778380D01*
X158011904Y-68730761D01*
X158059523Y-68683142D01*
%TO.C,R8*%
X135548666Y-68778380D02*
X135882000Y-68302190D01*
X136120095Y-68778380D02*
X136120095Y-67778380D01*
X135739142Y-67778380D01*
X135643904Y-67826000D01*
X135596285Y-67873619D01*
X135548666Y-67968857D01*
X135548666Y-68111714D01*
X135596285Y-68206952D01*
X135643904Y-68254571D01*
X135739142Y-68302190D01*
X136120095Y-68302190D01*
X134977238Y-68206952D02*
X135072476Y-68159333D01*
X135120095Y-68111714D01*
X135167714Y-68016476D01*
X135167714Y-67968857D01*
X135120095Y-67873619D01*
X135072476Y-67826000D01*
X134977238Y-67778380D01*
X134786761Y-67778380D01*
X134691523Y-67826000D01*
X134643904Y-67873619D01*
X134596285Y-67968857D01*
X134596285Y-68016476D01*
X134643904Y-68111714D01*
X134691523Y-68159333D01*
X134786761Y-68206952D01*
X134977238Y-68206952D01*
X135072476Y-68254571D01*
X135120095Y-68302190D01*
X135167714Y-68397428D01*
X135167714Y-68587904D01*
X135120095Y-68683142D01*
X135072476Y-68730761D01*
X134977238Y-68778380D01*
X134786761Y-68778380D01*
X134691523Y-68730761D01*
X134643904Y-68683142D01*
X134596285Y-68587904D01*
X134596285Y-68397428D01*
X134643904Y-68302190D01*
X134691523Y-68254571D01*
X134786761Y-68206952D01*
%TO.C,D5*%
X145264095Y-69540380D02*
X145264095Y-68540380D01*
X145026000Y-68540380D01*
X144883142Y-68588000D01*
X144787904Y-68683238D01*
X144740285Y-68778476D01*
X144692666Y-68968952D01*
X144692666Y-69111809D01*
X144740285Y-69302285D01*
X144787904Y-69397523D01*
X144883142Y-69492761D01*
X145026000Y-69540380D01*
X145264095Y-69540380D01*
X143787904Y-68540380D02*
X144264095Y-68540380D01*
X144311714Y-69016571D01*
X144264095Y-68968952D01*
X144168857Y-68921333D01*
X143930761Y-68921333D01*
X143835523Y-68968952D01*
X143787904Y-69016571D01*
X143740285Y-69111809D01*
X143740285Y-69349904D01*
X143787904Y-69445142D01*
X143835523Y-69492761D01*
X143930761Y-69540380D01*
X144168857Y-69540380D01*
X144264095Y-69492761D01*
X144311714Y-69445142D01*
%TO.C,U2*%
X184306380Y-91234095D02*
X185115904Y-91234095D01*
X185211142Y-91281714D01*
X185258761Y-91329333D01*
X185306380Y-91424571D01*
X185306380Y-91615047D01*
X185258761Y-91710285D01*
X185211142Y-91757904D01*
X185115904Y-91805523D01*
X184306380Y-91805523D01*
X184401619Y-92234095D02*
X184354000Y-92281714D01*
X184306380Y-92376952D01*
X184306380Y-92615047D01*
X184354000Y-92710285D01*
X184401619Y-92757904D01*
X184496857Y-92805523D01*
X184592095Y-92805523D01*
X184734952Y-92757904D01*
X185306380Y-92186476D01*
X185306380Y-92805523D01*
%TO.C,R14*%
X210909733Y-68714880D02*
X211243066Y-68238690D01*
X211481161Y-68714880D02*
X211481161Y-67714880D01*
X211100209Y-67714880D01*
X211004971Y-67762500D01*
X210957352Y-67810119D01*
X210909733Y-67905357D01*
X210909733Y-68048214D01*
X210957352Y-68143452D01*
X211004971Y-68191071D01*
X211100209Y-68238690D01*
X211481161Y-68238690D01*
X209957352Y-68714880D02*
X210528780Y-68714880D01*
X210243066Y-68714880D02*
X210243066Y-67714880D01*
X210338304Y-67857738D01*
X210433542Y-67952976D01*
X210528780Y-68000595D01*
X209100209Y-68048214D02*
X209100209Y-68714880D01*
X209338304Y-67667261D02*
X209576399Y-68381547D01*
X208957352Y-68381547D01*
%TO.C,R13*%
X203207857Y-68524380D02*
X203541190Y-68048190D01*
X203779285Y-68524380D02*
X203779285Y-67524380D01*
X203398333Y-67524380D01*
X203303095Y-67572000D01*
X203255476Y-67619619D01*
X203207857Y-67714857D01*
X203207857Y-67857714D01*
X203255476Y-67952952D01*
X203303095Y-68000571D01*
X203398333Y-68048190D01*
X203779285Y-68048190D01*
X202255476Y-68524380D02*
X202826904Y-68524380D01*
X202541190Y-68524380D02*
X202541190Y-67524380D01*
X202636428Y-67667238D01*
X202731666Y-67762476D01*
X202826904Y-67810095D01*
X201922142Y-67524380D02*
X201303095Y-67524380D01*
X201636428Y-67905333D01*
X201493571Y-67905333D01*
X201398333Y-67952952D01*
X201350714Y-68000571D01*
X201303095Y-68095809D01*
X201303095Y-68333904D01*
X201350714Y-68429142D01*
X201398333Y-68476761D01*
X201493571Y-68524380D01*
X201779285Y-68524380D01*
X201874523Y-68476761D01*
X201922142Y-68429142D01*
%TO.C,C19*%
X187078857Y-78225142D02*
X187126476Y-78272761D01*
X187269333Y-78320380D01*
X187364571Y-78320380D01*
X187507428Y-78272761D01*
X187602666Y-78177523D01*
X187650285Y-78082285D01*
X187697904Y-77891809D01*
X187697904Y-77748952D01*
X187650285Y-77558476D01*
X187602666Y-77463238D01*
X187507428Y-77368000D01*
X187364571Y-77320380D01*
X187269333Y-77320380D01*
X187126476Y-77368000D01*
X187078857Y-77415619D01*
X186126476Y-78320380D02*
X186697904Y-78320380D01*
X186412190Y-78320380D02*
X186412190Y-77320380D01*
X186507428Y-77463238D01*
X186602666Y-77558476D01*
X186697904Y-77606095D01*
X185650285Y-78320380D02*
X185459809Y-78320380D01*
X185364571Y-78272761D01*
X185316952Y-78225142D01*
X185221714Y-78082285D01*
X185174095Y-77891809D01*
X185174095Y-77510857D01*
X185221714Y-77415619D01*
X185269333Y-77368000D01*
X185364571Y-77320380D01*
X185555047Y-77320380D01*
X185650285Y-77368000D01*
X185697904Y-77415619D01*
X185745523Y-77510857D01*
X185745523Y-77748952D01*
X185697904Y-77844190D01*
X185650285Y-77891809D01*
X185555047Y-77939428D01*
X185364571Y-77939428D01*
X185269333Y-77891809D01*
X185221714Y-77844190D01*
X185174095Y-77748952D01*
%TO.C,TP12*%
X206723619Y-95702380D02*
X207199809Y-95702380D01*
X207199809Y-94702380D01*
X205818857Y-95607142D02*
X205866476Y-95654761D01*
X206009333Y-95702380D01*
X206104571Y-95702380D01*
X206247428Y-95654761D01*
X206342666Y-95559523D01*
X206390285Y-95464285D01*
X206437904Y-95273809D01*
X206437904Y-95130952D01*
X206390285Y-94940476D01*
X206342666Y-94845238D01*
X206247428Y-94750000D01*
X206104571Y-94702380D01*
X206009333Y-94702380D01*
X205866476Y-94750000D01*
X205818857Y-94797619D01*
X205390285Y-95702380D02*
X205390285Y-94702380D01*
X205152190Y-94702380D01*
X205009333Y-94750000D01*
X204914095Y-94845238D01*
X204866476Y-94940476D01*
X204818857Y-95130952D01*
X204818857Y-95273809D01*
X204866476Y-95464285D01*
X204914095Y-95559523D01*
X205009333Y-95654761D01*
X205152190Y-95702380D01*
X205390285Y-95702380D01*
X204628380Y-95797619D02*
X203866476Y-95797619D01*
X203295047Y-95178571D02*
X203152190Y-95226190D01*
X203104571Y-95273809D01*
X203056952Y-95369047D01*
X203056952Y-95511904D01*
X203104571Y-95607142D01*
X203152190Y-95654761D01*
X203247428Y-95702380D01*
X203628380Y-95702380D01*
X203628380Y-94702380D01*
X203295047Y-94702380D01*
X203199809Y-94750000D01*
X203152190Y-94797619D01*
X203104571Y-94892857D01*
X203104571Y-94988095D01*
X203152190Y-95083333D01*
X203199809Y-95130952D01*
X203295047Y-95178571D01*
X203628380Y-95178571D01*
X202675999Y-95416666D02*
X202199809Y-95416666D01*
X202771238Y-95702380D02*
X202437904Y-94702380D01*
X202104571Y-95702380D01*
X201199809Y-95607142D02*
X201247428Y-95654761D01*
X201390285Y-95702380D01*
X201485523Y-95702380D01*
X201628380Y-95654761D01*
X201723619Y-95559523D01*
X201771238Y-95464285D01*
X201818857Y-95273809D01*
X201818857Y-95130952D01*
X201771238Y-94940476D01*
X201723619Y-94845238D01*
X201628380Y-94750000D01*
X201485523Y-94702380D01*
X201390285Y-94702380D01*
X201247428Y-94750000D01*
X201199809Y-94797619D01*
X200771238Y-95702380D02*
X200771238Y-94702380D01*
X200199809Y-95702380D02*
X200628380Y-95130952D01*
X200199809Y-94702380D02*
X200771238Y-95273809D01*
X199295047Y-95702380D02*
X199771238Y-95702380D01*
X199771238Y-94702380D01*
X198961714Y-95702380D02*
X198961714Y-94702380D01*
X197961714Y-94750000D02*
X198056952Y-94702380D01*
X198199809Y-94702380D01*
X198342666Y-94750000D01*
X198437904Y-94845238D01*
X198485523Y-94940476D01*
X198533142Y-95130952D01*
X198533142Y-95273809D01*
X198485523Y-95464285D01*
X198437904Y-95559523D01*
X198342666Y-95654761D01*
X198199809Y-95702380D01*
X198104571Y-95702380D01*
X197961714Y-95654761D01*
X197914095Y-95607142D01*
X197914095Y-95273809D01*
X198104571Y-95273809D01*
X197485523Y-95702380D02*
X197485523Y-94702380D01*
X197485523Y-95178571D02*
X196914095Y-95178571D01*
X196914095Y-95702380D02*
X196914095Y-94702380D01*
X196580761Y-94702380D02*
X196009333Y-94702380D01*
X196295047Y-95702380D02*
X196295047Y-94702380D01*
%TO.C,R12*%
X197492857Y-93670380D02*
X197826190Y-93194190D01*
X198064285Y-93670380D02*
X198064285Y-92670380D01*
X197683333Y-92670380D01*
X197588095Y-92718000D01*
X197540476Y-92765619D01*
X197492857Y-92860857D01*
X197492857Y-93003714D01*
X197540476Y-93098952D01*
X197588095Y-93146571D01*
X197683333Y-93194190D01*
X198064285Y-93194190D01*
X196540476Y-93670380D02*
X197111904Y-93670380D01*
X196826190Y-93670380D02*
X196826190Y-92670380D01*
X196921428Y-92813238D01*
X197016666Y-92908476D01*
X197111904Y-92956095D01*
X196159523Y-92765619D02*
X196111904Y-92718000D01*
X196016666Y-92670380D01*
X195778571Y-92670380D01*
X195683333Y-92718000D01*
X195635714Y-92765619D01*
X195588095Y-92860857D01*
X195588095Y-92956095D01*
X195635714Y-93098952D01*
X196207142Y-93670380D01*
X195588095Y-93670380D01*
%TO.C,Q4*%
X196889619Y-90328761D02*
X196842000Y-90233523D01*
X196746761Y-90138285D01*
X196603904Y-89995428D01*
X196556285Y-89900190D01*
X196556285Y-89804952D01*
X196794380Y-89852571D02*
X196746761Y-89757333D01*
X196651523Y-89662095D01*
X196461047Y-89614476D01*
X196127714Y-89614476D01*
X195937238Y-89662095D01*
X195842000Y-89757333D01*
X195794380Y-89852571D01*
X195794380Y-90043047D01*
X195842000Y-90138285D01*
X195937238Y-90233523D01*
X196127714Y-90281142D01*
X196461047Y-90281142D01*
X196651523Y-90233523D01*
X196746761Y-90138285D01*
X196794380Y-90043047D01*
X196794380Y-89852571D01*
X196127714Y-91138285D02*
X196794380Y-91138285D01*
X195746761Y-90900190D02*
X196461047Y-90662095D01*
X196461047Y-91281142D01*
%TO.C,TP5*%
X191650809Y-88590380D02*
X191984142Y-88114190D01*
X192222238Y-88590380D02*
X192222238Y-87590380D01*
X191841285Y-87590380D01*
X191746047Y-87638000D01*
X191698428Y-87685619D01*
X191650809Y-87780857D01*
X191650809Y-87923714D01*
X191698428Y-88018952D01*
X191746047Y-88066571D01*
X191841285Y-88114190D01*
X192222238Y-88114190D01*
X191222238Y-88066571D02*
X190888904Y-88066571D01*
X190746047Y-88590380D02*
X191222238Y-88590380D01*
X191222238Y-87590380D01*
X190746047Y-87590380D01*
X190555571Y-88685619D02*
X189793666Y-88685619D01*
X189222238Y-88066571D02*
X189079380Y-88114190D01*
X189031761Y-88161809D01*
X188984142Y-88257047D01*
X188984142Y-88399904D01*
X189031761Y-88495142D01*
X189079380Y-88542761D01*
X189174619Y-88590380D01*
X189555571Y-88590380D01*
X189555571Y-87590380D01*
X189222238Y-87590380D01*
X189127000Y-87638000D01*
X189079380Y-87685619D01*
X189031761Y-87780857D01*
X189031761Y-87876095D01*
X189079380Y-87971333D01*
X189127000Y-88018952D01*
X189222238Y-88066571D01*
X189555571Y-88066571D01*
%TO.C,TP3*%
X191579380Y-84462880D02*
X191912714Y-83986690D01*
X192150809Y-84462880D02*
X192150809Y-83462880D01*
X191769857Y-83462880D01*
X191674619Y-83510500D01*
X191627000Y-83558119D01*
X191579380Y-83653357D01*
X191579380Y-83796214D01*
X191627000Y-83891452D01*
X191674619Y-83939071D01*
X191769857Y-83986690D01*
X192150809Y-83986690D01*
X191150809Y-83939071D02*
X190817476Y-83939071D01*
X190674619Y-84462880D02*
X191150809Y-84462880D01*
X191150809Y-83462880D01*
X190674619Y-83462880D01*
X190484142Y-84558119D02*
X189722238Y-84558119D01*
X189531761Y-84177166D02*
X189055571Y-84177166D01*
X189627000Y-84462880D02*
X189293666Y-83462880D01*
X188960333Y-84462880D01*
%TO.C,TP2*%
X192491857Y-79970261D02*
X192349000Y-80017880D01*
X192110904Y-80017880D01*
X192015666Y-79970261D01*
X191968047Y-79922642D01*
X191920428Y-79827404D01*
X191920428Y-79732166D01*
X191968047Y-79636928D01*
X192015666Y-79589309D01*
X192110904Y-79541690D01*
X192301380Y-79494071D01*
X192396619Y-79446452D01*
X192444238Y-79398833D01*
X192491857Y-79303595D01*
X192491857Y-79208357D01*
X192444238Y-79113119D01*
X192396619Y-79065500D01*
X192301380Y-79017880D01*
X192063285Y-79017880D01*
X191920428Y-79065500D01*
X191587095Y-79017880D02*
X191349000Y-80017880D01*
X191158523Y-79303595D01*
X190968047Y-80017880D01*
X190729952Y-79017880D01*
X190587095Y-80113119D02*
X189825190Y-80113119D01*
X189587095Y-80017880D02*
X189587095Y-79017880D01*
X189206142Y-79017880D01*
X189110904Y-79065500D01*
X189063285Y-79113119D01*
X189015666Y-79208357D01*
X189015666Y-79351214D01*
X189063285Y-79446452D01*
X189110904Y-79494071D01*
X189206142Y-79541690D01*
X189587095Y-79541690D01*
X188015666Y-80017880D02*
X188349000Y-79541690D01*
X188587095Y-80017880D02*
X188587095Y-79017880D01*
X188206142Y-79017880D01*
X188110904Y-79065500D01*
X188063285Y-79113119D01*
X188015666Y-79208357D01*
X188015666Y-79351214D01*
X188063285Y-79446452D01*
X188110904Y-79494071D01*
X188206142Y-79541690D01*
X188587095Y-79541690D01*
X187587095Y-79494071D02*
X187253761Y-79494071D01*
X187110904Y-80017880D02*
X187587095Y-80017880D01*
X187587095Y-79017880D01*
X187110904Y-79017880D01*
X186729952Y-79970261D02*
X186587095Y-80017880D01*
X186349000Y-80017880D01*
X186253761Y-79970261D01*
X186206142Y-79922642D01*
X186158523Y-79827404D01*
X186158523Y-79732166D01*
X186206142Y-79636928D01*
X186253761Y-79589309D01*
X186349000Y-79541690D01*
X186539476Y-79494071D01*
X186634714Y-79446452D01*
X186682333Y-79398833D01*
X186729952Y-79303595D01*
X186729952Y-79208357D01*
X186682333Y-79113119D01*
X186634714Y-79065500D01*
X186539476Y-79017880D01*
X186301380Y-79017880D01*
X186158523Y-79065500D01*
X185777571Y-79970261D02*
X185634714Y-80017880D01*
X185396619Y-80017880D01*
X185301380Y-79970261D01*
X185253761Y-79922642D01*
X185206142Y-79827404D01*
X185206142Y-79732166D01*
X185253761Y-79636928D01*
X185301380Y-79589309D01*
X185396619Y-79541690D01*
X185587095Y-79494071D01*
X185682333Y-79446452D01*
X185729952Y-79398833D01*
X185777571Y-79303595D01*
X185777571Y-79208357D01*
X185729952Y-79113119D01*
X185682333Y-79065500D01*
X185587095Y-79017880D01*
X185349000Y-79017880D01*
X185206142Y-79065500D01*
%TO.C,R11*%
X204160357Y-77414380D02*
X204493690Y-76938190D01*
X204731785Y-77414380D02*
X204731785Y-76414380D01*
X204350833Y-76414380D01*
X204255595Y-76462000D01*
X204207976Y-76509619D01*
X204160357Y-76604857D01*
X204160357Y-76747714D01*
X204207976Y-76842952D01*
X204255595Y-76890571D01*
X204350833Y-76938190D01*
X204731785Y-76938190D01*
X203207976Y-77414380D02*
X203779404Y-77414380D01*
X203493690Y-77414380D02*
X203493690Y-76414380D01*
X203588928Y-76557238D01*
X203684166Y-76652476D01*
X203779404Y-76700095D01*
X202255595Y-77414380D02*
X202827023Y-77414380D01*
X202541309Y-77414380D02*
X202541309Y-76414380D01*
X202636547Y-76557238D01*
X202731785Y-76652476D01*
X202827023Y-76700095D01*
%TO.C,R10*%
X210065880Y-89844642D02*
X209589690Y-89511309D01*
X210065880Y-89273214D02*
X209065880Y-89273214D01*
X209065880Y-89654166D01*
X209113500Y-89749404D01*
X209161119Y-89797023D01*
X209256357Y-89844642D01*
X209399214Y-89844642D01*
X209494452Y-89797023D01*
X209542071Y-89749404D01*
X209589690Y-89654166D01*
X209589690Y-89273214D01*
X210065880Y-90797023D02*
X210065880Y-90225595D01*
X210065880Y-90511309D02*
X209065880Y-90511309D01*
X209208738Y-90416071D01*
X209303976Y-90320833D01*
X209351595Y-90225595D01*
X209065880Y-91416071D02*
X209065880Y-91511309D01*
X209113500Y-91606547D01*
X209161119Y-91654166D01*
X209256357Y-91701785D01*
X209446833Y-91749404D01*
X209684928Y-91749404D01*
X209875404Y-91701785D01*
X209970642Y-91654166D01*
X210018261Y-91606547D01*
X210065880Y-91511309D01*
X210065880Y-91416071D01*
X210018261Y-91320833D01*
X209970642Y-91273214D01*
X209875404Y-91225595D01*
X209684928Y-91177976D01*
X209446833Y-91177976D01*
X209256357Y-91225595D01*
X209161119Y-91273214D01*
X209113500Y-91320833D01*
X209065880Y-91416071D01*
%TO.C,R9*%
X210065880Y-76795333D02*
X209589690Y-76462000D01*
X210065880Y-76223904D02*
X209065880Y-76223904D01*
X209065880Y-76604857D01*
X209113500Y-76700095D01*
X209161119Y-76747714D01*
X209256357Y-76795333D01*
X209399214Y-76795333D01*
X209494452Y-76747714D01*
X209542071Y-76700095D01*
X209589690Y-76604857D01*
X209589690Y-76223904D01*
X210065880Y-77271523D02*
X210065880Y-77462000D01*
X210018261Y-77557238D01*
X209970642Y-77604857D01*
X209827785Y-77700095D01*
X209637309Y-77747714D01*
X209256357Y-77747714D01*
X209161119Y-77700095D01*
X209113500Y-77652476D01*
X209065880Y-77557238D01*
X209065880Y-77366761D01*
X209113500Y-77271523D01*
X209161119Y-77223904D01*
X209256357Y-77176285D01*
X209494452Y-77176285D01*
X209589690Y-77223904D01*
X209637309Y-77271523D01*
X209684928Y-77366761D01*
X209684928Y-77557238D01*
X209637309Y-77652476D01*
X209589690Y-77700095D01*
X209494452Y-77747714D01*
%TO.C,D4*%
X152376095Y-71318380D02*
X152376095Y-70318380D01*
X152138000Y-70318380D01*
X151995142Y-70366000D01*
X151899904Y-70461238D01*
X151852285Y-70556476D01*
X151804666Y-70746952D01*
X151804666Y-70889809D01*
X151852285Y-71080285D01*
X151899904Y-71175523D01*
X151995142Y-71270761D01*
X152138000Y-71318380D01*
X152376095Y-71318380D01*
X150947523Y-70651714D02*
X150947523Y-71318380D01*
X151185619Y-70270761D02*
X151423714Y-70985047D01*
X150804666Y-70985047D01*
%TO.C,C18*%
X208573642Y-89717642D02*
X208621261Y-89670023D01*
X208668880Y-89527166D01*
X208668880Y-89431928D01*
X208621261Y-89289071D01*
X208526023Y-89193833D01*
X208430785Y-89146214D01*
X208240309Y-89098595D01*
X208097452Y-89098595D01*
X207906976Y-89146214D01*
X207811738Y-89193833D01*
X207716500Y-89289071D01*
X207668880Y-89431928D01*
X207668880Y-89527166D01*
X207716500Y-89670023D01*
X207764119Y-89717642D01*
X208668880Y-90670023D02*
X208668880Y-90098595D01*
X208668880Y-90384309D02*
X207668880Y-90384309D01*
X207811738Y-90289071D01*
X207906976Y-90193833D01*
X207954595Y-90098595D01*
X208097452Y-91241452D02*
X208049833Y-91146214D01*
X208002214Y-91098595D01*
X207906976Y-91050976D01*
X207859357Y-91050976D01*
X207764119Y-91098595D01*
X207716500Y-91146214D01*
X207668880Y-91241452D01*
X207668880Y-91431928D01*
X207716500Y-91527166D01*
X207764119Y-91574785D01*
X207859357Y-91622404D01*
X207906976Y-91622404D01*
X208002214Y-91574785D01*
X208049833Y-91527166D01*
X208097452Y-91431928D01*
X208097452Y-91241452D01*
X208145071Y-91146214D01*
X208192690Y-91098595D01*
X208287928Y-91050976D01*
X208478404Y-91050976D01*
X208573642Y-91098595D01*
X208621261Y-91146214D01*
X208668880Y-91241452D01*
X208668880Y-91431928D01*
X208621261Y-91527166D01*
X208573642Y-91574785D01*
X208478404Y-91622404D01*
X208287928Y-91622404D01*
X208192690Y-91574785D01*
X208145071Y-91527166D01*
X208097452Y-91431928D01*
%TO.C,C17*%
X208700642Y-75874642D02*
X208748261Y-75827023D01*
X208795880Y-75684166D01*
X208795880Y-75588928D01*
X208748261Y-75446071D01*
X208653023Y-75350833D01*
X208557785Y-75303214D01*
X208367309Y-75255595D01*
X208224452Y-75255595D01*
X208033976Y-75303214D01*
X207938738Y-75350833D01*
X207843500Y-75446071D01*
X207795880Y-75588928D01*
X207795880Y-75684166D01*
X207843500Y-75827023D01*
X207891119Y-75874642D01*
X208795880Y-76827023D02*
X208795880Y-76255595D01*
X208795880Y-76541309D02*
X207795880Y-76541309D01*
X207938738Y-76446071D01*
X208033976Y-76350833D01*
X208081595Y-76255595D01*
X207795880Y-77160357D02*
X207795880Y-77827023D01*
X208795880Y-77398452D01*
%TO.C,C16*%
X204160357Y-75795142D02*
X204207976Y-75842761D01*
X204350833Y-75890380D01*
X204446071Y-75890380D01*
X204588928Y-75842761D01*
X204684166Y-75747523D01*
X204731785Y-75652285D01*
X204779404Y-75461809D01*
X204779404Y-75318952D01*
X204731785Y-75128476D01*
X204684166Y-75033238D01*
X204588928Y-74938000D01*
X204446071Y-74890380D01*
X204350833Y-74890380D01*
X204207976Y-74938000D01*
X204160357Y-74985619D01*
X203207976Y-75890380D02*
X203779404Y-75890380D01*
X203493690Y-75890380D02*
X203493690Y-74890380D01*
X203588928Y-75033238D01*
X203684166Y-75128476D01*
X203779404Y-75176095D01*
X202350833Y-74890380D02*
X202541309Y-74890380D01*
X202636547Y-74938000D01*
X202684166Y-74985619D01*
X202779404Y-75128476D01*
X202827023Y-75318952D01*
X202827023Y-75699904D01*
X202779404Y-75795142D01*
X202731785Y-75842761D01*
X202636547Y-75890380D01*
X202446071Y-75890380D01*
X202350833Y-75842761D01*
X202303214Y-75795142D01*
X202255595Y-75699904D01*
X202255595Y-75461809D01*
X202303214Y-75366571D01*
X202350833Y-75318952D01*
X202446071Y-75271333D01*
X202636547Y-75271333D01*
X202731785Y-75318952D01*
X202779404Y-75366571D01*
X202827023Y-75461809D01*
%TO.C,R7*%
X179776380Y-97115333D02*
X179300190Y-96782000D01*
X179776380Y-96543904D02*
X178776380Y-96543904D01*
X178776380Y-96924857D01*
X178824000Y-97020095D01*
X178871619Y-97067714D01*
X178966857Y-97115333D01*
X179109714Y-97115333D01*
X179204952Y-97067714D01*
X179252571Y-97020095D01*
X179300190Y-96924857D01*
X179300190Y-96543904D01*
X178776380Y-97448666D02*
X178776380Y-98115333D01*
X179776380Y-97686761D01*
%TO.C,Q3*%
X179927238Y-100115619D02*
X180022476Y-100068000D01*
X180117714Y-99972761D01*
X180260571Y-99829904D01*
X180355809Y-99782285D01*
X180451047Y-99782285D01*
X180403428Y-100020380D02*
X180498666Y-99972761D01*
X180593904Y-99877523D01*
X180641523Y-99687047D01*
X180641523Y-99353714D01*
X180593904Y-99163238D01*
X180498666Y-99068000D01*
X180403428Y-99020380D01*
X180212952Y-99020380D01*
X180117714Y-99068000D01*
X180022476Y-99163238D01*
X179974857Y-99353714D01*
X179974857Y-99687047D01*
X180022476Y-99877523D01*
X180117714Y-99972761D01*
X180212952Y-100020380D01*
X180403428Y-100020380D01*
X179641523Y-99020380D02*
X179022476Y-99020380D01*
X179355809Y-99401333D01*
X179212952Y-99401333D01*
X179117714Y-99448952D01*
X179070095Y-99496571D01*
X179022476Y-99591809D01*
X179022476Y-99829904D01*
X179070095Y-99925142D01*
X179117714Y-99972761D01*
X179212952Y-100020380D01*
X179498666Y-100020380D01*
X179593904Y-99972761D01*
X179641523Y-99925142D01*
%TO.C,K1*%
X191340095Y-109250380D02*
X191340095Y-108250380D01*
X190768666Y-109250380D02*
X191197238Y-108678952D01*
X190768666Y-108250380D02*
X191340095Y-108821809D01*
X189816285Y-109250380D02*
X190387714Y-109250380D01*
X190102000Y-109250380D02*
X190102000Y-108250380D01*
X190197238Y-108393238D01*
X190292476Y-108488476D01*
X190387714Y-108536095D01*
%TO.C,U1*%
X144017904Y-75906380D02*
X144017904Y-76715904D01*
X143970285Y-76811142D01*
X143922666Y-76858761D01*
X143827428Y-76906380D01*
X143636952Y-76906380D01*
X143541714Y-76858761D01*
X143494095Y-76811142D01*
X143446476Y-76715904D01*
X143446476Y-75906380D01*
X142446476Y-76906380D02*
X143017904Y-76906380D01*
X142732190Y-76906380D02*
X142732190Y-75906380D01*
X142827428Y-76049238D01*
X142922666Y-76144476D01*
X143017904Y-76192095D01*
%TO.C,TP1*%
X137175690Y-74382380D02*
X136556642Y-74382380D01*
X136889976Y-74763333D01*
X136747119Y-74763333D01*
X136651880Y-74810952D01*
X136604261Y-74858571D01*
X136556642Y-74953809D01*
X136556642Y-75191904D01*
X136604261Y-75287142D01*
X136651880Y-75334761D01*
X136747119Y-75382380D01*
X137032833Y-75382380D01*
X137128071Y-75334761D01*
X137175690Y-75287142D01*
X136128071Y-75287142D02*
X136080452Y-75334761D01*
X136128071Y-75382380D01*
X136175690Y-75334761D01*
X136128071Y-75287142D01*
X136128071Y-75382380D01*
X135747119Y-74382380D02*
X135128071Y-74382380D01*
X135461404Y-74763333D01*
X135318547Y-74763333D01*
X135223309Y-74810952D01*
X135175690Y-74858571D01*
X135128071Y-74953809D01*
X135128071Y-75191904D01*
X135175690Y-75287142D01*
X135223309Y-75334761D01*
X135318547Y-75382380D01*
X135604261Y-75382380D01*
X135699500Y-75334761D01*
X135747119Y-75287142D01*
X134842357Y-74382380D02*
X134509023Y-75382380D01*
X134175690Y-74382380D01*
%TO.C,R5*%
X199689980Y-81593932D02*
X199213790Y-81260599D01*
X199689980Y-81022503D02*
X198689980Y-81022503D01*
X198689980Y-81403456D01*
X198737600Y-81498694D01*
X198785219Y-81546313D01*
X198880457Y-81593932D01*
X199023314Y-81593932D01*
X199118552Y-81546313D01*
X199166171Y-81498694D01*
X199213790Y-81403456D01*
X199213790Y-81022503D01*
X198689980Y-82498694D02*
X198689980Y-82022503D01*
X199166171Y-81974884D01*
X199118552Y-82022503D01*
X199070933Y-82117741D01*
X199070933Y-82355837D01*
X199118552Y-82451075D01*
X199166171Y-82498694D01*
X199261409Y-82546313D01*
X199499504Y-82546313D01*
X199594742Y-82498694D01*
X199642361Y-82451075D01*
X199689980Y-82355837D01*
X199689980Y-82117741D01*
X199642361Y-82022503D01*
X199594742Y-81974884D01*
%TO.C,L1*%
X137866380Y-76541333D02*
X137866380Y-76065142D01*
X136866380Y-76065142D01*
X137866380Y-77398476D02*
X137866380Y-76827047D01*
X137866380Y-77112761D02*
X136866380Y-77112761D01*
X137009238Y-77017523D01*
X137104476Y-76922285D01*
X137152095Y-76827047D01*
%TO.C,D3*%
X135726657Y-86155904D02*
X134726657Y-86155904D01*
X134726657Y-86394000D01*
X134774277Y-86536857D01*
X134869515Y-86632095D01*
X134964753Y-86679714D01*
X135155229Y-86727333D01*
X135298086Y-86727333D01*
X135488562Y-86679714D01*
X135583800Y-86632095D01*
X135679038Y-86536857D01*
X135726657Y-86394000D01*
X135726657Y-86155904D01*
X134726657Y-87060666D02*
X134726657Y-87679714D01*
X135107610Y-87346380D01*
X135107610Y-87489238D01*
X135155229Y-87584476D01*
X135202848Y-87632095D01*
X135298086Y-87679714D01*
X135536181Y-87679714D01*
X135631419Y-87632095D01*
X135679038Y-87584476D01*
X135726657Y-87489238D01*
X135726657Y-87203523D01*
X135679038Y-87108285D01*
X135631419Y-87060666D01*
%TO.C,C14*%
X147775142Y-68953142D02*
X147822761Y-68905523D01*
X147870380Y-68762666D01*
X147870380Y-68667428D01*
X147822761Y-68524571D01*
X147727523Y-68429333D01*
X147632285Y-68381714D01*
X147441809Y-68334095D01*
X147298952Y-68334095D01*
X147108476Y-68381714D01*
X147013238Y-68429333D01*
X146918000Y-68524571D01*
X146870380Y-68667428D01*
X146870380Y-68762666D01*
X146918000Y-68905523D01*
X146965619Y-68953142D01*
X147870380Y-69905523D02*
X147870380Y-69334095D01*
X147870380Y-69619809D02*
X146870380Y-69619809D01*
X147013238Y-69524571D01*
X147108476Y-69429333D01*
X147156095Y-69334095D01*
X147203714Y-70762666D02*
X147870380Y-70762666D01*
X146822761Y-70524571D02*
X147537047Y-70286476D01*
X147537047Y-70905523D01*
%TO.C,C6*%
X153392142Y-75969833D02*
X153439761Y-75922214D01*
X153487380Y-75779357D01*
X153487380Y-75684119D01*
X153439761Y-75541261D01*
X153344523Y-75446023D01*
X153249285Y-75398404D01*
X153058809Y-75350785D01*
X152915952Y-75350785D01*
X152725476Y-75398404D01*
X152630238Y-75446023D01*
X152535000Y-75541261D01*
X152487380Y-75684119D01*
X152487380Y-75779357D01*
X152535000Y-75922214D01*
X152582619Y-75969833D01*
X152487380Y-76826976D02*
X152487380Y-76636500D01*
X152535000Y-76541261D01*
X152582619Y-76493642D01*
X152725476Y-76398404D01*
X152915952Y-76350785D01*
X153296904Y-76350785D01*
X153392142Y-76398404D01*
X153439761Y-76446023D01*
X153487380Y-76541261D01*
X153487380Y-76731738D01*
X153439761Y-76826976D01*
X153392142Y-76874595D01*
X153296904Y-76922214D01*
X153058809Y-76922214D01*
X152963571Y-76874595D01*
X152915952Y-76826976D01*
X152868333Y-76731738D01*
X152868333Y-76541261D01*
X152915952Y-76446023D01*
X152963571Y-76398404D01*
X153058809Y-76350785D01*
%TO.C,C5*%
X147994666Y-86463142D02*
X148042285Y-86510761D01*
X148185142Y-86558380D01*
X148280380Y-86558380D01*
X148423238Y-86510761D01*
X148518476Y-86415523D01*
X148566095Y-86320285D01*
X148613714Y-86129809D01*
X148613714Y-85986952D01*
X148566095Y-85796476D01*
X148518476Y-85701238D01*
X148423238Y-85606000D01*
X148280380Y-85558380D01*
X148185142Y-85558380D01*
X148042285Y-85606000D01*
X147994666Y-85653619D01*
X147089904Y-85558380D02*
X147566095Y-85558380D01*
X147613714Y-86034571D01*
X147566095Y-85986952D01*
X147470857Y-85939333D01*
X147232761Y-85939333D01*
X147137523Y-85986952D01*
X147089904Y-86034571D01*
X147042285Y-86129809D01*
X147042285Y-86367904D01*
X147089904Y-86463142D01*
X147137523Y-86510761D01*
X147232761Y-86558380D01*
X147470857Y-86558380D01*
X147566095Y-86510761D01*
X147613714Y-86463142D01*
%TD*%
M02*
