%TF.GenerationSoftware,KiCad,Pcbnew,(5.1.10-1-10_14)*%
%TF.CreationDate,2022-08-23T11:05:15+02:00*%
%TF.ProjectId,RO Flow Counter,524f2046-6c6f-4772-9043-6f756e746572,rev?*%
%TF.SameCoordinates,Original*%
%TF.FileFunction,Legend,Bot*%
%TF.FilePolarity,Positive*%
%FSLAX46Y46*%
G04 Gerber Fmt 4.6, Leading zero omitted, Abs format (unit mm)*
G04 Created by KiCad (PCBNEW (5.1.10-1-10_14)) date 2022-08-23 11:05:15*
%MOMM*%
%LPD*%
G01*
G04 APERTURE LIST*
%ADD10C,0.150000*%
%ADD11C,0.375000*%
%ADD12C,0.120000*%
G04 APERTURE END LIST*
D10*
X154844595Y-81748380D02*
X154225547Y-81748380D01*
X154558880Y-82129333D01*
X154416023Y-82129333D01*
X154320785Y-82176952D01*
X154273166Y-82224571D01*
X154225547Y-82319809D01*
X154225547Y-82557904D01*
X154273166Y-82653142D01*
X154320785Y-82700761D01*
X154416023Y-82748380D01*
X154701738Y-82748380D01*
X154796976Y-82700761D01*
X154844595Y-82653142D01*
X153939833Y-81748380D02*
X153606500Y-82748380D01*
X153273166Y-81748380D01*
X153035071Y-81748380D02*
X152416023Y-81748380D01*
X152749357Y-82129333D01*
X152606500Y-82129333D01*
X152511261Y-82176952D01*
X152463642Y-82224571D01*
X152416023Y-82319809D01*
X152416023Y-82557904D01*
X152463642Y-82653142D01*
X152511261Y-82700761D01*
X152606500Y-82748380D01*
X152892214Y-82748380D01*
X152987452Y-82700761D01*
X153035071Y-82653142D01*
X154622404Y-92210000D02*
X154717642Y-92162380D01*
X154860500Y-92162380D01*
X155003357Y-92210000D01*
X155098595Y-92305238D01*
X155146214Y-92400476D01*
X155193833Y-92590952D01*
X155193833Y-92733809D01*
X155146214Y-92924285D01*
X155098595Y-93019523D01*
X155003357Y-93114761D01*
X154860500Y-93162380D01*
X154765261Y-93162380D01*
X154622404Y-93114761D01*
X154574785Y-93067142D01*
X154574785Y-92733809D01*
X154765261Y-92733809D01*
X154146214Y-93162380D02*
X154146214Y-92162380D01*
X153574785Y-93162380D01*
X153574785Y-92162380D01*
X153098595Y-93162380D02*
X153098595Y-92162380D01*
X152860500Y-92162380D01*
X152717642Y-92210000D01*
X152622404Y-92305238D01*
X152574785Y-92400476D01*
X152527166Y-92590952D01*
X152527166Y-92733809D01*
X152574785Y-92924285D01*
X152622404Y-93019523D01*
X152717642Y-93114761D01*
X152860500Y-93162380D01*
X153098595Y-93162380D01*
X155860595Y-90431880D02*
X156193928Y-89955690D01*
X156432023Y-90431880D02*
X156432023Y-89431880D01*
X156051071Y-89431880D01*
X155955833Y-89479500D01*
X155908214Y-89527119D01*
X155860595Y-89622357D01*
X155860595Y-89765214D01*
X155908214Y-89860452D01*
X155955833Y-89908071D01*
X156051071Y-89955690D01*
X156432023Y-89955690D01*
X155051071Y-90384261D02*
X155146309Y-90431880D01*
X155336785Y-90431880D01*
X155432023Y-90384261D01*
X155479642Y-90289023D01*
X155479642Y-89908071D01*
X155432023Y-89812833D01*
X155336785Y-89765214D01*
X155146309Y-89765214D01*
X155051071Y-89812833D01*
X155003452Y-89908071D01*
X155003452Y-90003309D01*
X155479642Y-90098547D01*
X154622500Y-90384261D02*
X154527261Y-90431880D01*
X154336785Y-90431880D01*
X154241547Y-90384261D01*
X154193928Y-90289023D01*
X154193928Y-90241404D01*
X154241547Y-90146166D01*
X154336785Y-90098547D01*
X154479642Y-90098547D01*
X154574880Y-90050928D01*
X154622500Y-89955690D01*
X154622500Y-89908071D01*
X154574880Y-89812833D01*
X154479642Y-89765214D01*
X154336785Y-89765214D01*
X154241547Y-89812833D01*
X153384404Y-90384261D02*
X153479642Y-90431880D01*
X153670119Y-90431880D01*
X153765357Y-90384261D01*
X153812976Y-90289023D01*
X153812976Y-89908071D01*
X153765357Y-89812833D01*
X153670119Y-89765214D01*
X153479642Y-89765214D01*
X153384404Y-89812833D01*
X153336785Y-89908071D01*
X153336785Y-90003309D01*
X153812976Y-90098547D01*
X153051071Y-89765214D02*
X152670119Y-89765214D01*
X152908214Y-89431880D02*
X152908214Y-90289023D01*
X152860595Y-90384261D01*
X152765357Y-90431880D01*
X152670119Y-90431880D01*
D11*
X187827642Y-61737761D02*
X188327642Y-60785380D01*
X188684785Y-61737761D02*
X188684785Y-59737761D01*
X188113357Y-59737761D01*
X187970500Y-59833000D01*
X187899071Y-59928238D01*
X187827642Y-60118714D01*
X187827642Y-60404428D01*
X187899071Y-60594904D01*
X187970500Y-60690142D01*
X188113357Y-60785380D01*
X188684785Y-60785380D01*
X186899071Y-59737761D02*
X186613357Y-59737761D01*
X186470500Y-59833000D01*
X186327642Y-60023476D01*
X186256214Y-60404428D01*
X186256214Y-61071095D01*
X186327642Y-61452047D01*
X186470500Y-61642523D01*
X186613357Y-61737761D01*
X186899071Y-61737761D01*
X187041928Y-61642523D01*
X187184785Y-61452047D01*
X187256214Y-61071095D01*
X187256214Y-60404428D01*
X187184785Y-60023476D01*
X187041928Y-59833000D01*
X186899071Y-59737761D01*
X183970500Y-60690142D02*
X184470500Y-60690142D01*
X184470500Y-61737761D02*
X184470500Y-59737761D01*
X183756214Y-59737761D01*
X182970500Y-61737761D02*
X183113357Y-61642523D01*
X183184785Y-61452047D01*
X183184785Y-59737761D01*
X182184785Y-61737761D02*
X182327642Y-61642523D01*
X182399071Y-61547285D01*
X182470500Y-61356809D01*
X182470500Y-60785380D01*
X182399071Y-60594904D01*
X182327642Y-60499666D01*
X182184785Y-60404428D01*
X181970500Y-60404428D01*
X181827642Y-60499666D01*
X181756214Y-60594904D01*
X181684785Y-60785380D01*
X181684785Y-61356809D01*
X181756214Y-61547285D01*
X181827642Y-61642523D01*
X181970500Y-61737761D01*
X182184785Y-61737761D01*
X181184785Y-60404428D02*
X180899071Y-61737761D01*
X180613357Y-60785380D01*
X180327642Y-61737761D01*
X180041928Y-60404428D01*
X177684785Y-61642523D02*
X177827642Y-61737761D01*
X178113357Y-61737761D01*
X178256214Y-61642523D01*
X178327642Y-61547285D01*
X178399071Y-61356809D01*
X178399071Y-60785380D01*
X178327642Y-60594904D01*
X178256214Y-60499666D01*
X178113357Y-60404428D01*
X177827642Y-60404428D01*
X177684785Y-60499666D01*
X176827642Y-61737761D02*
X176970500Y-61642523D01*
X177041928Y-61547285D01*
X177113357Y-61356809D01*
X177113357Y-60785380D01*
X177041928Y-60594904D01*
X176970500Y-60499666D01*
X176827642Y-60404428D01*
X176613357Y-60404428D01*
X176470500Y-60499666D01*
X176399071Y-60594904D01*
X176327642Y-60785380D01*
X176327642Y-61356809D01*
X176399071Y-61547285D01*
X176470500Y-61642523D01*
X176613357Y-61737761D01*
X176827642Y-61737761D01*
X175041928Y-60404428D02*
X175041928Y-61737761D01*
X175684785Y-60404428D02*
X175684785Y-61452047D01*
X175613357Y-61642523D01*
X175470500Y-61737761D01*
X175256214Y-61737761D01*
X175113357Y-61642523D01*
X175041928Y-61547285D01*
X174327642Y-60404428D02*
X174327642Y-61737761D01*
X174327642Y-60594904D02*
X174256214Y-60499666D01*
X174113357Y-60404428D01*
X173899071Y-60404428D01*
X173756214Y-60499666D01*
X173684785Y-60690142D01*
X173684785Y-61737761D01*
X173184785Y-60404428D02*
X172613357Y-60404428D01*
X172970500Y-59737761D02*
X172970500Y-61452047D01*
X172899071Y-61642523D01*
X172756214Y-61737761D01*
X172613357Y-61737761D01*
X171541928Y-61642523D02*
X171684785Y-61737761D01*
X171970500Y-61737761D01*
X172113357Y-61642523D01*
X172184785Y-61452047D01*
X172184785Y-60690142D01*
X172113357Y-60499666D01*
X171970500Y-60404428D01*
X171684785Y-60404428D01*
X171541928Y-60499666D01*
X171470500Y-60690142D01*
X171470500Y-60880619D01*
X172184785Y-61071095D01*
X170827642Y-61737761D02*
X170827642Y-60404428D01*
X170827642Y-60785380D02*
X170756214Y-60594904D01*
X170684785Y-60499666D01*
X170541928Y-60404428D01*
X170399071Y-60404428D01*
X168899071Y-60404428D02*
X168541928Y-61737761D01*
X168184785Y-60404428D01*
X167327642Y-59737761D02*
X167184785Y-59737761D01*
X167041928Y-59833000D01*
X166970500Y-59928238D01*
X166899071Y-60118714D01*
X166827642Y-60499666D01*
X166827642Y-60975857D01*
X166899071Y-61356809D01*
X166970500Y-61547285D01*
X167041928Y-61642523D01*
X167184785Y-61737761D01*
X167327642Y-61737761D01*
X167470500Y-61642523D01*
X167541928Y-61547285D01*
X167613357Y-61356809D01*
X167684785Y-60975857D01*
X167684785Y-60499666D01*
X167613357Y-60118714D01*
X167541928Y-59928238D01*
X167470500Y-59833000D01*
X167327642Y-59737761D01*
X166184785Y-61547285D02*
X166113357Y-61642523D01*
X166184785Y-61737761D01*
X166256214Y-61642523D01*
X166184785Y-61547285D01*
X166184785Y-61737761D01*
X165541928Y-59928238D02*
X165470500Y-59833000D01*
X165327642Y-59737761D01*
X164970500Y-59737761D01*
X164827642Y-59833000D01*
X164756214Y-59928238D01*
X164684785Y-60118714D01*
X164684785Y-60309190D01*
X164756214Y-60594904D01*
X165613357Y-61737761D01*
X164684785Y-61737761D01*
D10*
X153447738Y-87955380D02*
X153781071Y-87479190D01*
X154019166Y-87955380D02*
X154019166Y-86955380D01*
X153638214Y-86955380D01*
X153542976Y-87003000D01*
X153495357Y-87050619D01*
X153447738Y-87145857D01*
X153447738Y-87288714D01*
X153495357Y-87383952D01*
X153542976Y-87431571D01*
X153638214Y-87479190D01*
X154019166Y-87479190D01*
X153114404Y-87955380D02*
X152590595Y-87288714D01*
X153114404Y-87288714D02*
X152590595Y-87955380D01*
X154233476Y-84351880D02*
X153662047Y-84351880D01*
X153947761Y-85351880D02*
X153947761Y-84351880D01*
X153423952Y-85351880D02*
X152900142Y-84685214D01*
X153423952Y-84685214D02*
X152900142Y-85351880D01*
D12*
%TO.C,C1*%
X198270800Y-82999948D02*
X198270800Y-83522452D01*
X196800800Y-82999948D02*
X196800800Y-83522452D01*
%TO.C,SW4*%
X209287500Y-58936500D02*
X209257500Y-58936500D01*
X202827500Y-58936500D02*
X202857500Y-58936500D01*
X202827500Y-65396500D02*
X202857500Y-65396500D01*
X209257500Y-65396500D02*
X209287500Y-65396500D01*
X207357500Y-58936500D02*
X204757500Y-58936500D01*
X209287500Y-65396500D02*
X209287500Y-58936500D01*
X207357500Y-65396500D02*
X204757500Y-65396500D01*
X202827500Y-65396500D02*
X202827500Y-58936500D01*
%TO.C,SW3*%
X195017000Y-65396500D02*
X195047000Y-65396500D01*
X201477000Y-65396500D02*
X201447000Y-65396500D01*
X201477000Y-58936500D02*
X201447000Y-58936500D01*
X195047000Y-58936500D02*
X195017000Y-58936500D01*
X196947000Y-65396500D02*
X199547000Y-65396500D01*
X195017000Y-58936500D02*
X195017000Y-65396500D01*
X196947000Y-58936500D02*
X199547000Y-58936500D01*
X201477000Y-58936500D02*
X201477000Y-65396500D01*
%TO.C,R22*%
X162711159Y-78231000D02*
X163018441Y-78231000D01*
X162711159Y-77471000D02*
X163018441Y-77471000D01*
%TO.C,R21*%
X162685759Y-82041000D02*
X162993041Y-82041000D01*
X162685759Y-81281000D02*
X162993041Y-81281000D01*
%TO.C,J8*%
X151507500Y-93976500D02*
X148847500Y-93976500D01*
X151507500Y-83756500D02*
X151507500Y-93976500D01*
X148847500Y-83756500D02*
X148847500Y-93976500D01*
X151507500Y-83756500D02*
X148847500Y-83756500D01*
X151507500Y-82486500D02*
X151507500Y-81156500D01*
X151507500Y-81156500D02*
X150177500Y-81156500D01*
%TO.C,R20*%
X175132000Y-101192359D02*
X175132000Y-101499641D01*
X174372000Y-101192359D02*
X174372000Y-101499641D01*
%TO.C,TP9*%
X155382000Y-72136000D02*
G75*
G03*
X155382000Y-72136000I-950000J0D01*
G01*
%TO.C,TP7*%
X140396000Y-72136000D02*
G75*
G03*
X140396000Y-72136000I-950000J0D01*
G01*
%TO.C,R19*%
X156310359Y-69470000D02*
X156617641Y-69470000D01*
X156310359Y-70230000D02*
X156617641Y-70230000D01*
%TO.C,R18*%
X137567641Y-69976000D02*
X137260359Y-69976000D01*
X137567641Y-69216000D02*
X137260359Y-69216000D01*
%TO.C,R17*%
X162967641Y-84454000D02*
X162660359Y-84454000D01*
X162967641Y-83694000D02*
X162660359Y-83694000D01*
%TO.C,R16*%
X162967641Y-85724000D02*
X162660359Y-85724000D01*
X162967641Y-84964000D02*
X162660359Y-84964000D01*
%TO.C,R15*%
X156617641Y-68706000D02*
X156310359Y-68706000D01*
X156617641Y-67946000D02*
X156310359Y-67946000D01*
%TO.C,R8*%
X137258359Y-67946000D02*
X137565641Y-67946000D01*
X137258359Y-68706000D02*
X137565641Y-68706000D01*
%TO.C,D5*%
X138974000Y-70088000D02*
X142874000Y-70088000D01*
X138974000Y-68088000D02*
X142874000Y-68088000D01*
X138974000Y-70088000D02*
X138974000Y-68088000D01*
%TO.C,U2*%
X183364000Y-92666000D02*
X183364000Y-93446000D01*
X183364000Y-93446000D02*
X182364000Y-93446000D01*
X165124000Y-92666000D02*
X165124000Y-93446000D01*
X165124000Y-93446000D02*
X166124000Y-93446000D01*
X183364000Y-67701000D02*
X165124000Y-67701000D01*
X165124000Y-67701000D02*
X165124000Y-74121000D01*
X183364000Y-67701000D02*
X183364000Y-74121000D01*
X183364000Y-74121000D02*
X183744000Y-74121000D01*
%TO.C,R14*%
X207679859Y-67882500D02*
X207987141Y-67882500D01*
X207679859Y-68642500D02*
X207987141Y-68642500D01*
%TO.C,R13*%
X199871359Y-67692000D02*
X200178641Y-67692000D01*
X199871359Y-68452000D02*
X200178641Y-68452000D01*
%TO.C,J6*%
X140656000Y-55028000D02*
X134346000Y-55028000D01*
X134346000Y-55028000D02*
X134346000Y-66748000D01*
X134346000Y-66748000D02*
X135766000Y-66748000D01*
X135766000Y-66748000D02*
X135766000Y-62248000D01*
X140656000Y-55028000D02*
X146966000Y-55028000D01*
X146966000Y-55028000D02*
X146966000Y-66748000D01*
X146966000Y-66748000D02*
X145546000Y-66748000D01*
X145546000Y-66748000D02*
X145546000Y-62248000D01*
X136656000Y-61138000D02*
X136656000Y-55638000D01*
X136656000Y-55638000D02*
X137156000Y-55638000D01*
X137156000Y-55638000D02*
X137156000Y-61138000D01*
X137156000Y-61138000D02*
X136656000Y-61138000D01*
X139156000Y-61138000D02*
X139156000Y-55638000D01*
X139156000Y-55638000D02*
X139656000Y-55638000D01*
X139656000Y-55638000D02*
X139656000Y-61138000D01*
X139656000Y-61138000D02*
X139156000Y-61138000D01*
X141656000Y-61138000D02*
X141656000Y-55638000D01*
X141656000Y-55638000D02*
X142156000Y-55638000D01*
X142156000Y-55638000D02*
X142156000Y-61138000D01*
X142156000Y-61138000D02*
X141656000Y-61138000D01*
X144156000Y-61138000D02*
X144156000Y-55638000D01*
X144156000Y-55638000D02*
X144656000Y-55638000D01*
X144656000Y-55638000D02*
X144656000Y-61138000D01*
X144656000Y-61138000D02*
X144156000Y-61138000D01*
X136906000Y-64238000D02*
X136606000Y-64838000D01*
X136606000Y-64838000D02*
X137206000Y-64838000D01*
X137206000Y-64838000D02*
X136906000Y-64238000D01*
%TO.C,J5*%
X154500000Y-55028000D02*
X149440000Y-55028000D01*
X149440000Y-55028000D02*
X149440000Y-66748000D01*
X149440000Y-66748000D02*
X150860000Y-66748000D01*
X150860000Y-66748000D02*
X150860000Y-62248000D01*
X154500000Y-55028000D02*
X159560000Y-55028000D01*
X159560000Y-55028000D02*
X159560000Y-66748000D01*
X159560000Y-66748000D02*
X158140000Y-66748000D01*
X158140000Y-66748000D02*
X158140000Y-62248000D01*
X151750000Y-61138000D02*
X151750000Y-55638000D01*
X151750000Y-55638000D02*
X152250000Y-55638000D01*
X152250000Y-55638000D02*
X152250000Y-61138000D01*
X152250000Y-61138000D02*
X151750000Y-61138000D01*
X154250000Y-61138000D02*
X154250000Y-55638000D01*
X154250000Y-55638000D02*
X154750000Y-55638000D01*
X154750000Y-55638000D02*
X154750000Y-61138000D01*
X154750000Y-61138000D02*
X154250000Y-61138000D01*
X156750000Y-61138000D02*
X156750000Y-55638000D01*
X156750000Y-55638000D02*
X157250000Y-55638000D01*
X157250000Y-55638000D02*
X157250000Y-61138000D01*
X157250000Y-61138000D02*
X156750000Y-61138000D01*
X152000000Y-64238000D02*
X151700000Y-64838000D01*
X151700000Y-64838000D02*
X152300000Y-64838000D01*
X152300000Y-64838000D02*
X152000000Y-64238000D01*
%TO.C,C19*%
X186328164Y-77068000D02*
X186543836Y-77068000D01*
X186328164Y-76348000D02*
X186543836Y-76348000D01*
%TO.C,TP12*%
X195260000Y-94742000D02*
G75*
G03*
X195260000Y-94742000I-950000J0D01*
G01*
%TO.C,R12*%
X199541642Y-93598000D02*
X199234360Y-93598000D01*
X199541642Y-92838000D02*
X199234360Y-92838000D01*
%TO.C,Q4*%
X197302000Y-89918000D02*
X197302000Y-91378000D01*
X200462000Y-89918000D02*
X200462000Y-92078000D01*
X200462000Y-89918000D02*
X199532000Y-89918000D01*
X197302000Y-89918000D02*
X198232000Y-89918000D01*
%TO.C,TP5*%
X195133000Y-88138000D02*
G75*
G03*
X195133000Y-88138000I-950000J0D01*
G01*
%TO.C,TP3*%
X195133000Y-84010500D02*
G75*
G03*
X195133000Y-84010500I-950000J0D01*
G01*
%TO.C,TP2*%
X195069500Y-79565500D02*
G75*
G03*
X195069500Y-79565500I-950000J0D01*
G01*
%TO.C,R11*%
X205901859Y-77342000D02*
X206209141Y-77342000D01*
X205901859Y-76582000D02*
X206209141Y-76582000D01*
%TO.C,R10*%
X209233500Y-87541858D02*
X209233500Y-87849140D01*
X209993500Y-87541858D02*
X209993500Y-87849140D01*
%TO.C,R9*%
X209993500Y-79147641D02*
X209993500Y-78840359D01*
X209233500Y-79147641D02*
X209233500Y-78840359D01*
%TO.C,D4*%
X155007274Y-67937274D02*
X155007274Y-69937274D01*
X155007274Y-69937274D02*
X151107274Y-69937274D01*
X155007274Y-67937274D02*
X151107274Y-67937274D01*
%TO.C,C18*%
X208703500Y-87829336D02*
X208703500Y-87613664D01*
X207983500Y-87829336D02*
X207983500Y-87613664D01*
%TO.C,C17*%
X208703499Y-78886164D02*
X208703499Y-79101836D01*
X207983499Y-78886164D02*
X207983499Y-79101836D01*
%TO.C,C16*%
X205921664Y-75798000D02*
X206137336Y-75798000D01*
X205921664Y-75078000D02*
X206137336Y-75078000D01*
%TO.C,J3*%
X148600000Y-95100000D02*
X146000000Y-95100000D01*
X148600000Y-109800000D02*
X148600000Y-95100000D01*
X139400000Y-95100000D02*
X139400000Y-97000000D01*
X142100000Y-95100000D02*
X139400000Y-95100000D01*
X139400000Y-109800000D02*
X148600000Y-109800000D01*
X139400000Y-101000000D02*
X139400000Y-109800000D01*
X148800000Y-95950000D02*
X148800000Y-94900000D01*
X147750000Y-94900000D02*
X148800000Y-94900000D01*
%TO.C,R7*%
X178434000Y-97435641D02*
X178434000Y-97128359D01*
X177674000Y-97435641D02*
X177674000Y-97128359D01*
%TO.C,Q3*%
X177798000Y-99258000D02*
X177798000Y-100188000D01*
X177798000Y-102418000D02*
X177798000Y-101488000D01*
X177798000Y-102418000D02*
X175638000Y-102418000D01*
X177798000Y-99258000D02*
X176338000Y-99258000D01*
%TO.C,K1*%
X196342000Y-102108000D02*
X199132000Y-103508000D01*
X198882000Y-99568000D02*
X198882000Y-100838000D01*
X191262000Y-99568000D02*
X191262000Y-102108000D01*
X191262000Y-102108000D02*
X196342000Y-102108000D01*
X183132000Y-101348000D02*
X184152000Y-102358000D01*
X183642000Y-105918000D02*
X182372000Y-105918000D01*
X183642000Y-103128000D02*
X183642000Y-105918000D01*
X183642000Y-98298000D02*
X183642000Y-100588000D01*
X182372000Y-98298000D02*
X183642000Y-98298000D01*
X183642000Y-100588000D02*
X183132000Y-100588000D01*
X183132000Y-100588000D02*
X183132000Y-103128000D01*
X183132000Y-103128000D02*
X183642000Y-103128000D01*
X183642000Y-103128000D02*
X184152000Y-103128000D01*
X184152000Y-103128000D02*
X184152000Y-100588000D01*
X184152000Y-100588000D02*
X183642000Y-100588000D01*
X179422000Y-96608000D02*
X200562000Y-96608000D01*
X200562000Y-96608000D02*
X200562000Y-107608000D01*
X179422000Y-96608000D02*
X179422000Y-107608000D01*
X179422000Y-107608000D02*
X200562000Y-107608000D01*
X196472000Y-102108000D02*
G75*
G03*
X196472000Y-102108000I-130000J0D01*
G01*
%TO.C,U1*%
X140714277Y-80894000D02*
X140714277Y-77444000D01*
X140714277Y-80894000D02*
X140714277Y-82844000D01*
X145834277Y-80894000D02*
X145834277Y-78944000D01*
X145834277Y-80894000D02*
X145834277Y-82844000D01*
%TO.C,TP1*%
X140459500Y-75184000D02*
G75*
G03*
X140459500Y-75184000I-950000J0D01*
G01*
%TO.C,R5*%
X199617600Y-83765959D02*
X199617600Y-84073241D01*
X198857600Y-83765959D02*
X198857600Y-84073241D01*
%TO.C,L1*%
X135564278Y-82280252D02*
X135564278Y-79507748D01*
X138984278Y-82280252D02*
X138984278Y-79507748D01*
%TO.C,D3*%
X136274277Y-84644000D02*
X136274277Y-88544000D01*
X138274277Y-84644000D02*
X138274277Y-88544000D01*
X136274277Y-84644000D02*
X138274277Y-84644000D01*
%TO.C,C14*%
X149833000Y-69334748D02*
X149833000Y-69857252D01*
X148363000Y-69334748D02*
X148363000Y-69857252D01*
%TO.C,C6*%
X151331000Y-79790775D02*
X150831000Y-79790775D01*
X151081000Y-80040775D02*
X151081000Y-79540775D01*
X149890000Y-74635000D02*
X149322000Y-74635000D01*
X150124000Y-74675000D02*
X149088000Y-74675000D01*
X150283000Y-74715000D02*
X148929000Y-74715000D01*
X150411000Y-74755000D02*
X148801000Y-74755000D01*
X150521000Y-74795000D02*
X148691000Y-74795000D01*
X150617000Y-74835000D02*
X148595000Y-74835000D01*
X150704000Y-74875000D02*
X148508000Y-74875000D01*
X150784000Y-74915000D02*
X148428000Y-74915000D01*
X148566000Y-74955000D02*
X148355000Y-74955000D01*
X150857000Y-74955000D02*
X150646000Y-74955000D01*
X148566000Y-74995000D02*
X148287000Y-74995000D01*
X150925000Y-74995000D02*
X150646000Y-74995000D01*
X148566000Y-75035000D02*
X148223000Y-75035000D01*
X150989000Y-75035000D02*
X150646000Y-75035000D01*
X148566000Y-75075000D02*
X148163000Y-75075000D01*
X151049000Y-75075000D02*
X150646000Y-75075000D01*
X148566000Y-75115000D02*
X148106000Y-75115000D01*
X151106000Y-75115000D02*
X150646000Y-75115000D01*
X148566000Y-75155000D02*
X148052000Y-75155000D01*
X151160000Y-75155000D02*
X150646000Y-75155000D01*
X148566000Y-75195000D02*
X148001000Y-75195000D01*
X151211000Y-75195000D02*
X150646000Y-75195000D01*
X148566000Y-75235000D02*
X147953000Y-75235000D01*
X151259000Y-75235000D02*
X150646000Y-75235000D01*
X148566000Y-75275000D02*
X147907000Y-75275000D01*
X151305000Y-75275000D02*
X150646000Y-75275000D01*
X148566000Y-75315000D02*
X147863000Y-75315000D01*
X151349000Y-75315000D02*
X150646000Y-75315000D01*
X148566000Y-75355000D02*
X147821000Y-75355000D01*
X151391000Y-75355000D02*
X150646000Y-75355000D01*
X148566000Y-75395000D02*
X147780000Y-75395000D01*
X151432000Y-75395000D02*
X150646000Y-75395000D01*
X148566000Y-75435000D02*
X147742000Y-75435000D01*
X151470000Y-75435000D02*
X150646000Y-75435000D01*
X148566000Y-75475000D02*
X147705000Y-75475000D01*
X151507000Y-75475000D02*
X150646000Y-75475000D01*
X148566000Y-75515000D02*
X147669000Y-75515000D01*
X151543000Y-75515000D02*
X150646000Y-75515000D01*
X148566000Y-75555000D02*
X147635000Y-75555000D01*
X151577000Y-75555000D02*
X150646000Y-75555000D01*
X148566000Y-75595000D02*
X147602000Y-75595000D01*
X151610000Y-75595000D02*
X150646000Y-75595000D01*
X148566000Y-75635000D02*
X147571000Y-75635000D01*
X151641000Y-75635000D02*
X150646000Y-75635000D01*
X148566000Y-75675000D02*
X147541000Y-75675000D01*
X151671000Y-75675000D02*
X150646000Y-75675000D01*
X148566000Y-75715000D02*
X147511000Y-75715000D01*
X151701000Y-75715000D02*
X150646000Y-75715000D01*
X148566000Y-75755000D02*
X147484000Y-75755000D01*
X151728000Y-75755000D02*
X150646000Y-75755000D01*
X148566000Y-75795000D02*
X147457000Y-75795000D01*
X151755000Y-75795000D02*
X150646000Y-75795000D01*
X148566000Y-75835000D02*
X147431000Y-75835000D01*
X151781000Y-75835000D02*
X150646000Y-75835000D01*
X148566000Y-75875000D02*
X147406000Y-75875000D01*
X151806000Y-75875000D02*
X150646000Y-75875000D01*
X148566000Y-75915000D02*
X147382000Y-75915000D01*
X151830000Y-75915000D02*
X150646000Y-75915000D01*
X148566000Y-75955000D02*
X147359000Y-75955000D01*
X151853000Y-75955000D02*
X150646000Y-75955000D01*
X148566000Y-75995000D02*
X147338000Y-75995000D01*
X151874000Y-75995000D02*
X150646000Y-75995000D01*
X148566000Y-76035000D02*
X147316000Y-76035000D01*
X151896000Y-76035000D02*
X150646000Y-76035000D01*
X148566000Y-76075000D02*
X147296000Y-76075000D01*
X151916000Y-76075000D02*
X150646000Y-76075000D01*
X148566000Y-76115000D02*
X147277000Y-76115000D01*
X151935000Y-76115000D02*
X150646000Y-76115000D01*
X148566000Y-76155000D02*
X147258000Y-76155000D01*
X151954000Y-76155000D02*
X150646000Y-76155000D01*
X148566000Y-76195000D02*
X147241000Y-76195000D01*
X151971000Y-76195000D02*
X150646000Y-76195000D01*
X148566000Y-76235000D02*
X147224000Y-76235000D01*
X151988000Y-76235000D02*
X150646000Y-76235000D01*
X148566000Y-76275000D02*
X147208000Y-76275000D01*
X152004000Y-76275000D02*
X150646000Y-76275000D01*
X148566000Y-76315000D02*
X147192000Y-76315000D01*
X152020000Y-76315000D02*
X150646000Y-76315000D01*
X148566000Y-76355000D02*
X147178000Y-76355000D01*
X152034000Y-76355000D02*
X150646000Y-76355000D01*
X148566000Y-76395000D02*
X147164000Y-76395000D01*
X152048000Y-76395000D02*
X150646000Y-76395000D01*
X148566000Y-76435000D02*
X147151000Y-76435000D01*
X152061000Y-76435000D02*
X150646000Y-76435000D01*
X148566000Y-76475000D02*
X147138000Y-76475000D01*
X152074000Y-76475000D02*
X150646000Y-76475000D01*
X148566000Y-76515000D02*
X147126000Y-76515000D01*
X152086000Y-76515000D02*
X150646000Y-76515000D01*
X148566000Y-76556000D02*
X147115000Y-76556000D01*
X152097000Y-76556000D02*
X150646000Y-76556000D01*
X148566000Y-76596000D02*
X147105000Y-76596000D01*
X152107000Y-76596000D02*
X150646000Y-76596000D01*
X148566000Y-76636000D02*
X147095000Y-76636000D01*
X152117000Y-76636000D02*
X150646000Y-76636000D01*
X148566000Y-76676000D02*
X147086000Y-76676000D01*
X152126000Y-76676000D02*
X150646000Y-76676000D01*
X148566000Y-76716000D02*
X147078000Y-76716000D01*
X152134000Y-76716000D02*
X150646000Y-76716000D01*
X148566000Y-76756000D02*
X147070000Y-76756000D01*
X152142000Y-76756000D02*
X150646000Y-76756000D01*
X148566000Y-76796000D02*
X147063000Y-76796000D01*
X152149000Y-76796000D02*
X150646000Y-76796000D01*
X148566000Y-76836000D02*
X147056000Y-76836000D01*
X152156000Y-76836000D02*
X150646000Y-76836000D01*
X148566000Y-76876000D02*
X147050000Y-76876000D01*
X152162000Y-76876000D02*
X150646000Y-76876000D01*
X148566000Y-76916000D02*
X147045000Y-76916000D01*
X152167000Y-76916000D02*
X150646000Y-76916000D01*
X148566000Y-76956000D02*
X147041000Y-76956000D01*
X152171000Y-76956000D02*
X150646000Y-76956000D01*
X148566000Y-76996000D02*
X147037000Y-76996000D01*
X152175000Y-76996000D02*
X150646000Y-76996000D01*
X152179000Y-77036000D02*
X147033000Y-77036000D01*
X152182000Y-77076000D02*
X147030000Y-77076000D01*
X152184000Y-77116000D02*
X147028000Y-77116000D01*
X152185000Y-77156000D02*
X147027000Y-77156000D01*
X152186000Y-77196000D02*
X147026000Y-77196000D01*
X152186000Y-77236000D02*
X147026000Y-77236000D01*
X152226000Y-77236000D02*
G75*
G03*
X152226000Y-77236000I-2620000J0D01*
G01*
%TO.C,C5*%
X146586777Y-86896501D02*
X146586777Y-87521501D01*
X146899277Y-87209001D02*
X146274277Y-87209001D01*
X146034277Y-90589564D02*
X144969840Y-91654001D01*
X146034277Y-87198438D02*
X144969840Y-86134001D01*
X146034277Y-87198438D02*
X146034277Y-87834001D01*
X146034277Y-90589564D02*
X146034277Y-89954001D01*
X144969840Y-91654001D02*
X140514277Y-91654001D01*
X144969840Y-86134001D02*
X140514277Y-86134001D01*
X140514277Y-86134001D02*
X140514277Y-87834001D01*
X140514277Y-91654001D02*
X140514277Y-89954001D01*
%TO.C,C1*%
D10*
X196292742Y-81875333D02*
X196340361Y-81827714D01*
X196387980Y-81684857D01*
X196387980Y-81589619D01*
X196340361Y-81446761D01*
X196245123Y-81351523D01*
X196149885Y-81303904D01*
X195959409Y-81256285D01*
X195816552Y-81256285D01*
X195626076Y-81303904D01*
X195530838Y-81351523D01*
X195435600Y-81446761D01*
X195387980Y-81589619D01*
X195387980Y-81684857D01*
X195435600Y-81827714D01*
X195483219Y-81875333D01*
X196387980Y-82827714D02*
X196387980Y-82256285D01*
X196387980Y-82542000D02*
X195387980Y-82542000D01*
X195530838Y-82446761D01*
X195626076Y-82351523D01*
X195673695Y-82256285D01*
%TO.C,SW4*%
X210304071Y-58325214D02*
X210304071Y-57991880D01*
X210827880Y-57991880D02*
X209827880Y-57991880D01*
X209827880Y-58468071D01*
X210827880Y-58991880D02*
X210780261Y-58896642D01*
X210685023Y-58849023D01*
X209827880Y-58849023D01*
X210827880Y-59801404D02*
X210304071Y-59801404D01*
X210208833Y-59753785D01*
X210161214Y-59658547D01*
X210161214Y-59468071D01*
X210208833Y-59372833D01*
X210780261Y-59801404D02*
X210827880Y-59706166D01*
X210827880Y-59468071D01*
X210780261Y-59372833D01*
X210685023Y-59325214D01*
X210589785Y-59325214D01*
X210494547Y-59372833D01*
X210446928Y-59468071D01*
X210446928Y-59706166D01*
X210399309Y-59801404D01*
X210780261Y-60229976D02*
X210827880Y-60325214D01*
X210827880Y-60515690D01*
X210780261Y-60610928D01*
X210685023Y-60658547D01*
X210637404Y-60658547D01*
X210542166Y-60610928D01*
X210494547Y-60515690D01*
X210494547Y-60372833D01*
X210446928Y-60277595D01*
X210351690Y-60229976D01*
X210304071Y-60229976D01*
X210208833Y-60277595D01*
X210161214Y-60372833D01*
X210161214Y-60515690D01*
X210208833Y-60610928D01*
X210827880Y-61087119D02*
X209827880Y-61087119D01*
X210827880Y-61515690D02*
X210304071Y-61515690D01*
X210208833Y-61468071D01*
X210161214Y-61372833D01*
X210161214Y-61229976D01*
X210208833Y-61134738D01*
X210256452Y-61087119D01*
X210827880Y-62753785D02*
X209827880Y-62753785D01*
X210542166Y-63087119D01*
X209827880Y-63420452D01*
X210827880Y-63420452D01*
X210827880Y-64039500D02*
X210780261Y-63944261D01*
X210732642Y-63896642D01*
X210637404Y-63849023D01*
X210351690Y-63849023D01*
X210256452Y-63896642D01*
X210208833Y-63944261D01*
X210161214Y-64039500D01*
X210161214Y-64182357D01*
X210208833Y-64277595D01*
X210256452Y-64325214D01*
X210351690Y-64372833D01*
X210637404Y-64372833D01*
X210732642Y-64325214D01*
X210780261Y-64277595D01*
X210827880Y-64182357D01*
X210827880Y-64039500D01*
X210827880Y-65229976D02*
X209827880Y-65229976D01*
X210780261Y-65229976D02*
X210827880Y-65134738D01*
X210827880Y-64944261D01*
X210780261Y-64849023D01*
X210732642Y-64801404D01*
X210637404Y-64753785D01*
X210351690Y-64753785D01*
X210256452Y-64801404D01*
X210208833Y-64849023D01*
X210161214Y-64944261D01*
X210161214Y-65134738D01*
X210208833Y-65229976D01*
X210780261Y-66087119D02*
X210827880Y-65991880D01*
X210827880Y-65801404D01*
X210780261Y-65706166D01*
X210685023Y-65658547D01*
X210304071Y-65658547D01*
X210208833Y-65706166D01*
X210161214Y-65801404D01*
X210161214Y-65991880D01*
X210208833Y-66087119D01*
X210304071Y-66134738D01*
X210399309Y-66134738D01*
X210494547Y-65658547D01*
%TO.C,SW3*%
X194508380Y-60356904D02*
X194032190Y-60023571D01*
X194508380Y-59785476D02*
X193508380Y-59785476D01*
X193508380Y-60166428D01*
X193556000Y-60261666D01*
X193603619Y-60309285D01*
X193698857Y-60356904D01*
X193841714Y-60356904D01*
X193936952Y-60309285D01*
X193984571Y-60261666D01*
X194032190Y-60166428D01*
X194032190Y-59785476D01*
X194460761Y-61166428D02*
X194508380Y-61071190D01*
X194508380Y-60880714D01*
X194460761Y-60785476D01*
X194365523Y-60737857D01*
X193984571Y-60737857D01*
X193889333Y-60785476D01*
X193841714Y-60880714D01*
X193841714Y-61071190D01*
X193889333Y-61166428D01*
X193984571Y-61214047D01*
X194079809Y-61214047D01*
X194175047Y-60737857D01*
X194460761Y-61595000D02*
X194508380Y-61690238D01*
X194508380Y-61880714D01*
X194460761Y-61975952D01*
X194365523Y-62023571D01*
X194317904Y-62023571D01*
X194222666Y-61975952D01*
X194175047Y-61880714D01*
X194175047Y-61737857D01*
X194127428Y-61642619D01*
X194032190Y-61595000D01*
X193984571Y-61595000D01*
X193889333Y-61642619D01*
X193841714Y-61737857D01*
X193841714Y-61880714D01*
X193889333Y-61975952D01*
X194460761Y-62833095D02*
X194508380Y-62737857D01*
X194508380Y-62547380D01*
X194460761Y-62452142D01*
X194365523Y-62404523D01*
X193984571Y-62404523D01*
X193889333Y-62452142D01*
X193841714Y-62547380D01*
X193841714Y-62737857D01*
X193889333Y-62833095D01*
X193984571Y-62880714D01*
X194079809Y-62880714D01*
X194175047Y-62404523D01*
X193841714Y-63166428D02*
X193841714Y-63547380D01*
X193508380Y-63309285D02*
X194365523Y-63309285D01*
X194460761Y-63356904D01*
X194508380Y-63452142D01*
X194508380Y-63547380D01*
%TO.C,R22*%
X163456857Y-77160380D02*
X163790190Y-76684190D01*
X164028285Y-77160380D02*
X164028285Y-76160380D01*
X163647333Y-76160380D01*
X163552095Y-76208000D01*
X163504476Y-76255619D01*
X163456857Y-76350857D01*
X163456857Y-76493714D01*
X163504476Y-76588952D01*
X163552095Y-76636571D01*
X163647333Y-76684190D01*
X164028285Y-76684190D01*
X163075904Y-76255619D02*
X163028285Y-76208000D01*
X162933047Y-76160380D01*
X162694952Y-76160380D01*
X162599714Y-76208000D01*
X162552095Y-76255619D01*
X162504476Y-76350857D01*
X162504476Y-76446095D01*
X162552095Y-76588952D01*
X163123523Y-77160380D01*
X162504476Y-77160380D01*
X162123523Y-76255619D02*
X162075904Y-76208000D01*
X161980666Y-76160380D01*
X161742571Y-76160380D01*
X161647333Y-76208000D01*
X161599714Y-76255619D01*
X161552095Y-76350857D01*
X161552095Y-76446095D01*
X161599714Y-76588952D01*
X162171142Y-77160380D01*
X161552095Y-77160380D01*
%TO.C,R21*%
X161043857Y-81478380D02*
X161377190Y-81002190D01*
X161615285Y-81478380D02*
X161615285Y-80478380D01*
X161234333Y-80478380D01*
X161139095Y-80526000D01*
X161091476Y-80573619D01*
X161043857Y-80668857D01*
X161043857Y-80811714D01*
X161091476Y-80906952D01*
X161139095Y-80954571D01*
X161234333Y-81002190D01*
X161615285Y-81002190D01*
X160662904Y-80573619D02*
X160615285Y-80526000D01*
X160520047Y-80478380D01*
X160281952Y-80478380D01*
X160186714Y-80526000D01*
X160139095Y-80573619D01*
X160091476Y-80668857D01*
X160091476Y-80764095D01*
X160139095Y-80906952D01*
X160710523Y-81478380D01*
X160091476Y-81478380D01*
X159139095Y-81478380D02*
X159710523Y-81478380D01*
X159424809Y-81478380D02*
X159424809Y-80478380D01*
X159520047Y-80621238D01*
X159615285Y-80716476D01*
X159710523Y-80764095D01*
%TO.C,J8*%
X147907333Y-80922880D02*
X147907333Y-81637166D01*
X147954952Y-81780023D01*
X148050190Y-81875261D01*
X148193047Y-81922880D01*
X148288285Y-81922880D01*
X147288285Y-81351452D02*
X147383523Y-81303833D01*
X147431142Y-81256214D01*
X147478761Y-81160976D01*
X147478761Y-81113357D01*
X147431142Y-81018119D01*
X147383523Y-80970500D01*
X147288285Y-80922880D01*
X147097809Y-80922880D01*
X147002571Y-80970500D01*
X146954952Y-81018119D01*
X146907333Y-81113357D01*
X146907333Y-81160976D01*
X146954952Y-81256214D01*
X147002571Y-81303833D01*
X147097809Y-81351452D01*
X147288285Y-81351452D01*
X147383523Y-81399071D01*
X147431142Y-81446690D01*
X147478761Y-81541928D01*
X147478761Y-81732404D01*
X147431142Y-81827642D01*
X147383523Y-81875261D01*
X147288285Y-81922880D01*
X147097809Y-81922880D01*
X147002571Y-81875261D01*
X146954952Y-81827642D01*
X146907333Y-81732404D01*
X146907333Y-81541928D01*
X146954952Y-81446690D01*
X147002571Y-81399071D01*
X147097809Y-81351452D01*
%TO.C,R20*%
X175204380Y-103243142D02*
X174728190Y-102909809D01*
X175204380Y-102671714D02*
X174204380Y-102671714D01*
X174204380Y-103052666D01*
X174252000Y-103147904D01*
X174299619Y-103195523D01*
X174394857Y-103243142D01*
X174537714Y-103243142D01*
X174632952Y-103195523D01*
X174680571Y-103147904D01*
X174728190Y-103052666D01*
X174728190Y-102671714D01*
X174299619Y-103624095D02*
X174252000Y-103671714D01*
X174204380Y-103766952D01*
X174204380Y-104005047D01*
X174252000Y-104100285D01*
X174299619Y-104147904D01*
X174394857Y-104195523D01*
X174490095Y-104195523D01*
X174632952Y-104147904D01*
X175204380Y-103576476D01*
X175204380Y-104195523D01*
X174204380Y-104814571D02*
X174204380Y-104909809D01*
X174252000Y-105005047D01*
X174299619Y-105052666D01*
X174394857Y-105100285D01*
X174585333Y-105147904D01*
X174823428Y-105147904D01*
X175013904Y-105100285D01*
X175109142Y-105052666D01*
X175156761Y-105005047D01*
X175204380Y-104909809D01*
X175204380Y-104814571D01*
X175156761Y-104719333D01*
X175109142Y-104671714D01*
X175013904Y-104624095D01*
X174823428Y-104576476D01*
X174585333Y-104576476D01*
X174394857Y-104624095D01*
X174299619Y-104671714D01*
X174252000Y-104719333D01*
X174204380Y-104814571D01*
%TO.C,TP9*%
X156932000Y-73814571D02*
X157265333Y-73814571D01*
X157265333Y-74338380D02*
X157265333Y-73338380D01*
X156789142Y-73338380D01*
X155932000Y-74338380D02*
X156408190Y-74338380D01*
X156408190Y-73338380D01*
X155408190Y-73338380D02*
X155217714Y-73338380D01*
X155122476Y-73386000D01*
X155027238Y-73481238D01*
X154979619Y-73671714D01*
X154979619Y-74005047D01*
X155027238Y-74195523D01*
X155122476Y-74290761D01*
X155217714Y-74338380D01*
X155408190Y-74338380D01*
X155503428Y-74290761D01*
X155598666Y-74195523D01*
X155646285Y-74005047D01*
X155646285Y-73671714D01*
X155598666Y-73481238D01*
X155503428Y-73386000D01*
X155408190Y-73338380D01*
X154646285Y-73338380D02*
X154408190Y-74338380D01*
X154217714Y-73624095D01*
X154027238Y-74338380D01*
X153789142Y-73338380D01*
X153646285Y-74433619D02*
X152884380Y-74433619D01*
X152646285Y-74338380D02*
X152646285Y-73338380D01*
X152170095Y-74338380D02*
X152170095Y-73338380D01*
X151598666Y-74338380D01*
X151598666Y-73338380D01*
%TO.C,TP7*%
X142017428Y-74338380D02*
X142493619Y-74338380D01*
X142493619Y-73338380D01*
X141684095Y-73814571D02*
X141350761Y-73814571D01*
X141207904Y-74338380D02*
X141684095Y-74338380D01*
X141684095Y-73338380D01*
X141207904Y-73338380D01*
X140922190Y-73338380D02*
X140588857Y-74338380D01*
X140255523Y-73338380D01*
X139922190Y-73814571D02*
X139588857Y-73814571D01*
X139446000Y-74338380D02*
X139922190Y-74338380D01*
X139922190Y-73338380D01*
X139446000Y-73338380D01*
X138541238Y-74338380D02*
X139017428Y-74338380D01*
X139017428Y-73338380D01*
X138446000Y-74433619D02*
X137684095Y-74433619D01*
X137446000Y-74338380D02*
X137446000Y-73338380D01*
X136969809Y-74338380D02*
X136969809Y-73338380D01*
X136398380Y-74338380D01*
X136398380Y-73338380D01*
%TO.C,R19*%
X159392857Y-70302380D02*
X159726190Y-69826190D01*
X159964285Y-70302380D02*
X159964285Y-69302380D01*
X159583333Y-69302380D01*
X159488095Y-69350000D01*
X159440476Y-69397619D01*
X159392857Y-69492857D01*
X159392857Y-69635714D01*
X159440476Y-69730952D01*
X159488095Y-69778571D01*
X159583333Y-69826190D01*
X159964285Y-69826190D01*
X158440476Y-70302380D02*
X159011904Y-70302380D01*
X158726190Y-70302380D02*
X158726190Y-69302380D01*
X158821428Y-69445238D01*
X158916666Y-69540476D01*
X159011904Y-69588095D01*
X157964285Y-70302380D02*
X157773809Y-70302380D01*
X157678571Y-70254761D01*
X157630952Y-70207142D01*
X157535714Y-70064285D01*
X157488095Y-69873809D01*
X157488095Y-69492857D01*
X157535714Y-69397619D01*
X157583333Y-69350000D01*
X157678571Y-69302380D01*
X157869047Y-69302380D01*
X157964285Y-69350000D01*
X158011904Y-69397619D01*
X158059523Y-69492857D01*
X158059523Y-69730952D01*
X158011904Y-69826190D01*
X157964285Y-69873809D01*
X157869047Y-69921428D01*
X157678571Y-69921428D01*
X157583333Y-69873809D01*
X157535714Y-69826190D01*
X157488095Y-69730952D01*
%TO.C,R18*%
X135516857Y-70048380D02*
X135850190Y-69572190D01*
X136088285Y-70048380D02*
X136088285Y-69048380D01*
X135707333Y-69048380D01*
X135612095Y-69096000D01*
X135564476Y-69143619D01*
X135516857Y-69238857D01*
X135516857Y-69381714D01*
X135564476Y-69476952D01*
X135612095Y-69524571D01*
X135707333Y-69572190D01*
X136088285Y-69572190D01*
X134564476Y-70048380D02*
X135135904Y-70048380D01*
X134850190Y-70048380D02*
X134850190Y-69048380D01*
X134945428Y-69191238D01*
X135040666Y-69286476D01*
X135135904Y-69334095D01*
X133993047Y-69476952D02*
X134088285Y-69429333D01*
X134135904Y-69381714D01*
X134183523Y-69286476D01*
X134183523Y-69238857D01*
X134135904Y-69143619D01*
X134088285Y-69096000D01*
X133993047Y-69048380D01*
X133802571Y-69048380D01*
X133707333Y-69096000D01*
X133659714Y-69143619D01*
X133612095Y-69238857D01*
X133612095Y-69286476D01*
X133659714Y-69381714D01*
X133707333Y-69429333D01*
X133802571Y-69476952D01*
X133993047Y-69476952D01*
X134088285Y-69524571D01*
X134135904Y-69572190D01*
X134183523Y-69667428D01*
X134183523Y-69857904D01*
X134135904Y-69953142D01*
X134088285Y-70000761D01*
X133993047Y-70048380D01*
X133802571Y-70048380D01*
X133707333Y-70000761D01*
X133659714Y-69953142D01*
X133612095Y-69857904D01*
X133612095Y-69667428D01*
X133659714Y-69572190D01*
X133707333Y-69524571D01*
X133802571Y-69476952D01*
%TO.C,R17*%
X160980357Y-84589880D02*
X161313690Y-84113690D01*
X161551785Y-84589880D02*
X161551785Y-83589880D01*
X161170833Y-83589880D01*
X161075595Y-83637500D01*
X161027976Y-83685119D01*
X160980357Y-83780357D01*
X160980357Y-83923214D01*
X161027976Y-84018452D01*
X161075595Y-84066071D01*
X161170833Y-84113690D01*
X161551785Y-84113690D01*
X160027976Y-84589880D02*
X160599404Y-84589880D01*
X160313690Y-84589880D02*
X160313690Y-83589880D01*
X160408928Y-83732738D01*
X160504166Y-83827976D01*
X160599404Y-83875595D01*
X159694642Y-83589880D02*
X159027976Y-83589880D01*
X159456547Y-84589880D01*
%TO.C,R16*%
X161043857Y-85859880D02*
X161377190Y-85383690D01*
X161615285Y-85859880D02*
X161615285Y-84859880D01*
X161234333Y-84859880D01*
X161139095Y-84907500D01*
X161091476Y-84955119D01*
X161043857Y-85050357D01*
X161043857Y-85193214D01*
X161091476Y-85288452D01*
X161139095Y-85336071D01*
X161234333Y-85383690D01*
X161615285Y-85383690D01*
X160091476Y-85859880D02*
X160662904Y-85859880D01*
X160377190Y-85859880D02*
X160377190Y-84859880D01*
X160472428Y-85002738D01*
X160567666Y-85097976D01*
X160662904Y-85145595D01*
X159234333Y-84859880D02*
X159424809Y-84859880D01*
X159520047Y-84907500D01*
X159567666Y-84955119D01*
X159662904Y-85097976D01*
X159710523Y-85288452D01*
X159710523Y-85669404D01*
X159662904Y-85764642D01*
X159615285Y-85812261D01*
X159520047Y-85859880D01*
X159329571Y-85859880D01*
X159234333Y-85812261D01*
X159186714Y-85764642D01*
X159139095Y-85669404D01*
X159139095Y-85431309D01*
X159186714Y-85336071D01*
X159234333Y-85288452D01*
X159329571Y-85240833D01*
X159520047Y-85240833D01*
X159615285Y-85288452D01*
X159662904Y-85336071D01*
X159710523Y-85431309D01*
%TO.C,R15*%
X159392857Y-68778380D02*
X159726190Y-68302190D01*
X159964285Y-68778380D02*
X159964285Y-67778380D01*
X159583333Y-67778380D01*
X159488095Y-67826000D01*
X159440476Y-67873619D01*
X159392857Y-67968857D01*
X159392857Y-68111714D01*
X159440476Y-68206952D01*
X159488095Y-68254571D01*
X159583333Y-68302190D01*
X159964285Y-68302190D01*
X158440476Y-68778380D02*
X159011904Y-68778380D01*
X158726190Y-68778380D02*
X158726190Y-67778380D01*
X158821428Y-67921238D01*
X158916666Y-68016476D01*
X159011904Y-68064095D01*
X157535714Y-67778380D02*
X158011904Y-67778380D01*
X158059523Y-68254571D01*
X158011904Y-68206952D01*
X157916666Y-68159333D01*
X157678571Y-68159333D01*
X157583333Y-68206952D01*
X157535714Y-68254571D01*
X157488095Y-68349809D01*
X157488095Y-68587904D01*
X157535714Y-68683142D01*
X157583333Y-68730761D01*
X157678571Y-68778380D01*
X157916666Y-68778380D01*
X158011904Y-68730761D01*
X158059523Y-68683142D01*
%TO.C,R8*%
X135548666Y-68778380D02*
X135882000Y-68302190D01*
X136120095Y-68778380D02*
X136120095Y-67778380D01*
X135739142Y-67778380D01*
X135643904Y-67826000D01*
X135596285Y-67873619D01*
X135548666Y-67968857D01*
X135548666Y-68111714D01*
X135596285Y-68206952D01*
X135643904Y-68254571D01*
X135739142Y-68302190D01*
X136120095Y-68302190D01*
X134977238Y-68206952D02*
X135072476Y-68159333D01*
X135120095Y-68111714D01*
X135167714Y-68016476D01*
X135167714Y-67968857D01*
X135120095Y-67873619D01*
X135072476Y-67826000D01*
X134977238Y-67778380D01*
X134786761Y-67778380D01*
X134691523Y-67826000D01*
X134643904Y-67873619D01*
X134596285Y-67968857D01*
X134596285Y-68016476D01*
X134643904Y-68111714D01*
X134691523Y-68159333D01*
X134786761Y-68206952D01*
X134977238Y-68206952D01*
X135072476Y-68254571D01*
X135120095Y-68302190D01*
X135167714Y-68397428D01*
X135167714Y-68587904D01*
X135120095Y-68683142D01*
X135072476Y-68730761D01*
X134977238Y-68778380D01*
X134786761Y-68778380D01*
X134691523Y-68730761D01*
X134643904Y-68683142D01*
X134596285Y-68587904D01*
X134596285Y-68397428D01*
X134643904Y-68302190D01*
X134691523Y-68254571D01*
X134786761Y-68206952D01*
%TO.C,D5*%
X145264095Y-69540380D02*
X145264095Y-68540380D01*
X145026000Y-68540380D01*
X144883142Y-68588000D01*
X144787904Y-68683238D01*
X144740285Y-68778476D01*
X144692666Y-68968952D01*
X144692666Y-69111809D01*
X144740285Y-69302285D01*
X144787904Y-69397523D01*
X144883142Y-69492761D01*
X145026000Y-69540380D01*
X145264095Y-69540380D01*
X143787904Y-68540380D02*
X144264095Y-68540380D01*
X144311714Y-69016571D01*
X144264095Y-68968952D01*
X144168857Y-68921333D01*
X143930761Y-68921333D01*
X143835523Y-68968952D01*
X143787904Y-69016571D01*
X143740285Y-69111809D01*
X143740285Y-69349904D01*
X143787904Y-69445142D01*
X143835523Y-69492761D01*
X143930761Y-69540380D01*
X144168857Y-69540380D01*
X144264095Y-69492761D01*
X144311714Y-69445142D01*
%TO.C,U2*%
X184306380Y-91234095D02*
X185115904Y-91234095D01*
X185211142Y-91281714D01*
X185258761Y-91329333D01*
X185306380Y-91424571D01*
X185306380Y-91615047D01*
X185258761Y-91710285D01*
X185211142Y-91757904D01*
X185115904Y-91805523D01*
X184306380Y-91805523D01*
X184401619Y-92234095D02*
X184354000Y-92281714D01*
X184306380Y-92376952D01*
X184306380Y-92615047D01*
X184354000Y-92710285D01*
X184401619Y-92757904D01*
X184496857Y-92805523D01*
X184592095Y-92805523D01*
X184734952Y-92757904D01*
X185306380Y-92186476D01*
X185306380Y-92805523D01*
%TO.C,R14*%
X210909733Y-68714880D02*
X211243066Y-68238690D01*
X211481161Y-68714880D02*
X211481161Y-67714880D01*
X211100209Y-67714880D01*
X211004971Y-67762500D01*
X210957352Y-67810119D01*
X210909733Y-67905357D01*
X210909733Y-68048214D01*
X210957352Y-68143452D01*
X211004971Y-68191071D01*
X211100209Y-68238690D01*
X211481161Y-68238690D01*
X209957352Y-68714880D02*
X210528780Y-68714880D01*
X210243066Y-68714880D02*
X210243066Y-67714880D01*
X210338304Y-67857738D01*
X210433542Y-67952976D01*
X210528780Y-68000595D01*
X209100209Y-68048214D02*
X209100209Y-68714880D01*
X209338304Y-67667261D02*
X209576399Y-68381547D01*
X208957352Y-68381547D01*
%TO.C,R13*%
X203207857Y-68524380D02*
X203541190Y-68048190D01*
X203779285Y-68524380D02*
X203779285Y-67524380D01*
X203398333Y-67524380D01*
X203303095Y-67572000D01*
X203255476Y-67619619D01*
X203207857Y-67714857D01*
X203207857Y-67857714D01*
X203255476Y-67952952D01*
X203303095Y-68000571D01*
X203398333Y-68048190D01*
X203779285Y-68048190D01*
X202255476Y-68524380D02*
X202826904Y-68524380D01*
X202541190Y-68524380D02*
X202541190Y-67524380D01*
X202636428Y-67667238D01*
X202731666Y-67762476D01*
X202826904Y-67810095D01*
X201922142Y-67524380D02*
X201303095Y-67524380D01*
X201636428Y-67905333D01*
X201493571Y-67905333D01*
X201398333Y-67952952D01*
X201350714Y-68000571D01*
X201303095Y-68095809D01*
X201303095Y-68333904D01*
X201350714Y-68429142D01*
X201398333Y-68476761D01*
X201493571Y-68524380D01*
X201779285Y-68524380D01*
X201874523Y-68476761D01*
X201922142Y-68429142D01*
%TO.C,C19*%
X187078857Y-78225142D02*
X187126476Y-78272761D01*
X187269333Y-78320380D01*
X187364571Y-78320380D01*
X187507428Y-78272761D01*
X187602666Y-78177523D01*
X187650285Y-78082285D01*
X187697904Y-77891809D01*
X187697904Y-77748952D01*
X187650285Y-77558476D01*
X187602666Y-77463238D01*
X187507428Y-77368000D01*
X187364571Y-77320380D01*
X187269333Y-77320380D01*
X187126476Y-77368000D01*
X187078857Y-77415619D01*
X186126476Y-78320380D02*
X186697904Y-78320380D01*
X186412190Y-78320380D02*
X186412190Y-77320380D01*
X186507428Y-77463238D01*
X186602666Y-77558476D01*
X186697904Y-77606095D01*
X185650285Y-78320380D02*
X185459809Y-78320380D01*
X185364571Y-78272761D01*
X185316952Y-78225142D01*
X185221714Y-78082285D01*
X185174095Y-77891809D01*
X185174095Y-77510857D01*
X185221714Y-77415619D01*
X185269333Y-77368000D01*
X185364571Y-77320380D01*
X185555047Y-77320380D01*
X185650285Y-77368000D01*
X185697904Y-77415619D01*
X185745523Y-77510857D01*
X185745523Y-77748952D01*
X185697904Y-77844190D01*
X185650285Y-77891809D01*
X185555047Y-77939428D01*
X185364571Y-77939428D01*
X185269333Y-77891809D01*
X185221714Y-77844190D01*
X185174095Y-77748952D01*
%TO.C,TP12*%
X206723619Y-95702380D02*
X207199809Y-95702380D01*
X207199809Y-94702380D01*
X205818857Y-95607142D02*
X205866476Y-95654761D01*
X206009333Y-95702380D01*
X206104571Y-95702380D01*
X206247428Y-95654761D01*
X206342666Y-95559523D01*
X206390285Y-95464285D01*
X206437904Y-95273809D01*
X206437904Y-95130952D01*
X206390285Y-94940476D01*
X206342666Y-94845238D01*
X206247428Y-94750000D01*
X206104571Y-94702380D01*
X206009333Y-94702380D01*
X205866476Y-94750000D01*
X205818857Y-94797619D01*
X205390285Y-95702380D02*
X205390285Y-94702380D01*
X205152190Y-94702380D01*
X205009333Y-94750000D01*
X204914095Y-94845238D01*
X204866476Y-94940476D01*
X204818857Y-95130952D01*
X204818857Y-95273809D01*
X204866476Y-95464285D01*
X204914095Y-95559523D01*
X205009333Y-95654761D01*
X205152190Y-95702380D01*
X205390285Y-95702380D01*
X204628380Y-95797619D02*
X203866476Y-95797619D01*
X203295047Y-95178571D02*
X203152190Y-95226190D01*
X203104571Y-95273809D01*
X203056952Y-95369047D01*
X203056952Y-95511904D01*
X203104571Y-95607142D01*
X203152190Y-95654761D01*
X203247428Y-95702380D01*
X203628380Y-95702380D01*
X203628380Y-94702380D01*
X203295047Y-94702380D01*
X203199809Y-94750000D01*
X203152190Y-94797619D01*
X203104571Y-94892857D01*
X203104571Y-94988095D01*
X203152190Y-95083333D01*
X203199809Y-95130952D01*
X203295047Y-95178571D01*
X203628380Y-95178571D01*
X202675999Y-95416666D02*
X202199809Y-95416666D01*
X202771238Y-95702380D02*
X202437904Y-94702380D01*
X202104571Y-95702380D01*
X201199809Y-95607142D02*
X201247428Y-95654761D01*
X201390285Y-95702380D01*
X201485523Y-95702380D01*
X201628380Y-95654761D01*
X201723619Y-95559523D01*
X201771238Y-95464285D01*
X201818857Y-95273809D01*
X201818857Y-95130952D01*
X201771238Y-94940476D01*
X201723619Y-94845238D01*
X201628380Y-94750000D01*
X201485523Y-94702380D01*
X201390285Y-94702380D01*
X201247428Y-94750000D01*
X201199809Y-94797619D01*
X200771238Y-95702380D02*
X200771238Y-94702380D01*
X200199809Y-95702380D02*
X200628380Y-95130952D01*
X200199809Y-94702380D02*
X200771238Y-95273809D01*
X199295047Y-95702380D02*
X199771238Y-95702380D01*
X199771238Y-94702380D01*
X198961714Y-95702380D02*
X198961714Y-94702380D01*
X197961714Y-94750000D02*
X198056952Y-94702380D01*
X198199809Y-94702380D01*
X198342666Y-94750000D01*
X198437904Y-94845238D01*
X198485523Y-94940476D01*
X198533142Y-95130952D01*
X198533142Y-95273809D01*
X198485523Y-95464285D01*
X198437904Y-95559523D01*
X198342666Y-95654761D01*
X198199809Y-95702380D01*
X198104571Y-95702380D01*
X197961714Y-95654761D01*
X197914095Y-95607142D01*
X197914095Y-95273809D01*
X198104571Y-95273809D01*
X197485523Y-95702380D02*
X197485523Y-94702380D01*
X197485523Y-95178571D02*
X196914095Y-95178571D01*
X196914095Y-95702380D02*
X196914095Y-94702380D01*
X196580761Y-94702380D02*
X196009333Y-94702380D01*
X196295047Y-95702380D02*
X196295047Y-94702380D01*
%TO.C,R12*%
X197492857Y-93670380D02*
X197826190Y-93194190D01*
X198064285Y-93670380D02*
X198064285Y-92670380D01*
X197683333Y-92670380D01*
X197588095Y-92718000D01*
X197540476Y-92765619D01*
X197492857Y-92860857D01*
X197492857Y-93003714D01*
X197540476Y-93098952D01*
X197588095Y-93146571D01*
X197683333Y-93194190D01*
X198064285Y-93194190D01*
X196540476Y-93670380D02*
X197111904Y-93670380D01*
X196826190Y-93670380D02*
X196826190Y-92670380D01*
X196921428Y-92813238D01*
X197016666Y-92908476D01*
X197111904Y-92956095D01*
X196159523Y-92765619D02*
X196111904Y-92718000D01*
X196016666Y-92670380D01*
X195778571Y-92670380D01*
X195683333Y-92718000D01*
X195635714Y-92765619D01*
X195588095Y-92860857D01*
X195588095Y-92956095D01*
X195635714Y-93098952D01*
X196207142Y-93670380D01*
X195588095Y-93670380D01*
%TO.C,Q4*%
X196889619Y-90328761D02*
X196842000Y-90233523D01*
X196746761Y-90138285D01*
X196603904Y-89995428D01*
X196556285Y-89900190D01*
X196556285Y-89804952D01*
X196794380Y-89852571D02*
X196746761Y-89757333D01*
X196651523Y-89662095D01*
X196461047Y-89614476D01*
X196127714Y-89614476D01*
X195937238Y-89662095D01*
X195842000Y-89757333D01*
X195794380Y-89852571D01*
X195794380Y-90043047D01*
X195842000Y-90138285D01*
X195937238Y-90233523D01*
X196127714Y-90281142D01*
X196461047Y-90281142D01*
X196651523Y-90233523D01*
X196746761Y-90138285D01*
X196794380Y-90043047D01*
X196794380Y-89852571D01*
X196127714Y-91138285D02*
X196794380Y-91138285D01*
X195746761Y-90900190D02*
X196461047Y-90662095D01*
X196461047Y-91281142D01*
%TO.C,TP5*%
X191650809Y-88590380D02*
X191984142Y-88114190D01*
X192222238Y-88590380D02*
X192222238Y-87590380D01*
X191841285Y-87590380D01*
X191746047Y-87638000D01*
X191698428Y-87685619D01*
X191650809Y-87780857D01*
X191650809Y-87923714D01*
X191698428Y-88018952D01*
X191746047Y-88066571D01*
X191841285Y-88114190D01*
X192222238Y-88114190D01*
X191222238Y-88066571D02*
X190888904Y-88066571D01*
X190746047Y-88590380D02*
X191222238Y-88590380D01*
X191222238Y-87590380D01*
X190746047Y-87590380D01*
X190555571Y-88685619D02*
X189793666Y-88685619D01*
X189222238Y-88066571D02*
X189079380Y-88114190D01*
X189031761Y-88161809D01*
X188984142Y-88257047D01*
X188984142Y-88399904D01*
X189031761Y-88495142D01*
X189079380Y-88542761D01*
X189174619Y-88590380D01*
X189555571Y-88590380D01*
X189555571Y-87590380D01*
X189222238Y-87590380D01*
X189127000Y-87638000D01*
X189079380Y-87685619D01*
X189031761Y-87780857D01*
X189031761Y-87876095D01*
X189079380Y-87971333D01*
X189127000Y-88018952D01*
X189222238Y-88066571D01*
X189555571Y-88066571D01*
%TO.C,TP3*%
X191579380Y-84462880D02*
X191912714Y-83986690D01*
X192150809Y-84462880D02*
X192150809Y-83462880D01*
X191769857Y-83462880D01*
X191674619Y-83510500D01*
X191627000Y-83558119D01*
X191579380Y-83653357D01*
X191579380Y-83796214D01*
X191627000Y-83891452D01*
X191674619Y-83939071D01*
X191769857Y-83986690D01*
X192150809Y-83986690D01*
X191150809Y-83939071D02*
X190817476Y-83939071D01*
X190674619Y-84462880D02*
X191150809Y-84462880D01*
X191150809Y-83462880D01*
X190674619Y-83462880D01*
X190484142Y-84558119D02*
X189722238Y-84558119D01*
X189531761Y-84177166D02*
X189055571Y-84177166D01*
X189627000Y-84462880D02*
X189293666Y-83462880D01*
X188960333Y-84462880D01*
%TO.C,TP2*%
X192491857Y-79970261D02*
X192349000Y-80017880D01*
X192110904Y-80017880D01*
X192015666Y-79970261D01*
X191968047Y-79922642D01*
X191920428Y-79827404D01*
X191920428Y-79732166D01*
X191968047Y-79636928D01*
X192015666Y-79589309D01*
X192110904Y-79541690D01*
X192301380Y-79494071D01*
X192396619Y-79446452D01*
X192444238Y-79398833D01*
X192491857Y-79303595D01*
X192491857Y-79208357D01*
X192444238Y-79113119D01*
X192396619Y-79065500D01*
X192301380Y-79017880D01*
X192063285Y-79017880D01*
X191920428Y-79065500D01*
X191587095Y-79017880D02*
X191349000Y-80017880D01*
X191158523Y-79303595D01*
X190968047Y-80017880D01*
X190729952Y-79017880D01*
X190587095Y-80113119D02*
X189825190Y-80113119D01*
X189587095Y-80017880D02*
X189587095Y-79017880D01*
X189206142Y-79017880D01*
X189110904Y-79065500D01*
X189063285Y-79113119D01*
X189015666Y-79208357D01*
X189015666Y-79351214D01*
X189063285Y-79446452D01*
X189110904Y-79494071D01*
X189206142Y-79541690D01*
X189587095Y-79541690D01*
X188015666Y-80017880D02*
X188349000Y-79541690D01*
X188587095Y-80017880D02*
X188587095Y-79017880D01*
X188206142Y-79017880D01*
X188110904Y-79065500D01*
X188063285Y-79113119D01*
X188015666Y-79208357D01*
X188015666Y-79351214D01*
X188063285Y-79446452D01*
X188110904Y-79494071D01*
X188206142Y-79541690D01*
X188587095Y-79541690D01*
X187587095Y-79494071D02*
X187253761Y-79494071D01*
X187110904Y-80017880D02*
X187587095Y-80017880D01*
X187587095Y-79017880D01*
X187110904Y-79017880D01*
X186729952Y-79970261D02*
X186587095Y-80017880D01*
X186349000Y-80017880D01*
X186253761Y-79970261D01*
X186206142Y-79922642D01*
X186158523Y-79827404D01*
X186158523Y-79732166D01*
X186206142Y-79636928D01*
X186253761Y-79589309D01*
X186349000Y-79541690D01*
X186539476Y-79494071D01*
X186634714Y-79446452D01*
X186682333Y-79398833D01*
X186729952Y-79303595D01*
X186729952Y-79208357D01*
X186682333Y-79113119D01*
X186634714Y-79065500D01*
X186539476Y-79017880D01*
X186301380Y-79017880D01*
X186158523Y-79065500D01*
X185777571Y-79970261D02*
X185634714Y-80017880D01*
X185396619Y-80017880D01*
X185301380Y-79970261D01*
X185253761Y-79922642D01*
X185206142Y-79827404D01*
X185206142Y-79732166D01*
X185253761Y-79636928D01*
X185301380Y-79589309D01*
X185396619Y-79541690D01*
X185587095Y-79494071D01*
X185682333Y-79446452D01*
X185729952Y-79398833D01*
X185777571Y-79303595D01*
X185777571Y-79208357D01*
X185729952Y-79113119D01*
X185682333Y-79065500D01*
X185587095Y-79017880D01*
X185349000Y-79017880D01*
X185206142Y-79065500D01*
%TO.C,R11*%
X204160357Y-77414380D02*
X204493690Y-76938190D01*
X204731785Y-77414380D02*
X204731785Y-76414380D01*
X204350833Y-76414380D01*
X204255595Y-76462000D01*
X204207976Y-76509619D01*
X204160357Y-76604857D01*
X204160357Y-76747714D01*
X204207976Y-76842952D01*
X204255595Y-76890571D01*
X204350833Y-76938190D01*
X204731785Y-76938190D01*
X203207976Y-77414380D02*
X203779404Y-77414380D01*
X203493690Y-77414380D02*
X203493690Y-76414380D01*
X203588928Y-76557238D01*
X203684166Y-76652476D01*
X203779404Y-76700095D01*
X202255595Y-77414380D02*
X202827023Y-77414380D01*
X202541309Y-77414380D02*
X202541309Y-76414380D01*
X202636547Y-76557238D01*
X202731785Y-76652476D01*
X202827023Y-76700095D01*
%TO.C,R10*%
X210065880Y-89844642D02*
X209589690Y-89511309D01*
X210065880Y-89273214D02*
X209065880Y-89273214D01*
X209065880Y-89654166D01*
X209113500Y-89749404D01*
X209161119Y-89797023D01*
X209256357Y-89844642D01*
X209399214Y-89844642D01*
X209494452Y-89797023D01*
X209542071Y-89749404D01*
X209589690Y-89654166D01*
X209589690Y-89273214D01*
X210065880Y-90797023D02*
X210065880Y-90225595D01*
X210065880Y-90511309D02*
X209065880Y-90511309D01*
X209208738Y-90416071D01*
X209303976Y-90320833D01*
X209351595Y-90225595D01*
X209065880Y-91416071D02*
X209065880Y-91511309D01*
X209113500Y-91606547D01*
X209161119Y-91654166D01*
X209256357Y-91701785D01*
X209446833Y-91749404D01*
X209684928Y-91749404D01*
X209875404Y-91701785D01*
X209970642Y-91654166D01*
X210018261Y-91606547D01*
X210065880Y-91511309D01*
X210065880Y-91416071D01*
X210018261Y-91320833D01*
X209970642Y-91273214D01*
X209875404Y-91225595D01*
X209684928Y-91177976D01*
X209446833Y-91177976D01*
X209256357Y-91225595D01*
X209161119Y-91273214D01*
X209113500Y-91320833D01*
X209065880Y-91416071D01*
%TO.C,R9*%
X210065880Y-76795333D02*
X209589690Y-76462000D01*
X210065880Y-76223904D02*
X209065880Y-76223904D01*
X209065880Y-76604857D01*
X209113500Y-76700095D01*
X209161119Y-76747714D01*
X209256357Y-76795333D01*
X209399214Y-76795333D01*
X209494452Y-76747714D01*
X209542071Y-76700095D01*
X209589690Y-76604857D01*
X209589690Y-76223904D01*
X210065880Y-77271523D02*
X210065880Y-77462000D01*
X210018261Y-77557238D01*
X209970642Y-77604857D01*
X209827785Y-77700095D01*
X209637309Y-77747714D01*
X209256357Y-77747714D01*
X209161119Y-77700095D01*
X209113500Y-77652476D01*
X209065880Y-77557238D01*
X209065880Y-77366761D01*
X209113500Y-77271523D01*
X209161119Y-77223904D01*
X209256357Y-77176285D01*
X209494452Y-77176285D01*
X209589690Y-77223904D01*
X209637309Y-77271523D01*
X209684928Y-77366761D01*
X209684928Y-77557238D01*
X209637309Y-77652476D01*
X209589690Y-77700095D01*
X209494452Y-77747714D01*
%TO.C,D4*%
X152376095Y-71318380D02*
X152376095Y-70318380D01*
X152138000Y-70318380D01*
X151995142Y-70366000D01*
X151899904Y-70461238D01*
X151852285Y-70556476D01*
X151804666Y-70746952D01*
X151804666Y-70889809D01*
X151852285Y-71080285D01*
X151899904Y-71175523D01*
X151995142Y-71270761D01*
X152138000Y-71318380D01*
X152376095Y-71318380D01*
X150947523Y-70651714D02*
X150947523Y-71318380D01*
X151185619Y-70270761D02*
X151423714Y-70985047D01*
X150804666Y-70985047D01*
%TO.C,C18*%
X208573642Y-89717642D02*
X208621261Y-89670023D01*
X208668880Y-89527166D01*
X208668880Y-89431928D01*
X208621261Y-89289071D01*
X208526023Y-89193833D01*
X208430785Y-89146214D01*
X208240309Y-89098595D01*
X208097452Y-89098595D01*
X207906976Y-89146214D01*
X207811738Y-89193833D01*
X207716500Y-89289071D01*
X207668880Y-89431928D01*
X207668880Y-89527166D01*
X207716500Y-89670023D01*
X207764119Y-89717642D01*
X208668880Y-90670023D02*
X208668880Y-90098595D01*
X208668880Y-90384309D02*
X207668880Y-90384309D01*
X207811738Y-90289071D01*
X207906976Y-90193833D01*
X207954595Y-90098595D01*
X208097452Y-91241452D02*
X208049833Y-91146214D01*
X208002214Y-91098595D01*
X207906976Y-91050976D01*
X207859357Y-91050976D01*
X207764119Y-91098595D01*
X207716500Y-91146214D01*
X207668880Y-91241452D01*
X207668880Y-91431928D01*
X207716500Y-91527166D01*
X207764119Y-91574785D01*
X207859357Y-91622404D01*
X207906976Y-91622404D01*
X208002214Y-91574785D01*
X208049833Y-91527166D01*
X208097452Y-91431928D01*
X208097452Y-91241452D01*
X208145071Y-91146214D01*
X208192690Y-91098595D01*
X208287928Y-91050976D01*
X208478404Y-91050976D01*
X208573642Y-91098595D01*
X208621261Y-91146214D01*
X208668880Y-91241452D01*
X208668880Y-91431928D01*
X208621261Y-91527166D01*
X208573642Y-91574785D01*
X208478404Y-91622404D01*
X208287928Y-91622404D01*
X208192690Y-91574785D01*
X208145071Y-91527166D01*
X208097452Y-91431928D01*
%TO.C,C17*%
X208700642Y-75874642D02*
X208748261Y-75827023D01*
X208795880Y-75684166D01*
X208795880Y-75588928D01*
X208748261Y-75446071D01*
X208653023Y-75350833D01*
X208557785Y-75303214D01*
X208367309Y-75255595D01*
X208224452Y-75255595D01*
X208033976Y-75303214D01*
X207938738Y-75350833D01*
X207843500Y-75446071D01*
X207795880Y-75588928D01*
X207795880Y-75684166D01*
X207843500Y-75827023D01*
X207891119Y-75874642D01*
X208795880Y-76827023D02*
X208795880Y-76255595D01*
X208795880Y-76541309D02*
X207795880Y-76541309D01*
X207938738Y-76446071D01*
X208033976Y-76350833D01*
X208081595Y-76255595D01*
X207795880Y-77160357D02*
X207795880Y-77827023D01*
X208795880Y-77398452D01*
%TO.C,C16*%
X204160357Y-75795142D02*
X204207976Y-75842761D01*
X204350833Y-75890380D01*
X204446071Y-75890380D01*
X204588928Y-75842761D01*
X204684166Y-75747523D01*
X204731785Y-75652285D01*
X204779404Y-75461809D01*
X204779404Y-75318952D01*
X204731785Y-75128476D01*
X204684166Y-75033238D01*
X204588928Y-74938000D01*
X204446071Y-74890380D01*
X204350833Y-74890380D01*
X204207976Y-74938000D01*
X204160357Y-74985619D01*
X203207976Y-75890380D02*
X203779404Y-75890380D01*
X203493690Y-75890380D02*
X203493690Y-74890380D01*
X203588928Y-75033238D01*
X203684166Y-75128476D01*
X203779404Y-75176095D01*
X202350833Y-74890380D02*
X202541309Y-74890380D01*
X202636547Y-74938000D01*
X202684166Y-74985619D01*
X202779404Y-75128476D01*
X202827023Y-75318952D01*
X202827023Y-75699904D01*
X202779404Y-75795142D01*
X202731785Y-75842761D01*
X202636547Y-75890380D01*
X202446071Y-75890380D01*
X202350833Y-75842761D01*
X202303214Y-75795142D01*
X202255595Y-75699904D01*
X202255595Y-75461809D01*
X202303214Y-75366571D01*
X202350833Y-75318952D01*
X202446071Y-75271333D01*
X202636547Y-75271333D01*
X202731785Y-75318952D01*
X202779404Y-75366571D01*
X202827023Y-75461809D01*
%TO.C,R7*%
X179776380Y-97115333D02*
X179300190Y-96782000D01*
X179776380Y-96543904D02*
X178776380Y-96543904D01*
X178776380Y-96924857D01*
X178824000Y-97020095D01*
X178871619Y-97067714D01*
X178966857Y-97115333D01*
X179109714Y-97115333D01*
X179204952Y-97067714D01*
X179252571Y-97020095D01*
X179300190Y-96924857D01*
X179300190Y-96543904D01*
X178776380Y-97448666D02*
X178776380Y-98115333D01*
X179776380Y-97686761D01*
%TO.C,Q3*%
X179927238Y-100115619D02*
X180022476Y-100068000D01*
X180117714Y-99972761D01*
X180260571Y-99829904D01*
X180355809Y-99782285D01*
X180451047Y-99782285D01*
X180403428Y-100020380D02*
X180498666Y-99972761D01*
X180593904Y-99877523D01*
X180641523Y-99687047D01*
X180641523Y-99353714D01*
X180593904Y-99163238D01*
X180498666Y-99068000D01*
X180403428Y-99020380D01*
X180212952Y-99020380D01*
X180117714Y-99068000D01*
X180022476Y-99163238D01*
X179974857Y-99353714D01*
X179974857Y-99687047D01*
X180022476Y-99877523D01*
X180117714Y-99972761D01*
X180212952Y-100020380D01*
X180403428Y-100020380D01*
X179641523Y-99020380D02*
X179022476Y-99020380D01*
X179355809Y-99401333D01*
X179212952Y-99401333D01*
X179117714Y-99448952D01*
X179070095Y-99496571D01*
X179022476Y-99591809D01*
X179022476Y-99829904D01*
X179070095Y-99925142D01*
X179117714Y-99972761D01*
X179212952Y-100020380D01*
X179498666Y-100020380D01*
X179593904Y-99972761D01*
X179641523Y-99925142D01*
%TO.C,K1*%
X191340095Y-109250380D02*
X191340095Y-108250380D01*
X190768666Y-109250380D02*
X191197238Y-108678952D01*
X190768666Y-108250380D02*
X191340095Y-108821809D01*
X189816285Y-109250380D02*
X190387714Y-109250380D01*
X190102000Y-109250380D02*
X190102000Y-108250380D01*
X190197238Y-108393238D01*
X190292476Y-108488476D01*
X190387714Y-108536095D01*
%TO.C,U1*%
X144017904Y-75906380D02*
X144017904Y-76715904D01*
X143970285Y-76811142D01*
X143922666Y-76858761D01*
X143827428Y-76906380D01*
X143636952Y-76906380D01*
X143541714Y-76858761D01*
X143494095Y-76811142D01*
X143446476Y-76715904D01*
X143446476Y-75906380D01*
X142446476Y-76906380D02*
X143017904Y-76906380D01*
X142732190Y-76906380D02*
X142732190Y-75906380D01*
X142827428Y-76049238D01*
X142922666Y-76144476D01*
X143017904Y-76192095D01*
%TO.C,TP1*%
X137175690Y-74382380D02*
X136556642Y-74382380D01*
X136889976Y-74763333D01*
X136747119Y-74763333D01*
X136651880Y-74810952D01*
X136604261Y-74858571D01*
X136556642Y-74953809D01*
X136556642Y-75191904D01*
X136604261Y-75287142D01*
X136651880Y-75334761D01*
X136747119Y-75382380D01*
X137032833Y-75382380D01*
X137128071Y-75334761D01*
X137175690Y-75287142D01*
X136128071Y-75287142D02*
X136080452Y-75334761D01*
X136128071Y-75382380D01*
X136175690Y-75334761D01*
X136128071Y-75287142D01*
X136128071Y-75382380D01*
X135747119Y-74382380D02*
X135128071Y-74382380D01*
X135461404Y-74763333D01*
X135318547Y-74763333D01*
X135223309Y-74810952D01*
X135175690Y-74858571D01*
X135128071Y-74953809D01*
X135128071Y-75191904D01*
X135175690Y-75287142D01*
X135223309Y-75334761D01*
X135318547Y-75382380D01*
X135604261Y-75382380D01*
X135699500Y-75334761D01*
X135747119Y-75287142D01*
X134842357Y-74382380D02*
X134509023Y-75382380D01*
X134175690Y-74382380D01*
%TO.C,R5*%
X199689980Y-81593932D02*
X199213790Y-81260599D01*
X199689980Y-81022503D02*
X198689980Y-81022503D01*
X198689980Y-81403456D01*
X198737600Y-81498694D01*
X198785219Y-81546313D01*
X198880457Y-81593932D01*
X199023314Y-81593932D01*
X199118552Y-81546313D01*
X199166171Y-81498694D01*
X199213790Y-81403456D01*
X199213790Y-81022503D01*
X198689980Y-82498694D02*
X198689980Y-82022503D01*
X199166171Y-81974884D01*
X199118552Y-82022503D01*
X199070933Y-82117741D01*
X199070933Y-82355837D01*
X199118552Y-82451075D01*
X199166171Y-82498694D01*
X199261409Y-82546313D01*
X199499504Y-82546313D01*
X199594742Y-82498694D01*
X199642361Y-82451075D01*
X199689980Y-82355837D01*
X199689980Y-82117741D01*
X199642361Y-82022503D01*
X199594742Y-81974884D01*
%TO.C,L1*%
X137866380Y-76541333D02*
X137866380Y-76065142D01*
X136866380Y-76065142D01*
X137866380Y-77398476D02*
X137866380Y-76827047D01*
X137866380Y-77112761D02*
X136866380Y-77112761D01*
X137009238Y-77017523D01*
X137104476Y-76922285D01*
X137152095Y-76827047D01*
%TO.C,D3*%
X135726657Y-86155904D02*
X134726657Y-86155904D01*
X134726657Y-86394000D01*
X134774277Y-86536857D01*
X134869515Y-86632095D01*
X134964753Y-86679714D01*
X135155229Y-86727333D01*
X135298086Y-86727333D01*
X135488562Y-86679714D01*
X135583800Y-86632095D01*
X135679038Y-86536857D01*
X135726657Y-86394000D01*
X135726657Y-86155904D01*
X134726657Y-87060666D02*
X134726657Y-87679714D01*
X135107610Y-87346380D01*
X135107610Y-87489238D01*
X135155229Y-87584476D01*
X135202848Y-87632095D01*
X135298086Y-87679714D01*
X135536181Y-87679714D01*
X135631419Y-87632095D01*
X135679038Y-87584476D01*
X135726657Y-87489238D01*
X135726657Y-87203523D01*
X135679038Y-87108285D01*
X135631419Y-87060666D01*
%TO.C,C14*%
X147775142Y-68953142D02*
X147822761Y-68905523D01*
X147870380Y-68762666D01*
X147870380Y-68667428D01*
X147822761Y-68524571D01*
X147727523Y-68429333D01*
X147632285Y-68381714D01*
X147441809Y-68334095D01*
X147298952Y-68334095D01*
X147108476Y-68381714D01*
X147013238Y-68429333D01*
X146918000Y-68524571D01*
X146870380Y-68667428D01*
X146870380Y-68762666D01*
X146918000Y-68905523D01*
X146965619Y-68953142D01*
X147870380Y-69905523D02*
X147870380Y-69334095D01*
X147870380Y-69619809D02*
X146870380Y-69619809D01*
X147013238Y-69524571D01*
X147108476Y-69429333D01*
X147156095Y-69334095D01*
X147203714Y-70762666D02*
X147870380Y-70762666D01*
X146822761Y-70524571D02*
X147537047Y-70286476D01*
X147537047Y-70905523D01*
%TO.C,C6*%
X153392142Y-75969833D02*
X153439761Y-75922214D01*
X153487380Y-75779357D01*
X153487380Y-75684119D01*
X153439761Y-75541261D01*
X153344523Y-75446023D01*
X153249285Y-75398404D01*
X153058809Y-75350785D01*
X152915952Y-75350785D01*
X152725476Y-75398404D01*
X152630238Y-75446023D01*
X152535000Y-75541261D01*
X152487380Y-75684119D01*
X152487380Y-75779357D01*
X152535000Y-75922214D01*
X152582619Y-75969833D01*
X152487380Y-76826976D02*
X152487380Y-76636500D01*
X152535000Y-76541261D01*
X152582619Y-76493642D01*
X152725476Y-76398404D01*
X152915952Y-76350785D01*
X153296904Y-76350785D01*
X153392142Y-76398404D01*
X153439761Y-76446023D01*
X153487380Y-76541261D01*
X153487380Y-76731738D01*
X153439761Y-76826976D01*
X153392142Y-76874595D01*
X153296904Y-76922214D01*
X153058809Y-76922214D01*
X152963571Y-76874595D01*
X152915952Y-76826976D01*
X152868333Y-76731738D01*
X152868333Y-76541261D01*
X152915952Y-76446023D01*
X152963571Y-76398404D01*
X153058809Y-76350785D01*
%TO.C,C5*%
X147994666Y-86463142D02*
X148042285Y-86510761D01*
X148185142Y-86558380D01*
X148280380Y-86558380D01*
X148423238Y-86510761D01*
X148518476Y-86415523D01*
X148566095Y-86320285D01*
X148613714Y-86129809D01*
X148613714Y-85986952D01*
X148566095Y-85796476D01*
X148518476Y-85701238D01*
X148423238Y-85606000D01*
X148280380Y-85558380D01*
X148185142Y-85558380D01*
X148042285Y-85606000D01*
X147994666Y-85653619D01*
X147089904Y-85558380D02*
X147566095Y-85558380D01*
X147613714Y-86034571D01*
X147566095Y-85986952D01*
X147470857Y-85939333D01*
X147232761Y-85939333D01*
X147137523Y-85986952D01*
X147089904Y-86034571D01*
X147042285Y-86129809D01*
X147042285Y-86367904D01*
X147089904Y-86463142D01*
X147137523Y-86510761D01*
X147232761Y-86558380D01*
X147470857Y-86558380D01*
X147566095Y-86510761D01*
X147613714Y-86463142D01*
%TD*%
M02*
