%TF.GenerationSoftware,KiCad,Pcbnew,(5.1.10-1-10_14)*%
%TF.CreationDate,2022-08-23T11:44:09+02:00*%
%TF.ProjectId,RO Flow Counter,524f2046-6c6f-4772-9043-6f756e746572,rev?*%
%TF.SameCoordinates,Original*%
%TF.FileFunction,Soldermask,Bot*%
%TF.FilePolarity,Negative*%
%FSLAX46Y46*%
G04 Gerber Fmt 4.6, Leading zero omitted, Abs format (unit mm)*
G04 Created by KiCad (PCBNEW (5.1.10-1-10_14)) date 2022-08-23 11:44:09*
%MOMM*%
%LPD*%
G01*
G04 APERTURE LIST*
%ADD10C,1.524000*%
%ADD11C,4.400000*%
%ADD12O,1.700000X1.700000*%
%ADD13R,1.700000X1.700000*%
%ADD14R,1.300000X1.550000*%
%ADD15C,1.500000*%
%ADD16R,0.900000X1.200000*%
%ADD17R,2.000000X0.900000*%
%ADD18R,0.900000X2.000000*%
%ADD19R,5.000000X5.000000*%
%ADD20O,1.700000X1.950000*%
%ADD21R,0.800000X0.900000*%
%ADD22R,3.500000X3.500000*%
%ADD23R,0.900000X0.800000*%
%ADD24C,2.300000*%
%ADD25R,2.300000X2.300000*%
%ADD26R,2.000000X2.000000*%
%ADD27C,2.000000*%
%ADD28C,3.200000*%
%ADD29C,5.600000*%
%ADD30R,1.200000X0.900000*%
%ADD31C,1.600000*%
%ADD32R,1.600000X1.600000*%
G04 APERTURE END LIST*
D10*
%TO.C,J2*%
X152765800Y-98475800D03*
X154565800Y-98475800D03*
X156365800Y-98475800D03*
X158165800Y-98475800D03*
X159965800Y-98475800D03*
X161765800Y-98475800D03*
X163565800Y-98475800D03*
X165365800Y-98475800D03*
X167165800Y-98475800D03*
X168965800Y-98475800D03*
X170765800Y-98475800D03*
X172565800Y-98475800D03*
%TD*%
D11*
%TO.C,J7*%
X213955800Y-99060000D03*
G36*
G01*
X202955800Y-101010001D02*
X202955800Y-97109999D01*
G75*
G02*
X203205799Y-96860000I249999J0D01*
G01*
X207105801Y-96860000D01*
G75*
G02*
X207355800Y-97109999I0J-249999D01*
G01*
X207355800Y-101010001D01*
G75*
G02*
X207105801Y-101260000I-249999J0D01*
G01*
X203205799Y-101260000D01*
G75*
G02*
X202955800Y-101010001I0J249999D01*
G01*
G37*
%TD*%
D12*
%TO.C,J1*%
X202374500Y-84582000D03*
D13*
X202374500Y-82042000D03*
%TD*%
%TO.C,C1*%
G36*
G01*
X197060800Y-83711200D02*
X198010800Y-83711200D01*
G75*
G02*
X198260800Y-83961200I0J-250000D01*
G01*
X198260800Y-84461200D01*
G75*
G02*
X198010800Y-84711200I-250000J0D01*
G01*
X197060800Y-84711200D01*
G75*
G02*
X196810800Y-84461200I0J250000D01*
G01*
X196810800Y-83961200D01*
G75*
G02*
X197060800Y-83711200I250000J0D01*
G01*
G37*
G36*
G01*
X197060800Y-81811200D02*
X198010800Y-81811200D01*
G75*
G02*
X198260800Y-82061200I0J-250000D01*
G01*
X198260800Y-82561200D01*
G75*
G02*
X198010800Y-82811200I-250000J0D01*
G01*
X197060800Y-82811200D01*
G75*
G02*
X196810800Y-82561200I0J250000D01*
G01*
X196810800Y-82061200D01*
G75*
G02*
X197060800Y-81811200I250000J0D01*
G01*
G37*
%TD*%
D14*
%TO.C,SW4*%
X203807500Y-58191500D03*
X208307500Y-58191500D03*
X208307500Y-66141500D03*
X203807500Y-66141500D03*
%TD*%
%TO.C,SW3*%
X200497000Y-66141500D03*
X195997000Y-66141500D03*
X195997000Y-58191500D03*
X200497000Y-58191500D03*
%TD*%
%TO.C,R22*%
G36*
G01*
X163104800Y-78036000D02*
X163104800Y-77666000D01*
G75*
G02*
X163239800Y-77531000I135000J0D01*
G01*
X163509800Y-77531000D01*
G75*
G02*
X163644800Y-77666000I0J-135000D01*
G01*
X163644800Y-78036000D01*
G75*
G02*
X163509800Y-78171000I-135000J0D01*
G01*
X163239800Y-78171000D01*
G75*
G02*
X163104800Y-78036000I0J135000D01*
G01*
G37*
G36*
G01*
X162084800Y-78036000D02*
X162084800Y-77666000D01*
G75*
G02*
X162219800Y-77531000I135000J0D01*
G01*
X162489800Y-77531000D01*
G75*
G02*
X162624800Y-77666000I0J-135000D01*
G01*
X162624800Y-78036000D01*
G75*
G02*
X162489800Y-78171000I-135000J0D01*
G01*
X162219800Y-78171000D01*
G75*
G02*
X162084800Y-78036000I0J135000D01*
G01*
G37*
%TD*%
%TO.C,R21*%
G36*
G01*
X163079400Y-81846000D02*
X163079400Y-81476000D01*
G75*
G02*
X163214400Y-81341000I135000J0D01*
G01*
X163484400Y-81341000D01*
G75*
G02*
X163619400Y-81476000I0J-135000D01*
G01*
X163619400Y-81846000D01*
G75*
G02*
X163484400Y-81981000I-135000J0D01*
G01*
X163214400Y-81981000D01*
G75*
G02*
X163079400Y-81846000I0J135000D01*
G01*
G37*
G36*
G01*
X162059400Y-81846000D02*
X162059400Y-81476000D01*
G75*
G02*
X162194400Y-81341000I135000J0D01*
G01*
X162464400Y-81341000D01*
G75*
G02*
X162599400Y-81476000I0J-135000D01*
G01*
X162599400Y-81846000D01*
G75*
G02*
X162464400Y-81981000I-135000J0D01*
G01*
X162194400Y-81981000D01*
G75*
G02*
X162059400Y-81846000I0J135000D01*
G01*
G37*
%TD*%
D12*
%TO.C,J8*%
X150177500Y-92646500D03*
X150177500Y-90106500D03*
X150177500Y-87566500D03*
X150177500Y-85026500D03*
D13*
X150177500Y-82486500D03*
%TD*%
%TO.C,R20*%
G36*
G01*
X174567000Y-101586000D02*
X174937000Y-101586000D01*
G75*
G02*
X175072000Y-101721000I0J-135000D01*
G01*
X175072000Y-101991000D01*
G75*
G02*
X174937000Y-102126000I-135000J0D01*
G01*
X174567000Y-102126000D01*
G75*
G02*
X174432000Y-101991000I0J135000D01*
G01*
X174432000Y-101721000D01*
G75*
G02*
X174567000Y-101586000I135000J0D01*
G01*
G37*
G36*
G01*
X174567000Y-100566000D02*
X174937000Y-100566000D01*
G75*
G02*
X175072000Y-100701000I0J-135000D01*
G01*
X175072000Y-100971000D01*
G75*
G02*
X174937000Y-101106000I-135000J0D01*
G01*
X174567000Y-101106000D01*
G75*
G02*
X174432000Y-100971000I0J135000D01*
G01*
X174432000Y-100701000D01*
G75*
G02*
X174567000Y-100566000I135000J0D01*
G01*
G37*
%TD*%
D15*
%TO.C,TP9*%
X154432000Y-72136000D03*
%TD*%
%TO.C,TP7*%
X139446000Y-72136000D03*
%TD*%
%TO.C,R19*%
G36*
G01*
X156704000Y-70035000D02*
X156704000Y-69665000D01*
G75*
G02*
X156839000Y-69530000I135000J0D01*
G01*
X157109000Y-69530000D01*
G75*
G02*
X157244000Y-69665000I0J-135000D01*
G01*
X157244000Y-70035000D01*
G75*
G02*
X157109000Y-70170000I-135000J0D01*
G01*
X156839000Y-70170000D01*
G75*
G02*
X156704000Y-70035000I0J135000D01*
G01*
G37*
G36*
G01*
X155684000Y-70035000D02*
X155684000Y-69665000D01*
G75*
G02*
X155819000Y-69530000I135000J0D01*
G01*
X156089000Y-69530000D01*
G75*
G02*
X156224000Y-69665000I0J-135000D01*
G01*
X156224000Y-70035000D01*
G75*
G02*
X156089000Y-70170000I-135000J0D01*
G01*
X155819000Y-70170000D01*
G75*
G02*
X155684000Y-70035000I0J135000D01*
G01*
G37*
%TD*%
%TO.C,R18*%
G36*
G01*
X137174000Y-69411000D02*
X137174000Y-69781000D01*
G75*
G02*
X137039000Y-69916000I-135000J0D01*
G01*
X136769000Y-69916000D01*
G75*
G02*
X136634000Y-69781000I0J135000D01*
G01*
X136634000Y-69411000D01*
G75*
G02*
X136769000Y-69276000I135000J0D01*
G01*
X137039000Y-69276000D01*
G75*
G02*
X137174000Y-69411000I0J-135000D01*
G01*
G37*
G36*
G01*
X138194000Y-69411000D02*
X138194000Y-69781000D01*
G75*
G02*
X138059000Y-69916000I-135000J0D01*
G01*
X137789000Y-69916000D01*
G75*
G02*
X137654000Y-69781000I0J135000D01*
G01*
X137654000Y-69411000D01*
G75*
G02*
X137789000Y-69276000I135000J0D01*
G01*
X138059000Y-69276000D01*
G75*
G02*
X138194000Y-69411000I0J-135000D01*
G01*
G37*
%TD*%
%TO.C,R17*%
G36*
G01*
X162574000Y-83889000D02*
X162574000Y-84259000D01*
G75*
G02*
X162439000Y-84394000I-135000J0D01*
G01*
X162169000Y-84394000D01*
G75*
G02*
X162034000Y-84259000I0J135000D01*
G01*
X162034000Y-83889000D01*
G75*
G02*
X162169000Y-83754000I135000J0D01*
G01*
X162439000Y-83754000D01*
G75*
G02*
X162574000Y-83889000I0J-135000D01*
G01*
G37*
G36*
G01*
X163594000Y-83889000D02*
X163594000Y-84259000D01*
G75*
G02*
X163459000Y-84394000I-135000J0D01*
G01*
X163189000Y-84394000D01*
G75*
G02*
X163054000Y-84259000I0J135000D01*
G01*
X163054000Y-83889000D01*
G75*
G02*
X163189000Y-83754000I135000J0D01*
G01*
X163459000Y-83754000D01*
G75*
G02*
X163594000Y-83889000I0J-135000D01*
G01*
G37*
%TD*%
%TO.C,R16*%
G36*
G01*
X162574000Y-85159000D02*
X162574000Y-85529000D01*
G75*
G02*
X162439000Y-85664000I-135000J0D01*
G01*
X162169000Y-85664000D01*
G75*
G02*
X162034000Y-85529000I0J135000D01*
G01*
X162034000Y-85159000D01*
G75*
G02*
X162169000Y-85024000I135000J0D01*
G01*
X162439000Y-85024000D01*
G75*
G02*
X162574000Y-85159000I0J-135000D01*
G01*
G37*
G36*
G01*
X163594000Y-85159000D02*
X163594000Y-85529000D01*
G75*
G02*
X163459000Y-85664000I-135000J0D01*
G01*
X163189000Y-85664000D01*
G75*
G02*
X163054000Y-85529000I0J135000D01*
G01*
X163054000Y-85159000D01*
G75*
G02*
X163189000Y-85024000I135000J0D01*
G01*
X163459000Y-85024000D01*
G75*
G02*
X163594000Y-85159000I0J-135000D01*
G01*
G37*
%TD*%
%TO.C,R15*%
G36*
G01*
X156224000Y-68141000D02*
X156224000Y-68511000D01*
G75*
G02*
X156089000Y-68646000I-135000J0D01*
G01*
X155819000Y-68646000D01*
G75*
G02*
X155684000Y-68511000I0J135000D01*
G01*
X155684000Y-68141000D01*
G75*
G02*
X155819000Y-68006000I135000J0D01*
G01*
X156089000Y-68006000D01*
G75*
G02*
X156224000Y-68141000I0J-135000D01*
G01*
G37*
G36*
G01*
X157244000Y-68141000D02*
X157244000Y-68511000D01*
G75*
G02*
X157109000Y-68646000I-135000J0D01*
G01*
X156839000Y-68646000D01*
G75*
G02*
X156704000Y-68511000I0J135000D01*
G01*
X156704000Y-68141000D01*
G75*
G02*
X156839000Y-68006000I135000J0D01*
G01*
X157109000Y-68006000D01*
G75*
G02*
X157244000Y-68141000I0J-135000D01*
G01*
G37*
%TD*%
%TO.C,R8*%
G36*
G01*
X137652000Y-68511000D02*
X137652000Y-68141000D01*
G75*
G02*
X137787000Y-68006000I135000J0D01*
G01*
X138057000Y-68006000D01*
G75*
G02*
X138192000Y-68141000I0J-135000D01*
G01*
X138192000Y-68511000D01*
G75*
G02*
X138057000Y-68646000I-135000J0D01*
G01*
X137787000Y-68646000D01*
G75*
G02*
X137652000Y-68511000I0J135000D01*
G01*
G37*
G36*
G01*
X136632000Y-68511000D02*
X136632000Y-68141000D01*
G75*
G02*
X136767000Y-68006000I135000J0D01*
G01*
X137037000Y-68006000D01*
G75*
G02*
X137172000Y-68141000I0J-135000D01*
G01*
X137172000Y-68511000D01*
G75*
G02*
X137037000Y-68646000I-135000J0D01*
G01*
X136767000Y-68646000D01*
G75*
G02*
X136632000Y-68511000I0J135000D01*
G01*
G37*
%TD*%
D16*
%TO.C,D5*%
X142874000Y-69088000D03*
X139574000Y-69088000D03*
%TD*%
D17*
%TO.C,U2*%
X165744000Y-75311000D03*
X165744000Y-76581000D03*
X165744000Y-77851000D03*
X165744000Y-79121000D03*
X165744000Y-80391000D03*
X165744000Y-81661000D03*
X165744000Y-82931000D03*
X165744000Y-84201000D03*
X165744000Y-85471000D03*
X165744000Y-86741000D03*
X165744000Y-88011000D03*
X165744000Y-89281000D03*
X165744000Y-90551000D03*
X165744000Y-91821000D03*
D18*
X168529000Y-92821000D03*
X169799000Y-92821000D03*
X171069000Y-92821000D03*
X172339000Y-92821000D03*
X173609000Y-92821000D03*
X174879000Y-92821000D03*
X176149000Y-92821000D03*
X177419000Y-92821000D03*
X178689000Y-92821000D03*
X179959000Y-92821000D03*
D17*
X182744000Y-91821000D03*
X182744000Y-90551000D03*
X182744000Y-89281000D03*
X182744000Y-88011000D03*
X182744000Y-86741000D03*
X182744000Y-85471000D03*
X182744000Y-84201000D03*
X182744000Y-82931000D03*
X182744000Y-81661000D03*
X182744000Y-80391000D03*
X182744000Y-79121000D03*
X182744000Y-77851000D03*
X182744000Y-76581000D03*
X182744000Y-75311000D03*
D19*
X175244000Y-82811000D03*
%TD*%
%TO.C,R14*%
G36*
G01*
X208073500Y-68447500D02*
X208073500Y-68077500D01*
G75*
G02*
X208208500Y-67942500I135000J0D01*
G01*
X208478500Y-67942500D01*
G75*
G02*
X208613500Y-68077500I0J-135000D01*
G01*
X208613500Y-68447500D01*
G75*
G02*
X208478500Y-68582500I-135000J0D01*
G01*
X208208500Y-68582500D01*
G75*
G02*
X208073500Y-68447500I0J135000D01*
G01*
G37*
G36*
G01*
X207053500Y-68447500D02*
X207053500Y-68077500D01*
G75*
G02*
X207188500Y-67942500I135000J0D01*
G01*
X207458500Y-67942500D01*
G75*
G02*
X207593500Y-68077500I0J-135000D01*
G01*
X207593500Y-68447500D01*
G75*
G02*
X207458500Y-68582500I-135000J0D01*
G01*
X207188500Y-68582500D01*
G75*
G02*
X207053500Y-68447500I0J135000D01*
G01*
G37*
%TD*%
%TO.C,R13*%
G36*
G01*
X200265000Y-68257000D02*
X200265000Y-67887000D01*
G75*
G02*
X200400000Y-67752000I135000J0D01*
G01*
X200670000Y-67752000D01*
G75*
G02*
X200805000Y-67887000I0J-135000D01*
G01*
X200805000Y-68257000D01*
G75*
G02*
X200670000Y-68392000I-135000J0D01*
G01*
X200400000Y-68392000D01*
G75*
G02*
X200265000Y-68257000I0J135000D01*
G01*
G37*
G36*
G01*
X199245000Y-68257000D02*
X199245000Y-67887000D01*
G75*
G02*
X199380000Y-67752000I135000J0D01*
G01*
X199650000Y-67752000D01*
G75*
G02*
X199785000Y-67887000I0J-135000D01*
G01*
X199785000Y-68257000D01*
G75*
G02*
X199650000Y-68392000I-135000J0D01*
G01*
X199380000Y-68392000D01*
G75*
G02*
X199245000Y-68257000I0J135000D01*
G01*
G37*
%TD*%
D20*
%TO.C,J6*%
X144406000Y-62738000D03*
X141906000Y-62738000D03*
X139406000Y-62738000D03*
G36*
G01*
X136056000Y-63463000D02*
X136056000Y-62013000D01*
G75*
G02*
X136306000Y-61763000I250000J0D01*
G01*
X137506000Y-61763000D01*
G75*
G02*
X137756000Y-62013000I0J-250000D01*
G01*
X137756000Y-63463000D01*
G75*
G02*
X137506000Y-63713000I-250000J0D01*
G01*
X136306000Y-63713000D01*
G75*
G02*
X136056000Y-63463000I0J250000D01*
G01*
G37*
%TD*%
%TO.C,J5*%
X157000000Y-62738000D03*
X154500000Y-62738000D03*
G36*
G01*
X151150000Y-63463000D02*
X151150000Y-62013000D01*
G75*
G02*
X151400000Y-61763000I250000J0D01*
G01*
X152600000Y-61763000D01*
G75*
G02*
X152850000Y-62013000I0J-250000D01*
G01*
X152850000Y-63463000D01*
G75*
G02*
X152600000Y-63713000I-250000J0D01*
G01*
X151400000Y-63713000D01*
G75*
G02*
X151150000Y-63463000I0J250000D01*
G01*
G37*
%TD*%
%TO.C,C19*%
G36*
G01*
X186636000Y-76878000D02*
X186636000Y-76538000D01*
G75*
G02*
X186776000Y-76398000I140000J0D01*
G01*
X187056000Y-76398000D01*
G75*
G02*
X187196000Y-76538000I0J-140000D01*
G01*
X187196000Y-76878000D01*
G75*
G02*
X187056000Y-77018000I-140000J0D01*
G01*
X186776000Y-77018000D01*
G75*
G02*
X186636000Y-76878000I0J140000D01*
G01*
G37*
G36*
G01*
X185676000Y-76878000D02*
X185676000Y-76538000D01*
G75*
G02*
X185816000Y-76398000I140000J0D01*
G01*
X186096000Y-76398000D01*
G75*
G02*
X186236000Y-76538000I0J-140000D01*
G01*
X186236000Y-76878000D01*
G75*
G02*
X186096000Y-77018000I-140000J0D01*
G01*
X185816000Y-77018000D01*
G75*
G02*
X185676000Y-76878000I0J140000D01*
G01*
G37*
%TD*%
D15*
%TO.C,TP12*%
X194310000Y-94742000D03*
%TD*%
%TO.C,R12*%
G36*
G01*
X199148001Y-93033000D02*
X199148001Y-93403000D01*
G75*
G02*
X199013001Y-93538000I-135000J0D01*
G01*
X198743001Y-93538000D01*
G75*
G02*
X198608001Y-93403000I0J135000D01*
G01*
X198608001Y-93033000D01*
G75*
G02*
X198743001Y-92898000I135000J0D01*
G01*
X199013001Y-92898000D01*
G75*
G02*
X199148001Y-93033000I0J-135000D01*
G01*
G37*
G36*
G01*
X200168001Y-93033000D02*
X200168001Y-93403000D01*
G75*
G02*
X200033001Y-93538000I-135000J0D01*
G01*
X199763001Y-93538000D01*
G75*
G02*
X199628001Y-93403000I0J135000D01*
G01*
X199628001Y-93033000D01*
G75*
G02*
X199763001Y-92898000I135000J0D01*
G01*
X200033001Y-92898000D01*
G75*
G02*
X200168001Y-93033000I0J-135000D01*
G01*
G37*
%TD*%
D21*
%TO.C,Q4*%
X198882000Y-89678000D03*
X197932000Y-91678000D03*
X199832000Y-91678000D03*
%TD*%
D15*
%TO.C,TP5*%
X194183000Y-88138000D03*
%TD*%
%TO.C,TP3*%
X194183000Y-84010500D03*
%TD*%
%TO.C,TP2*%
X194119500Y-79565500D03*
%TD*%
%TO.C,R11*%
G36*
G01*
X206295500Y-77147000D02*
X206295500Y-76777000D01*
G75*
G02*
X206430500Y-76642000I135000J0D01*
G01*
X206700500Y-76642000D01*
G75*
G02*
X206835500Y-76777000I0J-135000D01*
G01*
X206835500Y-77147000D01*
G75*
G02*
X206700500Y-77282000I-135000J0D01*
G01*
X206430500Y-77282000D01*
G75*
G02*
X206295500Y-77147000I0J135000D01*
G01*
G37*
G36*
G01*
X205275500Y-77147000D02*
X205275500Y-76777000D01*
G75*
G02*
X205410500Y-76642000I135000J0D01*
G01*
X205680500Y-76642000D01*
G75*
G02*
X205815500Y-76777000I0J-135000D01*
G01*
X205815500Y-77147000D01*
G75*
G02*
X205680500Y-77282000I-135000J0D01*
G01*
X205410500Y-77282000D01*
G75*
G02*
X205275500Y-77147000I0J135000D01*
G01*
G37*
%TD*%
%TO.C,R10*%
G36*
G01*
X209428500Y-87935499D02*
X209798500Y-87935499D01*
G75*
G02*
X209933500Y-88070499I0J-135000D01*
G01*
X209933500Y-88340499D01*
G75*
G02*
X209798500Y-88475499I-135000J0D01*
G01*
X209428500Y-88475499D01*
G75*
G02*
X209293500Y-88340499I0J135000D01*
G01*
X209293500Y-88070499D01*
G75*
G02*
X209428500Y-87935499I135000J0D01*
G01*
G37*
G36*
G01*
X209428500Y-86915499D02*
X209798500Y-86915499D01*
G75*
G02*
X209933500Y-87050499I0J-135000D01*
G01*
X209933500Y-87320499D01*
G75*
G02*
X209798500Y-87455499I-135000J0D01*
G01*
X209428500Y-87455499D01*
G75*
G02*
X209293500Y-87320499I0J135000D01*
G01*
X209293500Y-87050499D01*
G75*
G02*
X209428500Y-86915499I135000J0D01*
G01*
G37*
%TD*%
%TO.C,R9*%
G36*
G01*
X209798500Y-78754000D02*
X209428500Y-78754000D01*
G75*
G02*
X209293500Y-78619000I0J135000D01*
G01*
X209293500Y-78349000D01*
G75*
G02*
X209428500Y-78214000I135000J0D01*
G01*
X209798500Y-78214000D01*
G75*
G02*
X209933500Y-78349000I0J-135000D01*
G01*
X209933500Y-78619000D01*
G75*
G02*
X209798500Y-78754000I-135000J0D01*
G01*
G37*
G36*
G01*
X209798500Y-79774000D02*
X209428500Y-79774000D01*
G75*
G02*
X209293500Y-79639000I0J135000D01*
G01*
X209293500Y-79369000D01*
G75*
G02*
X209428500Y-79234000I135000J0D01*
G01*
X209798500Y-79234000D01*
G75*
G02*
X209933500Y-79369000I0J-135000D01*
G01*
X209933500Y-79639000D01*
G75*
G02*
X209798500Y-79774000I-135000J0D01*
G01*
G37*
%TD*%
D16*
%TO.C,D4*%
X151107274Y-68937274D03*
X154407274Y-68937274D03*
%TD*%
%TO.C,C18*%
G36*
G01*
X208513500Y-87521500D02*
X208173500Y-87521500D01*
G75*
G02*
X208033500Y-87381500I0J140000D01*
G01*
X208033500Y-87101500D01*
G75*
G02*
X208173500Y-86961500I140000J0D01*
G01*
X208513500Y-86961500D01*
G75*
G02*
X208653500Y-87101500I0J-140000D01*
G01*
X208653500Y-87381500D01*
G75*
G02*
X208513500Y-87521500I-140000J0D01*
G01*
G37*
G36*
G01*
X208513500Y-88481500D02*
X208173500Y-88481500D01*
G75*
G02*
X208033500Y-88341500I0J140000D01*
G01*
X208033500Y-88061500D01*
G75*
G02*
X208173500Y-87921500I140000J0D01*
G01*
X208513500Y-87921500D01*
G75*
G02*
X208653500Y-88061500I0J-140000D01*
G01*
X208653500Y-88341500D01*
G75*
G02*
X208513500Y-88481500I-140000J0D01*
G01*
G37*
%TD*%
%TO.C,C17*%
G36*
G01*
X208173499Y-78234000D02*
X208513499Y-78234000D01*
G75*
G02*
X208653499Y-78374000I0J-140000D01*
G01*
X208653499Y-78654000D01*
G75*
G02*
X208513499Y-78794000I-140000J0D01*
G01*
X208173499Y-78794000D01*
G75*
G02*
X208033499Y-78654000I0J140000D01*
G01*
X208033499Y-78374000D01*
G75*
G02*
X208173499Y-78234000I140000J0D01*
G01*
G37*
G36*
G01*
X208173499Y-79194000D02*
X208513499Y-79194000D01*
G75*
G02*
X208653499Y-79334000I0J-140000D01*
G01*
X208653499Y-79614000D01*
G75*
G02*
X208513499Y-79754000I-140000J0D01*
G01*
X208173499Y-79754000D01*
G75*
G02*
X208033499Y-79614000I0J140000D01*
G01*
X208033499Y-79334000D01*
G75*
G02*
X208173499Y-79194000I140000J0D01*
G01*
G37*
%TD*%
%TO.C,C16*%
G36*
G01*
X206229500Y-75608000D02*
X206229500Y-75268000D01*
G75*
G02*
X206369500Y-75128000I140000J0D01*
G01*
X206649500Y-75128000D01*
G75*
G02*
X206789500Y-75268000I0J-140000D01*
G01*
X206789500Y-75608000D01*
G75*
G02*
X206649500Y-75748000I-140000J0D01*
G01*
X206369500Y-75748000D01*
G75*
G02*
X206229500Y-75608000I0J140000D01*
G01*
G37*
G36*
G01*
X205269500Y-75608000D02*
X205269500Y-75268000D01*
G75*
G02*
X205409500Y-75128000I140000J0D01*
G01*
X205689500Y-75128000D01*
G75*
G02*
X205829500Y-75268000I0J-140000D01*
G01*
X205829500Y-75608000D01*
G75*
G02*
X205689500Y-75748000I-140000J0D01*
G01*
X205409500Y-75748000D01*
G75*
G02*
X205269500Y-75608000I0J140000D01*
G01*
G37*
%TD*%
%TO.C,J3*%
G36*
G01*
X140175000Y-100750000D02*
X138425000Y-100750000D01*
G75*
G02*
X137550000Y-99875000I0J875000D01*
G01*
X137550000Y-98125000D01*
G75*
G02*
X138425000Y-97250000I875000J0D01*
G01*
X140175000Y-97250000D01*
G75*
G02*
X141050000Y-98125000I0J-875000D01*
G01*
X141050000Y-99875000D01*
G75*
G02*
X140175000Y-100750000I-875000J0D01*
G01*
G37*
G36*
G01*
X145000000Y-103500000D02*
X143000000Y-103500000D01*
G75*
G02*
X142250000Y-102750000I0J750000D01*
G01*
X142250000Y-101250000D01*
G75*
G02*
X143000000Y-100500000I750000J0D01*
G01*
X145000000Y-100500000D01*
G75*
G02*
X145750000Y-101250000I0J-750000D01*
G01*
X145750000Y-102750000D01*
G75*
G02*
X145000000Y-103500000I-750000J0D01*
G01*
G37*
D22*
X144000000Y-96000000D03*
%TD*%
%TO.C,R7*%
G36*
G01*
X178239000Y-97042000D02*
X177869000Y-97042000D01*
G75*
G02*
X177734000Y-96907000I0J135000D01*
G01*
X177734000Y-96637000D01*
G75*
G02*
X177869000Y-96502000I135000J0D01*
G01*
X178239000Y-96502000D01*
G75*
G02*
X178374000Y-96637000I0J-135000D01*
G01*
X178374000Y-96907000D01*
G75*
G02*
X178239000Y-97042000I-135000J0D01*
G01*
G37*
G36*
G01*
X178239000Y-98062000D02*
X177869000Y-98062000D01*
G75*
G02*
X177734000Y-97927000I0J135000D01*
G01*
X177734000Y-97657000D01*
G75*
G02*
X177869000Y-97522000I135000J0D01*
G01*
X178239000Y-97522000D01*
G75*
G02*
X178374000Y-97657000I0J-135000D01*
G01*
X178374000Y-97927000D01*
G75*
G02*
X178239000Y-98062000I-135000J0D01*
G01*
G37*
%TD*%
D23*
%TO.C,Q3*%
X178038000Y-100838000D03*
X176038000Y-99888000D03*
X176038000Y-101788000D03*
%TD*%
D24*
%TO.C,K1*%
X181102000Y-105918000D03*
X198882000Y-98298000D03*
X191262000Y-98298000D03*
D25*
X181102000Y-98298000D03*
%TD*%
%TO.C,U1*%
G36*
G01*
X141219277Y-82394000D02*
X141519277Y-82394000D01*
G75*
G02*
X141669277Y-82544000I0J-150000D01*
G01*
X141669277Y-84194000D01*
G75*
G02*
X141519277Y-84344000I-150000J0D01*
G01*
X141219277Y-84344000D01*
G75*
G02*
X141069277Y-84194000I0J150000D01*
G01*
X141069277Y-82544000D01*
G75*
G02*
X141219277Y-82394000I150000J0D01*
G01*
G37*
G36*
G01*
X142489277Y-82394000D02*
X142789277Y-82394000D01*
G75*
G02*
X142939277Y-82544000I0J-150000D01*
G01*
X142939277Y-84194000D01*
G75*
G02*
X142789277Y-84344000I-150000J0D01*
G01*
X142489277Y-84344000D01*
G75*
G02*
X142339277Y-84194000I0J150000D01*
G01*
X142339277Y-82544000D01*
G75*
G02*
X142489277Y-82394000I150000J0D01*
G01*
G37*
G36*
G01*
X143759277Y-82394000D02*
X144059277Y-82394000D01*
G75*
G02*
X144209277Y-82544000I0J-150000D01*
G01*
X144209277Y-84194000D01*
G75*
G02*
X144059277Y-84344000I-150000J0D01*
G01*
X143759277Y-84344000D01*
G75*
G02*
X143609277Y-84194000I0J150000D01*
G01*
X143609277Y-82544000D01*
G75*
G02*
X143759277Y-82394000I150000J0D01*
G01*
G37*
G36*
G01*
X145029277Y-82394000D02*
X145329277Y-82394000D01*
G75*
G02*
X145479277Y-82544000I0J-150000D01*
G01*
X145479277Y-84194000D01*
G75*
G02*
X145329277Y-84344000I-150000J0D01*
G01*
X145029277Y-84344000D01*
G75*
G02*
X144879277Y-84194000I0J150000D01*
G01*
X144879277Y-82544000D01*
G75*
G02*
X145029277Y-82394000I150000J0D01*
G01*
G37*
G36*
G01*
X145029277Y-77444000D02*
X145329277Y-77444000D01*
G75*
G02*
X145479277Y-77594000I0J-150000D01*
G01*
X145479277Y-79244000D01*
G75*
G02*
X145329277Y-79394000I-150000J0D01*
G01*
X145029277Y-79394000D01*
G75*
G02*
X144879277Y-79244000I0J150000D01*
G01*
X144879277Y-77594000D01*
G75*
G02*
X145029277Y-77444000I150000J0D01*
G01*
G37*
G36*
G01*
X143759277Y-77444000D02*
X144059277Y-77444000D01*
G75*
G02*
X144209277Y-77594000I0J-150000D01*
G01*
X144209277Y-79244000D01*
G75*
G02*
X144059277Y-79394000I-150000J0D01*
G01*
X143759277Y-79394000D01*
G75*
G02*
X143609277Y-79244000I0J150000D01*
G01*
X143609277Y-77594000D01*
G75*
G02*
X143759277Y-77444000I150000J0D01*
G01*
G37*
G36*
G01*
X142489277Y-77444000D02*
X142789277Y-77444000D01*
G75*
G02*
X142939277Y-77594000I0J-150000D01*
G01*
X142939277Y-79244000D01*
G75*
G02*
X142789277Y-79394000I-150000J0D01*
G01*
X142489277Y-79394000D01*
G75*
G02*
X142339277Y-79244000I0J150000D01*
G01*
X142339277Y-77594000D01*
G75*
G02*
X142489277Y-77444000I150000J0D01*
G01*
G37*
G36*
G01*
X141219277Y-77444000D02*
X141519277Y-77444000D01*
G75*
G02*
X141669277Y-77594000I0J-150000D01*
G01*
X141669277Y-79244000D01*
G75*
G02*
X141519277Y-79394000I-150000J0D01*
G01*
X141219277Y-79394000D01*
G75*
G02*
X141069277Y-79244000I0J150000D01*
G01*
X141069277Y-77594000D01*
G75*
G02*
X141219277Y-77444000I150000J0D01*
G01*
G37*
%TD*%
D15*
%TO.C,TP1*%
X139509500Y-75184000D03*
%TD*%
D26*
%TO.C,SW2*%
X205994000Y-80518000D03*
D27*
X205994000Y-83018000D03*
X205994000Y-85518000D03*
D28*
X213494000Y-77418000D03*
X213494000Y-88618000D03*
D27*
X220494000Y-80518000D03*
X220494000Y-85518000D03*
%TD*%
%TO.C,R5*%
G36*
G01*
X199052600Y-84159600D02*
X199422600Y-84159600D01*
G75*
G02*
X199557600Y-84294600I0J-135000D01*
G01*
X199557600Y-84564600D01*
G75*
G02*
X199422600Y-84699600I-135000J0D01*
G01*
X199052600Y-84699600D01*
G75*
G02*
X198917600Y-84564600I0J135000D01*
G01*
X198917600Y-84294600D01*
G75*
G02*
X199052600Y-84159600I135000J0D01*
G01*
G37*
G36*
G01*
X199052600Y-83139600D02*
X199422600Y-83139600D01*
G75*
G02*
X199557600Y-83274600I0J-135000D01*
G01*
X199557600Y-83544600D01*
G75*
G02*
X199422600Y-83679600I-135000J0D01*
G01*
X199052600Y-83679600D01*
G75*
G02*
X198917600Y-83544600I0J135000D01*
G01*
X198917600Y-83274600D01*
G75*
G02*
X199052600Y-83139600I135000J0D01*
G01*
G37*
%TD*%
%TO.C,L1*%
G36*
G01*
X138724281Y-79319000D02*
X135824275Y-79319000D01*
G75*
G02*
X135574278Y-79069003I0J249997D01*
G01*
X135574278Y-78443997D01*
G75*
G02*
X135824275Y-78194000I249997J0D01*
G01*
X138724281Y-78194000D01*
G75*
G02*
X138974278Y-78443997I0J-249997D01*
G01*
X138974278Y-79069003D01*
G75*
G02*
X138724281Y-79319000I-249997J0D01*
G01*
G37*
G36*
G01*
X138724281Y-83594000D02*
X135824275Y-83594000D01*
G75*
G02*
X135574278Y-83344003I0J249997D01*
G01*
X135574278Y-82718997D01*
G75*
G02*
X135824275Y-82469000I249997J0D01*
G01*
X138724281Y-82469000D01*
G75*
G02*
X138974278Y-82718997I0J-249997D01*
G01*
X138974278Y-83344003D01*
G75*
G02*
X138724281Y-83594000I-249997J0D01*
G01*
G37*
%TD*%
D29*
%TO.C,H4*%
X129000000Y-60000000D03*
%TD*%
%TO.C,H3*%
X129000000Y-105000000D03*
%TD*%
%TO.C,H2*%
X219000000Y-60000000D03*
%TD*%
%TO.C,H1*%
X219000000Y-105000000D03*
%TD*%
D30*
%TO.C,D3*%
X137274277Y-88544000D03*
X137274277Y-85244000D03*
%TD*%
%TO.C,C14*%
G36*
G01*
X148623000Y-70046000D02*
X149573000Y-70046000D01*
G75*
G02*
X149823000Y-70296000I0J-250000D01*
G01*
X149823000Y-70796000D01*
G75*
G02*
X149573000Y-71046000I-250000J0D01*
G01*
X148623000Y-71046000D01*
G75*
G02*
X148373000Y-70796000I0J250000D01*
G01*
X148373000Y-70296000D01*
G75*
G02*
X148623000Y-70046000I250000J0D01*
G01*
G37*
G36*
G01*
X148623000Y-68146000D02*
X149573000Y-68146000D01*
G75*
G02*
X149823000Y-68396000I0J-250000D01*
G01*
X149823000Y-68896000D01*
G75*
G02*
X149573000Y-69146000I-250000J0D01*
G01*
X148623000Y-69146000D01*
G75*
G02*
X148373000Y-68896000I0J250000D01*
G01*
X148373000Y-68396000D01*
G75*
G02*
X148623000Y-68146000I250000J0D01*
G01*
G37*
%TD*%
D31*
%TO.C,C6*%
X149606000Y-75986000D03*
D32*
X149606000Y-78486000D03*
%TD*%
%TO.C,C5*%
G36*
G01*
X142574277Y-88344001D02*
X142574277Y-89444001D01*
G75*
G02*
X142324277Y-89694001I-250000J0D01*
G01*
X139824277Y-89694001D01*
G75*
G02*
X139574277Y-89444001I0J250000D01*
G01*
X139574277Y-88344001D01*
G75*
G02*
X139824277Y-88094001I250000J0D01*
G01*
X142324277Y-88094001D01*
G75*
G02*
X142574277Y-88344001I0J-250000D01*
G01*
G37*
G36*
G01*
X146974277Y-88344001D02*
X146974277Y-89444001D01*
G75*
G02*
X146724277Y-89694001I-250000J0D01*
G01*
X144224277Y-89694001D01*
G75*
G02*
X143974277Y-89444001I0J250000D01*
G01*
X143974277Y-88344001D01*
G75*
G02*
X144224277Y-88094001I250000J0D01*
G01*
X146724277Y-88094001D01*
G75*
G02*
X146974277Y-88344001I0J-250000D01*
G01*
G37*
%TD*%
M02*
