%TF.GenerationSoftware,KiCad,Pcbnew,(5.1.10-1-10_14)*%
%TF.CreationDate,2022-08-23T11:44:09+02:00*%
%TF.ProjectId,RO Flow Counter,524f2046-6c6f-4772-9043-6f756e746572,rev?*%
%TF.SameCoordinates,Original*%
%TF.FileFunction,Paste,Top*%
%TF.FilePolarity,Positive*%
%FSLAX46Y46*%
G04 Gerber Fmt 4.6, Leading zero omitted, Abs format (unit mm)*
G04 Created by KiCad (PCBNEW (5.1.10-1-10_14)) date 2022-08-23 11:44:09*
%MOMM*%
%LPD*%
G01*
G04 APERTURE LIST*
%ADD10R,0.800000X0.900000*%
G04 APERTURE END LIST*
%TO.C,R27*%
G36*
G01*
X207525200Y-61710600D02*
X207155200Y-61710600D01*
G75*
G02*
X207020200Y-61575600I0J135000D01*
G01*
X207020200Y-61305600D01*
G75*
G02*
X207155200Y-61170600I135000J0D01*
G01*
X207525200Y-61170600D01*
G75*
G02*
X207660200Y-61305600I0J-135000D01*
G01*
X207660200Y-61575600D01*
G75*
G02*
X207525200Y-61710600I-135000J0D01*
G01*
G37*
G36*
G01*
X207525200Y-62730600D02*
X207155200Y-62730600D01*
G75*
G02*
X207020200Y-62595600I0J135000D01*
G01*
X207020200Y-62325600D01*
G75*
G02*
X207155200Y-62190600I135000J0D01*
G01*
X207525200Y-62190600D01*
G75*
G02*
X207660200Y-62325600I0J-135000D01*
G01*
X207660200Y-62595600D01*
G75*
G02*
X207525200Y-62730600I-135000J0D01*
G01*
G37*
%TD*%
%TO.C,R26*%
G36*
G01*
X205978000Y-61678400D02*
X205978000Y-61308400D01*
G75*
G02*
X206113000Y-61173400I135000J0D01*
G01*
X206383000Y-61173400D01*
G75*
G02*
X206518000Y-61308400I0J-135000D01*
G01*
X206518000Y-61678400D01*
G75*
G02*
X206383000Y-61813400I-135000J0D01*
G01*
X206113000Y-61813400D01*
G75*
G02*
X205978000Y-61678400I0J135000D01*
G01*
G37*
G36*
G01*
X204958000Y-61678400D02*
X204958000Y-61308400D01*
G75*
G02*
X205093000Y-61173400I135000J0D01*
G01*
X205363000Y-61173400D01*
G75*
G02*
X205498000Y-61308400I0J-135000D01*
G01*
X205498000Y-61678400D01*
G75*
G02*
X205363000Y-61813400I-135000J0D01*
G01*
X205093000Y-61813400D01*
G75*
G02*
X204958000Y-61678400I0J135000D01*
G01*
G37*
%TD*%
%TO.C,R25*%
G36*
G01*
X210402200Y-63442000D02*
X210402200Y-63812000D01*
G75*
G02*
X210267200Y-63947000I-135000J0D01*
G01*
X209997200Y-63947000D01*
G75*
G02*
X209862200Y-63812000I0J135000D01*
G01*
X209862200Y-63442000D01*
G75*
G02*
X209997200Y-63307000I135000J0D01*
G01*
X210267200Y-63307000D01*
G75*
G02*
X210402200Y-63442000I0J-135000D01*
G01*
G37*
G36*
G01*
X211422200Y-63442000D02*
X211422200Y-63812000D01*
G75*
G02*
X211287200Y-63947000I-135000J0D01*
G01*
X211017200Y-63947000D01*
G75*
G02*
X210882200Y-63812000I0J135000D01*
G01*
X210882200Y-63442000D01*
G75*
G02*
X211017200Y-63307000I135000J0D01*
G01*
X211287200Y-63307000D01*
G75*
G02*
X211422200Y-63442000I0J-135000D01*
G01*
G37*
%TD*%
D10*
%TO.C,Q5*%
X209829400Y-62163200D03*
X208879400Y-60163200D03*
X210779400Y-60163200D03*
%TD*%
%TO.C,D6*%
G36*
G01*
X214094400Y-62456250D02*
X214094400Y-61543750D01*
G75*
G02*
X214338150Y-61300000I243750J0D01*
G01*
X214825650Y-61300000D01*
G75*
G02*
X215069400Y-61543750I0J-243750D01*
G01*
X215069400Y-62456250D01*
G75*
G02*
X214825650Y-62700000I-243750J0D01*
G01*
X214338150Y-62700000D01*
G75*
G02*
X214094400Y-62456250I0J243750D01*
G01*
G37*
G36*
G01*
X212219400Y-62456250D02*
X212219400Y-61543750D01*
G75*
G02*
X212463150Y-61300000I243750J0D01*
G01*
X212950650Y-61300000D01*
G75*
G02*
X213194400Y-61543750I0J-243750D01*
G01*
X213194400Y-62456250D01*
G75*
G02*
X212950650Y-62700000I-243750J0D01*
G01*
X212463150Y-62700000D01*
G75*
G02*
X212219400Y-62456250I0J243750D01*
G01*
G37*
%TD*%
%TO.C,R24*%
G36*
G01*
X207525200Y-66689000D02*
X207155200Y-66689000D01*
G75*
G02*
X207020200Y-66554000I0J135000D01*
G01*
X207020200Y-66284000D01*
G75*
G02*
X207155200Y-66149000I135000J0D01*
G01*
X207525200Y-66149000D01*
G75*
G02*
X207660200Y-66284000I0J-135000D01*
G01*
X207660200Y-66554000D01*
G75*
G02*
X207525200Y-66689000I-135000J0D01*
G01*
G37*
G36*
G01*
X207525200Y-67709000D02*
X207155200Y-67709000D01*
G75*
G02*
X207020200Y-67574000I0J135000D01*
G01*
X207020200Y-67304000D01*
G75*
G02*
X207155200Y-67169000I135000J0D01*
G01*
X207525200Y-67169000D01*
G75*
G02*
X207660200Y-67304000I0J-135000D01*
G01*
X207660200Y-67574000D01*
G75*
G02*
X207525200Y-67709000I-135000J0D01*
G01*
G37*
%TD*%
%TO.C,R23*%
G36*
G01*
X207499800Y-71769000D02*
X207129800Y-71769000D01*
G75*
G02*
X206994800Y-71634000I0J135000D01*
G01*
X206994800Y-71364000D01*
G75*
G02*
X207129800Y-71229000I135000J0D01*
G01*
X207499800Y-71229000D01*
G75*
G02*
X207634800Y-71364000I0J-135000D01*
G01*
X207634800Y-71634000D01*
G75*
G02*
X207499800Y-71769000I-135000J0D01*
G01*
G37*
G36*
G01*
X207499800Y-72789000D02*
X207129800Y-72789000D01*
G75*
G02*
X206994800Y-72654000I0J135000D01*
G01*
X206994800Y-72384000D01*
G75*
G02*
X207129800Y-72249000I135000J0D01*
G01*
X207499800Y-72249000D01*
G75*
G02*
X207634800Y-72384000I0J-135000D01*
G01*
X207634800Y-72654000D01*
G75*
G02*
X207499800Y-72789000I-135000J0D01*
G01*
G37*
%TD*%
%TO.C,Q2*%
X209753200Y-67192400D03*
X208803200Y-65192400D03*
X210703200Y-65192400D03*
%TD*%
%TO.C,Q1*%
X209778600Y-72272400D03*
X208828600Y-70272400D03*
X210728600Y-70272400D03*
%TD*%
%TO.C,F1*%
G36*
G01*
X210654600Y-104531000D02*
X210654600Y-105781000D01*
G75*
G02*
X210404600Y-106031000I-250000J0D01*
G01*
X209654600Y-106031000D01*
G75*
G02*
X209404600Y-105781000I0J250000D01*
G01*
X209404600Y-104531000D01*
G75*
G02*
X209654600Y-104281000I250000J0D01*
G01*
X210404600Y-104281000D01*
G75*
G02*
X210654600Y-104531000I0J-250000D01*
G01*
G37*
G36*
G01*
X213454600Y-104531000D02*
X213454600Y-105781000D01*
G75*
G02*
X213204600Y-106031000I-250000J0D01*
G01*
X212454600Y-106031000D01*
G75*
G02*
X212204600Y-105781000I0J250000D01*
G01*
X212204600Y-104531000D01*
G75*
G02*
X212454600Y-104281000I250000J0D01*
G01*
X213204600Y-104281000D01*
G75*
G02*
X213454600Y-104531000I0J-250000D01*
G01*
G37*
%TD*%
%TO.C,R6*%
G36*
G01*
X160006000Y-101023000D02*
X160006000Y-100653000D01*
G75*
G02*
X160141000Y-100518000I135000J0D01*
G01*
X160411000Y-100518000D01*
G75*
G02*
X160546000Y-100653000I0J-135000D01*
G01*
X160546000Y-101023000D01*
G75*
G02*
X160411000Y-101158000I-135000J0D01*
G01*
X160141000Y-101158000D01*
G75*
G02*
X160006000Y-101023000I0J135000D01*
G01*
G37*
G36*
G01*
X158986000Y-101023000D02*
X158986000Y-100653000D01*
G75*
G02*
X159121000Y-100518000I135000J0D01*
G01*
X159391000Y-100518000D01*
G75*
G02*
X159526000Y-100653000I0J-135000D01*
G01*
X159526000Y-101023000D01*
G75*
G02*
X159391000Y-101158000I-135000J0D01*
G01*
X159121000Y-101158000D01*
G75*
G02*
X158986000Y-101023000I0J135000D01*
G01*
G37*
%TD*%
%TO.C,R4*%
G36*
G01*
X210275200Y-73627400D02*
X210275200Y-73997400D01*
G75*
G02*
X210140200Y-74132400I-135000J0D01*
G01*
X209870200Y-74132400D01*
G75*
G02*
X209735200Y-73997400I0J135000D01*
G01*
X209735200Y-73627400D01*
G75*
G02*
X209870200Y-73492400I135000J0D01*
G01*
X210140200Y-73492400D01*
G75*
G02*
X210275200Y-73627400I0J-135000D01*
G01*
G37*
G36*
G01*
X211295200Y-73627400D02*
X211295200Y-73997400D01*
G75*
G02*
X211160200Y-74132400I-135000J0D01*
G01*
X210890200Y-74132400D01*
G75*
G02*
X210755200Y-73997400I0J135000D01*
G01*
X210755200Y-73627400D01*
G75*
G02*
X210890200Y-73492400I135000J0D01*
G01*
X211160200Y-73492400D01*
G75*
G02*
X211295200Y-73627400I0J-135000D01*
G01*
G37*
%TD*%
%TO.C,R3*%
G36*
G01*
X210275200Y-68547400D02*
X210275200Y-68917400D01*
G75*
G02*
X210140200Y-69052400I-135000J0D01*
G01*
X209870200Y-69052400D01*
G75*
G02*
X209735200Y-68917400I0J135000D01*
G01*
X209735200Y-68547400D01*
G75*
G02*
X209870200Y-68412400I135000J0D01*
G01*
X210140200Y-68412400D01*
G75*
G02*
X210275200Y-68547400I0J-135000D01*
G01*
G37*
G36*
G01*
X211295200Y-68547400D02*
X211295200Y-68917400D01*
G75*
G02*
X211160200Y-69052400I-135000J0D01*
G01*
X210890200Y-69052400D01*
G75*
G02*
X210755200Y-68917400I0J135000D01*
G01*
X210755200Y-68547400D01*
G75*
G02*
X210890200Y-68412400I135000J0D01*
G01*
X211160200Y-68412400D01*
G75*
G02*
X211295200Y-68547400I0J-135000D01*
G01*
G37*
%TD*%
%TO.C,R2*%
G36*
G01*
X205929200Y-66631400D02*
X205929200Y-66261400D01*
G75*
G02*
X206064200Y-66126400I135000J0D01*
G01*
X206334200Y-66126400D01*
G75*
G02*
X206469200Y-66261400I0J-135000D01*
G01*
X206469200Y-66631400D01*
G75*
G02*
X206334200Y-66766400I-135000J0D01*
G01*
X206064200Y-66766400D01*
G75*
G02*
X205929200Y-66631400I0J135000D01*
G01*
G37*
G36*
G01*
X204909200Y-66631400D02*
X204909200Y-66261400D01*
G75*
G02*
X205044200Y-66126400I135000J0D01*
G01*
X205314200Y-66126400D01*
G75*
G02*
X205449200Y-66261400I0J-135000D01*
G01*
X205449200Y-66631400D01*
G75*
G02*
X205314200Y-66766400I-135000J0D01*
G01*
X205044200Y-66766400D01*
G75*
G02*
X204909200Y-66631400I0J135000D01*
G01*
G37*
%TD*%
%TO.C,R1*%
G36*
G01*
X205929200Y-71762200D02*
X205929200Y-71392200D01*
G75*
G02*
X206064200Y-71257200I135000J0D01*
G01*
X206334200Y-71257200D01*
G75*
G02*
X206469200Y-71392200I0J-135000D01*
G01*
X206469200Y-71762200D01*
G75*
G02*
X206334200Y-71897200I-135000J0D01*
G01*
X206064200Y-71897200D01*
G75*
G02*
X205929200Y-71762200I0J135000D01*
G01*
G37*
G36*
G01*
X204909200Y-71762200D02*
X204909200Y-71392200D01*
G75*
G02*
X205044200Y-71257200I135000J0D01*
G01*
X205314200Y-71257200D01*
G75*
G02*
X205449200Y-71392200I0J-135000D01*
G01*
X205449200Y-71762200D01*
G75*
G02*
X205314200Y-71897200I-135000J0D01*
G01*
X205044200Y-71897200D01*
G75*
G02*
X204909200Y-71762200I0J135000D01*
G01*
G37*
%TD*%
%TO.C,D2*%
G36*
G01*
X214040900Y-72338250D02*
X214040900Y-71425750D01*
G75*
G02*
X214284650Y-71182000I243750J0D01*
G01*
X214772150Y-71182000D01*
G75*
G02*
X215015900Y-71425750I0J-243750D01*
G01*
X215015900Y-72338250D01*
G75*
G02*
X214772150Y-72582000I-243750J0D01*
G01*
X214284650Y-72582000D01*
G75*
G02*
X214040900Y-72338250I0J243750D01*
G01*
G37*
G36*
G01*
X212165900Y-72338250D02*
X212165900Y-71425750D01*
G75*
G02*
X212409650Y-71182000I243750J0D01*
G01*
X212897150Y-71182000D01*
G75*
G02*
X213140900Y-71425750I0J-243750D01*
G01*
X213140900Y-72338250D01*
G75*
G02*
X212897150Y-72582000I-243750J0D01*
G01*
X212409650Y-72582000D01*
G75*
G02*
X212165900Y-72338250I0J243750D01*
G01*
G37*
%TD*%
%TO.C,D1*%
G36*
G01*
X214009900Y-67586250D02*
X214009900Y-66673750D01*
G75*
G02*
X214253650Y-66430000I243750J0D01*
G01*
X214741150Y-66430000D01*
G75*
G02*
X214984900Y-66673750I0J-243750D01*
G01*
X214984900Y-67586250D01*
G75*
G02*
X214741150Y-67830000I-243750J0D01*
G01*
X214253650Y-67830000D01*
G75*
G02*
X214009900Y-67586250I0J243750D01*
G01*
G37*
G36*
G01*
X212134900Y-67586250D02*
X212134900Y-66673750D01*
G75*
G02*
X212378650Y-66430000I243750J0D01*
G01*
X212866150Y-66430000D01*
G75*
G02*
X213109900Y-66673750I0J-243750D01*
G01*
X213109900Y-67586250D01*
G75*
G02*
X212866150Y-67830000I-243750J0D01*
G01*
X212378650Y-67830000D01*
G75*
G02*
X212134900Y-67586250I0J243750D01*
G01*
G37*
%TD*%
%TO.C,C4*%
G36*
G01*
X135694000Y-92489000D02*
X135694000Y-93439000D01*
G75*
G02*
X135444000Y-93689000I-250000J0D01*
G01*
X134944000Y-93689000D01*
G75*
G02*
X134694000Y-93439000I0J250000D01*
G01*
X134694000Y-92489000D01*
G75*
G02*
X134944000Y-92239000I250000J0D01*
G01*
X135444000Y-92239000D01*
G75*
G02*
X135694000Y-92489000I0J-250000D01*
G01*
G37*
G36*
G01*
X137594000Y-92489000D02*
X137594000Y-93439000D01*
G75*
G02*
X137344000Y-93689000I-250000J0D01*
G01*
X136844000Y-93689000D01*
G75*
G02*
X136594000Y-93439000I0J250000D01*
G01*
X136594000Y-92489000D01*
G75*
G02*
X136844000Y-92239000I250000J0D01*
G01*
X137344000Y-92239000D01*
G75*
G02*
X137594000Y-92489000I0J-250000D01*
G01*
G37*
%TD*%
%TO.C,C3*%
G36*
G01*
X153920800Y-100931800D02*
X153920800Y-100591800D01*
G75*
G02*
X154060800Y-100451800I140000J0D01*
G01*
X154340800Y-100451800D01*
G75*
G02*
X154480800Y-100591800I0J-140000D01*
G01*
X154480800Y-100931800D01*
G75*
G02*
X154340800Y-101071800I-140000J0D01*
G01*
X154060800Y-101071800D01*
G75*
G02*
X153920800Y-100931800I0J140000D01*
G01*
G37*
G36*
G01*
X152960800Y-100931800D02*
X152960800Y-100591800D01*
G75*
G02*
X153100800Y-100451800I140000J0D01*
G01*
X153380800Y-100451800D01*
G75*
G02*
X153520800Y-100591800I0J-140000D01*
G01*
X153520800Y-100931800D01*
G75*
G02*
X153380800Y-101071800I-140000J0D01*
G01*
X153100800Y-101071800D01*
G75*
G02*
X152960800Y-100931800I0J140000D01*
G01*
G37*
%TD*%
%TO.C,C2*%
G36*
G01*
X161882000Y-100586000D02*
X162222000Y-100586000D01*
G75*
G02*
X162362000Y-100726000I0J-140000D01*
G01*
X162362000Y-101006000D01*
G75*
G02*
X162222000Y-101146000I-140000J0D01*
G01*
X161882000Y-101146000D01*
G75*
G02*
X161742000Y-101006000I0J140000D01*
G01*
X161742000Y-100726000D01*
G75*
G02*
X161882000Y-100586000I140000J0D01*
G01*
G37*
G36*
G01*
X161882000Y-101546000D02*
X162222000Y-101546000D01*
G75*
G02*
X162362000Y-101686000I0J-140000D01*
G01*
X162362000Y-101966000D01*
G75*
G02*
X162222000Y-102106000I-140000J0D01*
G01*
X161882000Y-102106000D01*
G75*
G02*
X161742000Y-101966000I0J140000D01*
G01*
X161742000Y-101686000D01*
G75*
G02*
X161882000Y-101546000I140000J0D01*
G01*
G37*
%TD*%
M02*
